<svg xmlns="http://www.w3.org/2000/svg" viewBox="0 0 73.57 73.57"><defs><style>.cls-1{fill:#20a9ce;}</style></defs><title>ampoule</title><g id="Calque_2" data-name="Calque 2"><g id="Calque_1-2" data-name="Calque 1"><rect class="cls-1" x="30.52" y="52.86" width="12.5" height="3.57" rx="1" ry="1"/><rect class="cls-1" x="32.19" y="58.21" width="9.18" height="3.57" rx="1" ry="1"/><path class="cls-1" d="M35.82,11.82c-8.49.53-14.59,8.32-13.85,16.8.85,9.77,8.08,11.48,8.54,21.15a1,1,0,0,0,1,1H35V36.12H31.53a1,1,0,0,1-1-1V33.55a1,1,0,0,1,1-1H42a1,1,0,0,1,1,1v1.57a1,1,0,0,1-1,1H38.56V50.74H42a1,1,0,0,0,1-1c.49-10.28,8.62-11.57,8.62-23.09A14.89,14.89,0,0,0,35.82,11.82Z"/><path class="cls-1" d="M36.79,73.57A36.79,36.79,0,1,1,73.57,36.79,36.83,36.83,0,0,1,36.79,73.57Zm0-70A33.21,33.21,0,1,0,70,36.79,33.25,33.25,0,0,0,36.79,3.57Z"/></g></g></svg>