<svg xmlns="http://www.w3.org/2000/svg" viewBox="0 0 461.66 439.39"><defs><style>.cls-1{fill:#444;}.cls-2{fill:#7f7054;}.cls-3{fill:#d3aca9;}.cls-4{fill:#188db5;}.cls-5{fill:#ddbab6;}.cls-6{fill:#fff;}.cls-7{fill:#20a9ce;}.cls-8{fill:#f2f2f2;}.cls-9{fill:none;stroke:#444;stroke-linejoin:round;stroke-width:3px;}.cls-10{fill:#e2e2e2;}.cls-11{fill:#222;}.cls-12{fill:#d84848;}.cls-13{fill:#d9d9d9;}</style></defs><title>bonnes-pratiques-2</title><g id="Calque_2" data-name="Calque 2"><g id="Calque_1-2" data-name="Calque 1"><path class="cls-1" d="M230.45,165.19a11.07,11.07,0,0,1,10.49,7.56c7.51,2,12.85,6.24,15.3,10.82,2.18,4.09-.06,16.59-2,25.17.74.1,1.63.58,2.12,2.23.71,2.39-2.1,7.48-4.22,8.61-2.33,9.65-5.34,12.86-5.34,12.86a52.77,52.77,0,0,0,1.87-9.66,36,36,0,0,1-5.08,6.37,33.57,33.57,0,0,0-.94,5.48h0c-.22,2.87.09,5.7,1.58,7.55a16.08,16.08,0,0,0,5.31,4.6,4.93,4.93,0,0,1,1.2-.11,14.62,14.62,0,0,1,4.77.94c4,1.39,9.19,5.89,17.26,9.33s8.07,13.49,8.07,13.49h-100s0-10.05,8.07-13.49,13.29-7.94,17.26-9.33a14.63,14.63,0,0,1,4.77-.94,4.94,4.94,0,0,1,1.2.11,16.08,16.08,0,0,0,5.31-4.6c1.49-1.85,1.8-4.68,1.58-7.55a33.57,33.57,0,0,0-.94-5.48,36,36,0,0,1-5.32-6.74,74.31,74.31,0,0,0,2.11,14s-3.28-5.17-5.65-17.05c-2.07-1.42-4.59-6.14-3.92-8.42.49-1.64,1.38-2.13,2.12-2.23-1.93-8.59-4.18-21.09-2-25.17,2.35-4.4,7.37-8.46,14.43-10.58a11.07,11.07,0,0,1,10.57-7.79m0-3a14,14,0,0,0-12.87,8.39c-6.73,2.34-12.06,6.5-14.77,11.57-.74,1.39-2.95,5.52,1.25,25.12a6.64,6.64,0,0,0-1.6,2.84c-1,3.44,1.52,8.43,4.06,10.89,2.43,11.57,5.7,16.83,5.85,17a3,3,0,0,0,3.29,1.3,3.42,3.42,0,0,1-.52,1,15.29,15.29,0,0,1-3.57,3.39l-.6,0a17.69,17.69,0,0,0-5.76,1.11,38.54,38.54,0,0,0-6.91,3.7,76.77,76.77,0,0,1-10.54,5.7c-9.78,4.17-9.89,15.76-9.89,16.25a3,3,0,0,0,3,3h100a3,3,0,0,0,3-3c0-.49-.11-12.08-9.89-16.25a76.77,76.77,0,0,1-10.54-5.7,38.54,38.54,0,0,0-6.91-3.7,17.68,17.68,0,0,0-5.76-1.11l-.6,0a15.29,15.29,0,0,1-3.57-3.39c-.75-.93-1.08-2.73-.94-5.1a3,3,0,0,0,3.37-.71c.35-.37,3.39-3.82,5.8-13.15,2.73-2.38,5.52-7.62,4.45-11.24a6.64,6.64,0,0,0-1.6-2.84c4.2-19.6,2-23.73,1.25-25.12-2.84-5.32-8.52-9.6-15.71-11.87a14,14,0,0,0-12.73-8.09Z"/><circle class="cls-2" cx="230.45" cy="176.26" r="11.07"/><path class="cls-2" d="M230.85,217.31h21.29s7.55-27.32,4.11-33.75-12.56-12.12-25.4-12.12Z"/><path class="cls-2" d="M230.85,217.31H209.56S202,190,205.45,183.56s12.56-12.12,25.4-12.12Z"/><path class="cls-3" d="M208.64,208.87s-2.38-1-3.31,2.09,4.11,10.77,5.82,8.39S208.64,208.87,208.64,208.87Z"/><path class="cls-3" d="M253.06,208.87s2.38-1,3.31,2.09-4.11,10.77-5.82,8.39S253.06,208.87,253.06,208.87Z"/><path class="cls-4" d="M230.85,245.82l18.7,1s2-.56,6,.83,9.19,5.89,17.26,9.33,8.07,13.49,8.07,13.49h-50Z"/><path class="cls-4" d="M230.85,245.82l-18.7,1s-2-.56-6,.83-9.19,5.89-17.26,9.33-8.07,13.49-8.07,13.49h50Z"/><path class="cls-5" d="M244.24,242.18c-4.17-5.16.89-18,.89-18l-14.29,1.39-14.29-1.39s5.06,12.8.89,18-7.14,5.16-7.14,5.16,7.74,11.21,20.54,11.21,20.54-11.21,20.54-11.21S248.41,247.34,244.24,242.18Z"/><path class="cls-3" d="M230.85,225.61l-14.29-1.39A41.49,41.49,0,0,1,219,234.63c4,4.15,8.37,6.76,11.81,6.76s7.84-2.61,11.81-6.76a41.49,41.49,0,0,1,2.47-10.41Z"/><path class="cls-5" d="M253.07,208.87c0,13.68-13.89,27.16-22.22,27.16s-22.22-13.47-22.22-27.16-2-28.74,22.22-28.74S253.07,195.19,253.07,208.87Z"/><path class="cls-6" d="M382.23,437.89a78,78,0,0,1-65.58-120.15L305.9,285.49a1.5,1.5,0,0,1,1.9-1.9L340,294.34a78,78,0,1,1,42.19,143.55Z"/><path class="cls-1" d="M382.24,283.46A76.46,76.46,0,1,1,318.3,318l-11-32.94,32.94,11a76.31,76.31,0,0,1,42-12.53m0-3a79.14,79.14,0,0,0-42.39,12.23l-31.57-10.52a3,3,0,0,0-3.79,3.79L315,317.54a79.49,79.49,0,1,0,67.24-37.08Z"/><circle class="cls-6" cx="382.23" cy="359.93" r="76.47" transform="translate(-142.55 375.7) rotate(-45)"/><path class="cls-1" d="M346.72,371.59v19.49H327.23V371.59h19.49m0-3H327.23a3,3,0,0,0-3,3v19.49a3,3,0,0,0,3,3h19.49a3,3,0,0,0,3-3V371.59a3,3,0,0,0-3-3Z"/><path class="cls-1" d="M392,371.59v19.49H372.49V371.59H392m0-3H372.49a3,3,0,0,0-3,3v19.49a3,3,0,0,0,3,3H392a3,3,0,0,0,3-3V371.59a3,3,0,0,0-3-3Z"/><path class="cls-1" d="M392,328.78v19.49H372.49V328.78H392m0-3H372.49a3,3,0,0,0-3,3v19.49a3,3,0,0,0,3,3H392a3,3,0,0,0,3-3V328.78a3,3,0,0,0-3-3Z"/><path class="cls-1" d="M437.23,371.59v19.49H417.74V371.59h19.49m0-3H417.74a3,3,0,0,0-3,3v19.49a3,3,0,0,0,3,3h19.49a3,3,0,0,0,3-3V371.59a3,3,0,0,0-3-3Z"/><rect class="cls-4" x="327.23" y="371.59" width="19.49" height="19.49"/><rect class="cls-7" x="372.49" y="371.59" width="19.49" height="19.49"/><rect class="cls-8" x="372.49" y="328.78" width="19.49" height="19.49"/><rect class="cls-4" x="417.74" y="371.59" width="19.49" height="19.49"/><line class="cls-9" x1="382.23" y1="348.27" x2="382.23" y2="371.59"/><path class="cls-9" d="M427.49,371.59v-8.74a2.92,2.92,0,0,0-2.92-2.92H339.88a2.92,2.92,0,0,0-2.92,2.92v8.74"/><path class="cls-6" d="M79.47,437.89a78,78,0,1,1,42.19-143.55l32.25-10.75a1.5,1.5,0,0,1,1.9,1.9L145,317.74A78,78,0,0,1,79.47,437.89Z"/><path class="cls-1" d="M79.46,283.46a76.33,76.33,0,0,1,42,12.53l32.94-11L143.4,318a76.48,76.48,0,1,1-63.94-34.49m0-3a79.44,79.44,0,1,0,67.24,37.08L157.22,286a3,3,0,0,0-3.79-3.79l-31.57,10.52a79.14,79.14,0,0,0-42.39-12.23Z"/><circle class="cls-6" cx="79.47" cy="359.93" r="76.47" transform="translate(-231.23 161.61) rotate(-45)"/><path class="cls-6" d="M38,353.42a1.5,1.5,0,0,1-1.5-1.5v-6h-4a3.5,3.5,0,0,1-3.5-3.5v-31a3.5,3.5,0,0,1,3.5-3.5h46a3.5,3.5,0,0,1,3.5,3.5v31a3.5,3.5,0,0,1-3.5,3.5H46.09L39,353A1.5,1.5,0,0,1,38,353.42Z"/><path class="cls-1" d="M78.47,309.41a2,2,0,0,1,2,2v31a2,2,0,0,1-2,2h-33l-7.5,7.5v-7.5h-5.5a2,2,0,0,1-2-2v-31a2,2,0,0,1,2-2h46m0-3h-46a5,5,0,0,0-5,5v31a5,5,0,0,0,5,5H35v4.5A3,3,0,0,0,40.09,354l6.62-6.62H78.47a5,5,0,0,0,5-5v-31a5,5,0,0,0-5-5Z"/><rect class="cls-10" x="35.47" y="313.5" width="40" height="2.5"/><rect class="cls-10" x="35.47" y="321" width="30" height="2.5"/><rect class="cls-10" x="35.47" y="328.5" width="35" height="2.5"/><rect class="cls-10" x="35.47" y="336" width="20" height="2.5"/><path class="cls-6" d="M121,411.94a1.5,1.5,0,0,1-1.06-.44l-7.06-7.06H80.46a3.5,3.5,0,0,1-3.5-3.5v-31a3.5,3.5,0,0,1,3.5-3.5h46a3.5,3.5,0,0,1,3.5,3.5v31a3.5,3.5,0,0,1-3.5,3.5h-4v6a1.5,1.5,0,0,1-1.5,1.5Z"/><path class="cls-1" d="M126.46,367.94a2,2,0,0,1,2,2v31a2,2,0,0,1-2,2H121v7.5l-7.5-7.5h-33a2,2,0,0,1-2-2v-31a2,2,0,0,1,2-2h46m0-3h-46a5,5,0,0,0-5,5v31a5,5,0,0,0,5,5h31.76l6.62,6.62a3,3,0,0,0,5.12-2.12v-4.5h2.5a5,5,0,0,0,5-5v-31a5,5,0,0,0-5-5Z"/><rect class="cls-10" x="83.46" y="372.02" width="40" height="2.5"/><rect class="cls-10" x="83.46" y="379.52" width="30" height="2.5"/><rect class="cls-10" x="83.46" y="387.02" width="35" height="2.5"/><rect class="cls-10" x="83.46" y="394.52" width="20" height="2.5"/><path class="cls-6" d="M79.46,157.43A78,78,0,0,1,24.34,24.34,78,78,0,0,1,145,121.65L155.8,153.9a1.5,1.5,0,0,1-1.9,1.9L121.65,145A77.64,77.64,0,0,1,79.46,157.43Z"/><path class="cls-1" d="M79.47,3A76.48,76.48,0,0,1,143.4,121.44l11,32.94-32.94-11A76.47,76.47,0,1,1,79.47,3m0-3A79.47,79.47,0,0,0,23.28,135.66a79.51,79.51,0,0,0,98.58,11l31.57,10.52a3,3,0,0,0,3.79-3.79L146.7,121.86A79.48,79.48,0,0,0,79.47,0Z"/><circle class="cls-6" cx="79.47" cy="79.47" r="76.47" transform="translate(-32.92 79.47) rotate(-45)"/><path class="cls-1" d="M98.8,36.88l20.66,68.71-2.89.51-1.82,3.18.89,3-55.52,9.82L39.47,53.35l3.82-6.66,5.92-1-.1-.4,8.32-1.47.1.4,41.28-7.3m0-3a3,3,0,0,0-.52,0L58.47,41a3,3,0,0,0-1.57-.14l-8.32,1.47a3,3,0,0,0-1.43.67l-4.39.78a3,3,0,0,0-2.08,1.46l-3.82,6.66a3,3,0,0,0-.27,2.36l20.66,68.71a3,3,0,0,0,3.4,2.09l55.52-9.82a3,3,0,0,0,2.35-3.82l-.52-1.73.48-.84,1.51-.27a3,3,0,0,0,2.35-3.82L101.68,36a3,3,0,0,0-2.87-2.14Z"/><polygon class="cls-7" points="94.98 43.53 115.64 112.24 60.13 122.06 39.47 53.35 94.98 43.53"/><polygon class="cls-8" points="117.47 104.53 113.57 111.33 59.9 120.83 63.8 114.02 117.47 104.53"/><polygon class="cls-11" points="63.8 114.02 59.9 120.83 39.92 54.4 43.83 47.6 63.8 114.02"/><polygon class="cls-4" points="63.95 115.4 60.13 122.06 39.47 53.35 43.29 46.69 63.95 115.4"/><polygon class="cls-7" points="98.8 36.88 119.47 105.58 63.95 115.4 43.29 46.69 98.8 36.88"/><polygon class="cls-12" points="57.42 43.77 62.67 64.01 57.3 60.08 54.35 65.48 49.11 45.24 57.42 43.77"/><path class="cls-13" d="M65.68,83.24l1.29.54,0,.13-.88.7-.14,0-.82-.34a1.48,1.48,0,0,0-1.78.17l-.17.14,1.23,1.23V86l-.83.66h-.14l-3.52-3.53v-.12l1.7-1.35a1.87,1.87,0,0,1,2.65-.09A1.22,1.22,0,0,1,64.5,83c0,.1,0,.12.09.1A2.06,2.06,0,0,1,65.68,83.24Zm-2.54.09c.45-.36.52-.67.21-1a.71.71,0,0,0-1,0l-.79.62.9.9.66-.53"/><path class="cls-13" d="M76.93,69.35a2.71,2.71,0,0,1,3.81.35c1.15,1.16,1.15,2.48,0,3.43a2.73,2.73,0,0,1-3.82-.36C75.71,71.61,75.73,70.31,76.93,69.35Zm3,3c.59-.47.5-1.19-.2-1.9s-1.48-.86-2.07-.38-.53,1.16.19,1.88,1.5.87,2.09.4"/><path class="cls-13" d="M72.85,72.59A4.49,4.49,0,0,1,74,72l.52-.2.14,0,.32.78,0,.12-.45.19a3.52,3.52,0,0,0-.83.47c-.34.27-.45.58-.27.76s.46.12.9-.05l.68-.24c1.11-.41,1.68-.38,2.24.19s.52,1.54-.52,2.36a5.09,5.09,0,0,1-1.37.78l-.5.21-.14,0-.33-.76.06-.12.54-.24a4.15,4.15,0,0,0,1-.57c.33-.26.54-.55.27-.83s-.48-.1-.93.05l-.67.24c-1.1.4-1.66.38-2.23-.18S71.89,73.35,72.85,72.59Z"/><path class="cls-13" d="M69.15,75.53a4.39,4.39,0,0,1,1.1-.64l.52-.2.14,0,.33.77-.06.13-.45.19a3.41,3.41,0,0,0-.83.47c-.34.27-.45.57-.26.76s.45.12.9-.05l.68-.24c1.11-.4,1.68-.38,2.24.19s.52,1.54-.52,2.36a5.09,5.09,0,0,1-1.37.78l-.51.22-.14,0-.32-.77.06-.12.53-.23a4.25,4.25,0,0,0,1-.58c.33-.26.54-.55.27-.83s-.48-.1-.93.05l-.68.24c-1.1.4-1.66.38-2.22-.19S68.19,76.29,69.15,75.53Z"/><polygon class="cls-13" points="67.02 77.33 67.16 77.35 67.56 78.11 67.54 78.23 65.73 79.67 66.41 80.34 67.9 79.16 68.05 79.17 68.64 79.76 68.63 79.89 67.14 81.08 67.93 81.87 69.92 80.29 70.06 80.29 70.65 80.89 70.64 81.01 67.75 83.31 67.6 83.31 64.08 79.78 64.1 79.65 67.02 77.33"/><path class="cls-13" d="M89.51,64.31l1.29.54,0,.13-.88.7-.14,0L89,65.35a1.48,1.48,0,0,0-1.78.17l-.17.14,1.23,1.23V67l-.83.66h-.14l-3.52-3.53V64l1.7-1.35a1.87,1.87,0,0,1,2.65-.09,1.22,1.22,0,0,1,.2,1.49c0,.1,0,.12.09.1A2.06,2.06,0,0,1,89.51,64.31ZM87,64.4c.45-.36.52-.67.21-1a.71.71,0,0,0-1,0l-.79.62.9.9L87,64.4"/><path class="cls-13" d="M82.89,64.72H83l2.07,2.08A1.78,1.78,0,0,1,85,69.75a2.3,2.3,0,0,1-3.29-.21l-2.07-2.08,0-.13.83-.66h.14l2.07,2.08a1.11,1.11,0,0,0,1.57.24c.47-.37.45-.89-.08-1.42L82.06,65.5v-.12Z"/><polygon class="cls-13" points="94.59 55.43 94.73 55.45 95.13 56.2 95.1 56.33 93.3 57.76 93.98 58.44 95.46 57.26 95.61 57.27 96.2 57.86 96.19 57.99 94.71 59.17 95.5 59.96 97.48 58.39 97.62 58.39 98.22 58.98 98.2 59.12 95.31 61.41 95.17 61.4 91.65 57.88 91.66 57.75 94.59 55.43"/><path class="cls-13" d="M89.55,59.32a3.94,3.94,0,0,1,1-.61l.36-.15.13,0,.37.76-.06.12-.36.15a2.55,2.55,0,0,0-.7.43c-.61.48-.56,1.2.15,1.91s1.52.86,2.13.37a2.29,2.29,0,0,0,.54-.58l.22-.3.14,0,.81.37,0,.12-.21.31a3.38,3.38,0,0,1-.78.85,2.74,2.74,0,0,1-3.86-.33A2.11,2.11,0,0,1,89.55,59.32Z"/><path class="cls-13" d="M96.72,53.63a4.39,4.39,0,0,1,1.1-.64l.52-.2.14,0,.32.78,0,.12-.45.19a3.52,3.52,0,0,0-.83.47c-.34.27-.45.57-.26.76s.45.12.9-.05l.67-.24c1.11-.41,1.68-.38,2.24.19s.52,1.53-.51,2.35a5,5,0,0,1-1.37.78l-.51.22-.14,0-.33-.76.06-.12.53-.23a4.16,4.16,0,0,0,1-.58c.33-.26.53-.55.26-.82s-.48-.1-.93.05l-.67.24c-1.1.4-1.66.38-2.22-.19S95.76,54.39,96.72,53.63Z"/><path class="cls-2" d="M230.85,183.19c8.08,0,15.33-3.62,17.58,14.75s-.5,31.13-1.62,34.5c0,0,7.88-8.37,8-38.87l-4.28-14.25-19.68-3.12Z"/><path class="cls-2" d="M230.85,183.19c-8.08,0-15.33-3.62-17.58,14.75s.5,35.13,1.63,38.5c0,0-7.87-12.37-8-42.87l4.28-14.25,19.68-3.12Z"/></g></g></svg>