<svg xmlns="http://www.w3.org/2000/svg" viewBox="0 0 461.7 439.39"><defs><style>.cls-1{fill:#444;}.cls-2{fill:#7f7054;}.cls-3{fill:#d3aca9;}.cls-4{fill:#188db5;}.cls-5{fill:#ddbab6;}.cls-6{fill:#fff;}.cls-7{fill:#20a9ce;}.cls-8{fill:none;stroke:#444;stroke-linecap:round;stroke-linejoin:round;stroke-width:3px;}</style></defs><title>bonnes-pratiques-3</title><g id="Calque_2" data-name="Calque 2"><g id="Calque_1-2" data-name="Calque 1"><path class="cls-1" d="M230.45,165.19a11.07,11.07,0,0,1,10.49,7.56c7.51,2,12.85,6.24,15.3,10.82,2.18,4.09-.06,16.59-2,25.17.74.1,1.63.58,2.12,2.23.71,2.39-2.1,7.48-4.22,8.61-2.33,9.65-5.34,12.86-5.34,12.86a52.78,52.78,0,0,0,1.87-9.66,36,36,0,0,1-5.08,6.37,33.57,33.57,0,0,0-.94,5.48c-.22,2.87.09,5.7,1.58,7.55a16.08,16.08,0,0,0,5.31,4.6,4.93,4.93,0,0,1,1.2-.11,14.62,14.62,0,0,1,4.77.94c4,1.39,9.19,5.89,17.26,9.33s8.07,13.49,8.07,13.49h-100s0-10.05,8.07-13.49,13.29-7.94,17.26-9.33a14.63,14.63,0,0,1,4.77-.94,4.94,4.94,0,0,1,1.2.11,16.08,16.08,0,0,0,5.31-4.6c1.49-1.85,1.8-4.68,1.58-7.55a33.59,33.59,0,0,0-.94-5.48,35.94,35.94,0,0,1-5.32-6.74,74.31,74.31,0,0,0,2.11,14s-3.28-5.17-5.65-17.05c-2.07-1.42-4.59-6.14-3.92-8.42.49-1.64,1.38-2.13,2.12-2.23-1.93-8.59-4.18-21.09-2-25.17,2.35-4.4,7.37-8.46,14.43-10.58a11.07,11.07,0,0,1,10.57-7.79m0-3a14,14,0,0,0-12.87,8.39c-6.73,2.34-12.06,6.5-14.77,11.57-.74,1.39-2.95,5.52,1.25,25.12a6.64,6.64,0,0,0-1.6,2.84c-1,3.44,1.52,8.43,4.06,10.89,2.43,11.57,5.7,16.83,5.85,17a3,3,0,0,0,3.29,1.3,3.42,3.42,0,0,1-.52,1,15.29,15.29,0,0,1-3.57,3.39l-.6,0a17.69,17.69,0,0,0-5.76,1.11,38.53,38.53,0,0,0-6.91,3.7,76.76,76.76,0,0,1-10.54,5.7c-9.78,4.17-9.89,15.76-9.89,16.25a3,3,0,0,0,3,3h100a3,3,0,0,0,3-3c0-.49-.11-12.08-9.89-16.25a76.75,76.75,0,0,1-10.54-5.7,38.54,38.54,0,0,0-6.91-3.7,17.68,17.68,0,0,0-5.76-1.11l-.6,0a15.29,15.29,0,0,1-3.57-3.39c-.75-.93-1.08-2.73-.94-5.1a3,3,0,0,0,3.37-.71c.35-.37,3.39-3.82,5.8-13.15,2.73-2.38,5.52-7.62,4.45-11.24a6.64,6.64,0,0,0-1.6-2.84c4.2-19.6,2-23.73,1.25-25.12-2.84-5.32-8.52-9.6-15.71-11.87a14,14,0,0,0-12.73-8.09Z"/><circle class="cls-2" cx="230.45" cy="176.26" r="11.07"/><path class="cls-2" d="M230.85,217.31h21.29s7.55-27.32,4.11-33.75-12.56-12.12-25.4-12.12Z"/><path class="cls-2" d="M230.85,217.31H209.56S202,190,205.45,183.56s12.56-12.12,25.4-12.12Z"/><path class="cls-3" d="M208.64,208.87s-2.38-1-3.31,2.09,4.11,10.77,5.82,8.39S208.64,208.87,208.64,208.87Z"/><path class="cls-3" d="M253.06,208.87s2.38-1,3.31,2.09-4.11,10.77-5.82,8.39S253.06,208.87,253.06,208.87Z"/><path class="cls-4" d="M230.85,245.82l18.7,1s2-.56,6,.83,9.19,5.89,17.26,9.33,8.07,13.49,8.07,13.49h-50Z"/><path class="cls-4" d="M230.85,245.82l-18.7,1s-2-.56-6,.83-9.19,5.89-17.26,9.33-8.07,13.49-8.07,13.49h50Z"/><path class="cls-5" d="M244.24,242.18c-4.17-5.16.89-18,.89-18l-14.29,1.39-14.29-1.39s5.06,12.8.89,18-7.14,5.16-7.14,5.16,7.74,11.21,20.54,11.21,20.54-11.21,20.54-11.21S248.41,247.34,244.24,242.18Z"/><path class="cls-3" d="M230.85,225.61l-14.29-1.39A41.49,41.49,0,0,1,219,234.63c4,4.15,8.37,6.76,11.81,6.76s7.84-2.61,11.81-6.76a41.49,41.49,0,0,1,2.47-10.41Z"/><path class="cls-5" d="M253.07,208.87c0,13.68-13.89,27.16-22.22,27.16s-22.22-13.47-22.22-27.16-2-28.74,22.22-28.74S253.07,195.19,253.07,208.87Z"/><path class="cls-6" d="M382.23,437.89a78,78,0,0,1-65.58-120.15L305.9,285.49a1.5,1.5,0,0,1,1.9-1.9L340,294.34a78,78,0,1,1,42.19,143.55Z"/><path class="cls-1" d="M382.24,283.46A76.46,76.46,0,1,1,318.3,318l-11-32.94,32.94,11a76.31,76.31,0,0,1,42-12.53m0-3a79.14,79.14,0,0,0-42.39,12.23l-31.57-10.52a3,3,0,0,0-3.79,3.79L315,317.54a79.49,79.49,0,1,0,67.24-37.08Z"/><circle class="cls-6" cx="382.23" cy="359.93" r="76.47" transform="translate(-142.55 375.7) rotate(-45)"/><path class="cls-7" d="M417.3,355.55a2.5,2.5,0,0,1-2.5-2.5v-8.9h-8.9a2.5,2.5,0,0,1,0-5h11.4a2.5,2.5,0,0,1,2.5,2.5v11.4A2.5,2.5,0,0,1,417.3,355.55Z"/><path class="cls-1" d="M417.3,339.16a2.5,2.5,0,0,1,2.5,2.5v11.4a2.5,2.5,0,0,1-5,0v-5l-24.36,24.36a2.5,2.5,0,0,1-3.54,0L373,358.5l-29,29,0,0c-.42,0,0-7.1,0-7.1l27.27-27.27a2.5,2.5,0,0,1,3.54,0l13.86,13.86,22.91-22.91H405.9a2.5,2.5,0,0,1,0-5h11.4m0-3H405.9A5.5,5.5,0,0,0,404.51,347l-15.84,15.84-11.74-11.74a5.5,5.5,0,0,0-7.78,0l-27.27,27.27a3,3,0,0,0-.87,1.93c-.52,8-.13,8.41.73,9.32a3.09,3.09,0,0,0,2.22,1,3,3,0,0,0,2.16-.9L373,362.74l11.74,11.74a5.5,5.5,0,0,0,7.78,0l19.56-19.56a5.5,5.5,0,0,0,10.67-1.87v-11.4a5.51,5.51,0,0,0-5.5-5.5Z"/><path class="cls-7" d="M342.23,388.28v-6l29-29a2.5,2.5,0,0,1,3.54,0l13.86,13.86,26.86-26.86a2.5,2.5,0,0,1,3.54,3.54l-28.62,28.63a2.5,2.5,0,0,1-3.54,0L373,358.5l-29,29A4.39,4.39,0,0,1,342.23,388.28Z"/><polyline class="cls-8" points="422.23 389.93 342.23 389.93 342.23 329.93"/><path class="cls-6" d="M79.46,157.43A78,78,0,0,1,24.34,24.34a78,78,0,0,1,120.71,97.32L155.8,153.9a1.5,1.5,0,0,1-1.9,1.9L121.65,145A77.64,77.64,0,0,1,79.46,157.43Z"/><path class="cls-1" d="M79.47,3A76.48,76.48,0,0,1,143.4,121.44l11,32.94-32.94-11A76.47,76.47,0,1,1,79.47,3m0-3A79.47,79.47,0,0,0,23.28,135.66a79.51,79.51,0,0,0,98.58,11l31.57,10.52a3,3,0,0,0,3.79-3.79L146.7,121.86A79.48,79.48,0,0,0,79.47,0Z"/><circle class="cls-6" cx="79.47" cy="79.47" r="76.47" transform="translate(-32.92 79.47) rotate(-45)"/><path class="cls-1" d="M69,84.76c6.75,0,5.47,9.64,3.78,14.32a21.31,21.31,0,0,0-1.35,8L58,110.18c-.22-1.1-.4-2.22-.52-3.35-1-9.74-.51-19.14,9.06-21.7A9.88,9.88,0,0,1,69,84.76m0-3a12.92,12.92,0,0,0-3.32.47c-13.51,3.62-11.94,18.54-11.26,24.91.13,1.19.31,2.41.56,3.63a3,3,0,0,0,3.61,2.32L72.15,110a3,3,0,0,0,2.33-3,18.33,18.33,0,0,1,1.17-6.88c1.32-3.64,2.74-10.93-.26-15.2A7.37,7.37,0,0,0,69,81.76Z"/><path class="cls-1" d="M71.68,109.44a24.87,24.87,0,0,0,.86,3.77c1.37,4.44.37,10.4-4.25,11.49a3.25,3.25,0,0,1-.75.09c-3.47,0-7.16-5.46-9-12.31l13.17-3m0-3a3,3,0,0,0-.67.08l-13.17,3a3,3,0,0,0-2.22,3.71c1.83,6.7,6.05,14.51,11.93,14.51a6.27,6.27,0,0,0,1.44-.17,8.57,8.57,0,0,0,5.56-4.22,14.46,14.46,0,0,0,.86-11.07,21.71,21.71,0,0,1-.76-3.31,3,3,0,0,0-3-2.57Z"/><path class="cls-7" d="M58,110.18l13.51-3.11a21.31,21.31,0,0,1,1.35-8c1.88-5.19,3.25-16.51-6.32-13.95s-10.08,12-9.06,21.7C57.56,108,57.74,109.08,58,110.18Z"/><path class="cls-7" d="M71.68,109.44l-13.17,3c2,7.34,6.1,13.09,9.78,12.22,4.61-1.09,5.61-7,4.25-11.49A24.87,24.87,0,0,1,71.68,109.44Z"/><path class="cls-1" d="M89.89,69.42a9.88,9.88,0,0,1,2.54.37c9.57,2.56,10.08,12,9.06,21.7-.12,1.13-.3,2.25-.52,3.35L87.46,91.72a21.31,21.31,0,0,0-1.35-8c-1.69-4.68-3-14.32,3.78-14.32m0-3h0a7.37,7.37,0,0,0-6.35,3.14c-3,4.27-1.57,11.57-.26,15.2a18.34,18.34,0,0,1,1.17,6.88,3,3,0,0,0,2.33,3l13.51,3.11a3,3,0,0,0,3.61-2.32c.25-1.22.44-2.45.56-3.63.67-6.37,2.24-21.3-11.26-24.91a12.92,12.92,0,0,0-3.32-.47Z"/><path class="cls-1" d="M87.25,94.09l13.17,3c-1.87,6.84-5.56,12.31-9,12.31a3.25,3.25,0,0,1-.75-.09c-4.61-1.09-5.61-7-4.25-11.49a24.87,24.87,0,0,0,.86-3.77m0-3a3,3,0,0,0-3,2.57A21.71,21.71,0,0,1,83.53,97a14.46,14.46,0,0,0,.86,11.07A8.57,8.57,0,0,0,90,112.27a6.27,6.27,0,0,0,1.44.17c5.88,0,10.1-7.82,11.93-14.51a3,3,0,0,0-2.22-3.71l-13.17-3a3,3,0,0,0-.67-.08Z"/><path class="cls-7" d="M101,94.84,87.46,91.72a21.31,21.31,0,0,0-1.35-8c-1.88-5.19-3.25-16.51,6.32-13.95s10.08,12,9.06,21.7C101.37,92.62,101.2,93.74,101,94.84Z"/><path class="cls-7" d="M87.25,94.09l13.17,3c-2,7.34-6.1,13.09-9.78,12.22-4.61-1.09-5.61-7-4.25-11.49A24.87,24.87,0,0,0,87.25,94.09Z"/><path class="cls-6" d="M74.34,56.09a1.5,1.5,0,0,1-1.5-1.5V45.91H70.75a1.5,1.5,0,0,1-1.14-2.47l8.72-10.25a1.5,1.5,0,0,1,1.14-.53h0a1.5,1.5,0,0,1,1.14.53l8.71,10.25a1.5,1.5,0,0,1-1.14,2.47H86.09v8.68a1.5,1.5,0,0,1-1.5,1.5Z"/><path class="cls-1" d="M79.47,34.16l8.72,10.25H84.59V54.59H74.34V44.41H70.75l8.72-10.25m0-3a3,3,0,0,0-2.29,1.06L68.47,42.47a3,3,0,0,0,2.29,4.94h.59v7.18a3,3,0,0,0,3,3H84.59a3,3,0,0,0,3-3V47.41h.59a3,3,0,0,0,2.29-4.94L81.75,32.21a3,3,0,0,0-2.29-1.06Z"/><path class="cls-6" d="M111.27,68.2a1.5,1.5,0,0,1-.75-.2l-8.88-5.13a1.5,1.5,0,0,1-.55-2l4.34-7.52-1.81-1a1.5,1.5,0,0,1,.25-2.71L116.54,45a1.52,1.52,0,0,1,.5-.09,1.5,1.5,0,0,1,1.48,1.23l2.42,13.24A1.5,1.5,0,0,1,118.72,61l-1.81-1-4.34,7.52a1.5,1.5,0,0,1-1.3.75Z"/><path class="cls-1" d="M117,46.44l2.42,13.24-3.11-1.79-5.09,8.82-8.88-5.13,5.09-8.82L104.37,51,117,46.44m0-3a3,3,0,0,0-1,.17l-12.67,4.52a3,3,0,0,0-.49,5.42l.51.29-3.59,6.22a3,3,0,0,0,1.1,4.1l8.88,5.13a3,3,0,0,0,4.1-1.1L117.46,62l.51.29a3,3,0,0,0,4.45-3.14L120,45.9a3,3,0,0,0-3-2.46Z"/><path class="cls-6" d="M47.66,68.2a1.5,1.5,0,0,1-1.3-.75L42,59.93l-1.81,1A1.5,1.5,0,0,1,38,59.41l2.42-13.24a1.5,1.5,0,0,1,1.48-1.23,1.52,1.52,0,0,1,.5.09l12.67,4.52a1.5,1.5,0,0,1,.25,2.71l-1.81,1,4.34,7.52a1.5,1.5,0,0,1-.55,2L48.41,68A1.5,1.5,0,0,1,47.66,68.2Z"/><path class="cls-1" d="M41.89,46.44,54.56,51l-3.11,1.79,5.09,8.82L47.66,66.7l-5.09-8.82-3.11,1.79,2.42-13.24m0-3a3,3,0,0,0-3,2.46L36.52,59.14A3,3,0,0,0,41,62.27l.51-.29,3.59,6.22a3,3,0,0,0,4.1,1.1L58,64.17a3,3,0,0,0,1.1-4.1l-3.59-6.22.51-.29a3,3,0,0,0-.49-5.42L42.9,43.61a3,3,0,0,0-1-.17Z"/><path class="cls-2" d="M230.85,183.19c8.08,0,15.33-3.62,17.58,14.75s-.5,31.13-1.62,34.5c0,0,7.88-8.37,8-38.87l-4.28-14.25-19.68-3.12Z"/><path class="cls-2" d="M230.85,183.19c-8.08,0-15.33-3.62-17.58,14.75s.5,35.13,1.63,38.5c0,0-7.87-12.37-8-42.87l4.28-14.25,19.68-3.12Z"/></g></g></svg>