<svg xmlns="http://www.w3.org/2000/svg" viewBox="0 0 461.66 439.39"><defs><style>.cls-1{fill:#444;}.cls-2{fill:#7f7054;}.cls-3{fill:#d3aca9;}.cls-4{fill:#188db5;}.cls-5{fill:#ddbab6;}.cls-6{fill:#fff;}.cls-7{fill:#177b96;}.cls-8{fill:#e2e2e2;}.cls-9{fill:#d3d3d3;}.cls-10{fill:#20a9ce;}.cls-11{fill:#e24b4b;}.cls-12{fill:#ce4646;}</style></defs><title>bonnes-pratiques-1</title><g id="Calque_2" data-name="Calque 2"><g id="Calque_1-2" data-name="Calque 1"><path class="cls-1" d="M230.45,165.19a11.07,11.07,0,0,1,10.49,7.56c7.51,2,12.85,6.24,15.3,10.82,2.18,4.09-.06,16.59-2,25.17.74.1,1.63.58,2.12,2.23.71,2.39-2.1,7.48-4.22,8.61-2.33,9.65-5.34,12.86-5.34,12.86a52.76,52.76,0,0,0,1.87-9.66,36,36,0,0,1-5.08,6.37,33.57,33.57,0,0,0-.94,5.48h0c-.22,2.87.09,5.7,1.58,7.55a16.08,16.08,0,0,0,5.31,4.6,4.93,4.93,0,0,1,1.2-.11,14.62,14.62,0,0,1,4.77.94c4,1.39,9.19,5.89,17.26,9.33s8.07,13.49,8.07,13.49h-100s0-10.05,8.07-13.49,13.29-7.94,17.26-9.33a14.62,14.62,0,0,1,4.77-.94,4.94,4.94,0,0,1,1.2.11,16.08,16.08,0,0,0,5.31-4.6c1.49-1.85,1.8-4.68,1.58-7.55a33.56,33.56,0,0,0-.94-5.48,36,36,0,0,1-5.32-6.74,74.31,74.31,0,0,0,2.11,14s-3.28-5.17-5.65-17.05c-2.07-1.42-4.59-6.14-3.92-8.42.49-1.64,1.38-2.13,2.12-2.23-1.93-8.59-4.18-21.09-2-25.17,2.35-4.4,7.37-8.46,14.43-10.58a11.07,11.07,0,0,1,10.57-7.79m0-3a14,14,0,0,0-12.87,8.39c-6.73,2.34-12.06,6.5-14.77,11.57-.74,1.39-2.95,5.52,1.25,25.12a6.64,6.64,0,0,0-1.6,2.84c-1,3.44,1.52,8.43,4.06,10.89,2.43,11.57,5.7,16.83,5.85,17a3,3,0,0,0,3.29,1.3,3.42,3.42,0,0,1-.52,1,15.29,15.29,0,0,1-3.57,3.39l-.6,0a17.68,17.68,0,0,0-5.76,1.11,38.54,38.54,0,0,0-6.91,3.7,76.75,76.75,0,0,1-10.54,5.7c-9.78,4.17-9.89,15.76-9.89,16.25a3,3,0,0,0,3,3h100a3,3,0,0,0,3-3c0-.49-.11-12.08-9.89-16.25a76.76,76.76,0,0,1-10.54-5.7,38.54,38.54,0,0,0-6.91-3.7,17.68,17.68,0,0,0-5.76-1.11l-.6,0a15.29,15.29,0,0,1-3.57-3.39c-.75-.93-1.08-2.73-.94-5.1a3,3,0,0,0,3.37-.71c.35-.37,3.39-3.82,5.8-13.15,2.73-2.38,5.52-7.62,4.45-11.24a6.64,6.64,0,0,0-1.6-2.84c4.2-19.6,2-23.73,1.25-25.12-2.84-5.32-8.52-9.6-15.71-11.87a14,14,0,0,0-12.73-8.09Z"/><circle class="cls-2" cx="230.45" cy="176.26" r="11.07"/><path class="cls-2" d="M230.85,217.31h21.29s7.55-27.32,4.11-33.75-12.56-12.12-25.4-12.12Z"/><path class="cls-2" d="M230.85,217.31H209.56S202,190,205.45,183.56s12.56-12.12,25.4-12.12Z"/><path class="cls-3" d="M208.64,208.87s-2.38-1-3.31,2.09,4.11,10.77,5.82,8.39S208.64,208.87,208.64,208.87Z"/><path class="cls-3" d="M253.06,208.87s2.38-1,3.31,2.09-4.11,10.77-5.82,8.39S253.06,208.87,253.06,208.87Z"/><path class="cls-4" d="M230.85,245.82l18.7,1s2-.56,6,.83,9.19,5.89,17.26,9.33,8.07,13.49,8.07,13.49h-50Z"/><path class="cls-4" d="M230.85,245.82l-18.7,1s-2-.56-6,.83-9.19,5.89-17.26,9.33-8.07,13.49-8.07,13.49h50Z"/><path class="cls-5" d="M244.24,242.18c-4.17-5.16.89-18,.89-18l-14.29,1.39-14.29-1.39s5.06,12.8.89,18-7.14,5.16-7.14,5.16,7.74,11.21,20.54,11.21,20.54-11.21,20.54-11.21S248.41,247.34,244.24,242.18Z"/><path class="cls-3" d="M230.85,225.61l-14.29-1.39A41.49,41.49,0,0,1,219,234.63c4,4.15,8.37,6.76,11.81,6.76s7.84-2.61,11.81-6.76a41.49,41.49,0,0,1,2.47-10.41Z"/><path class="cls-5" d="M253.07,208.87c0,13.68-13.89,27.16-22.22,27.16s-22.22-13.47-22.22-27.16-2-28.74,22.22-28.74S253.07,195.19,253.07,208.87Z"/><path class="cls-6" d="M382.23,437.89a78,78,0,0,1-65.58-120.15L305.9,285.49a1.5,1.5,0,0,1,1.9-1.9L340,294.34a78,78,0,1,1,42.19,143.55Z"/><path class="cls-1" d="M382.24,283.46A76.46,76.46,0,1,1,318.3,318l-11-32.94,32.94,11a76.31,76.31,0,0,1,42-12.53m0-3a79.13,79.13,0,0,0-42.39,12.23l-31.57-10.52a3,3,0,0,0-3.79,3.79L315,317.54a79.49,79.49,0,1,0,67.24-37.08Z"/><circle class="cls-6" cx="382.23" cy="359.93" r="76.47" transform="translate(-142.55 375.7) rotate(-45)"/><path class="cls-1" d="M414.33,319.93v24.79l30.19,12.12-17.3,43.09-43.09-17.3,2.3-5.72-3.16.89-50.73,14.31-12.6-44.69,32.48-9.16V319.93h61.9m-54.17,16.15,19.36-5.46,7.9,28h6.36l7.66-19.07,5.16,2.07V327.66H360.16v8.41m0,22.54H383.4l-6.55-23.22-14.65,4.13-2,.57v18.52m-24.95,28.72,52.13-14.7-.2-.7-.89-3.16-.68-2.42H352.43V342.28l-27.71,7.82,10.5,37.24m64.4-28.72h7V347.45l-2.15-.86-4.83,12m24.6,34.26,13.26-33-23.15-9.29v15.8H396.51l-5.33,13.27,33,13.26m-34.17-25,.63-1.57H389.6l.28,1,.17.59m24.29-51h-61.9a3,3,0,0,0-3,3V336l-30.3,8.55a3,3,0,0,0-2.07,3.7l12.6,44.69a3,3,0,0,0,3.7,2.07l48-13.54,0,.06a3,3,0,0,0,1.67,3.9l43.09,17.3A3,3,0,0,0,430,401L447.31,358a3,3,0,0,0-1.67-3.9l-28.31-11.36V319.93a3,3,0,0,0-3-3Zm-31.68,13.74h20.94v6.51l-1-.42a3,3,0,0,0-3.9,1.67l-6.9,17.19h-2.06l-7-25Zm-19.49,0h5.14l-5.14,1.45v-1.45Zm0,11.7,11.61-3.27,4.66,16.52H363.16V342.37Zm-34.75,9.8,21-5.93v20.11a3,3,0,0,0,3,3h30.88l.07.23.27,1-46.36,13.07-8.87-31.46Zm70.12,17.19h15.79a3,3,0,0,0,3-3V355l16.25,6.52-11,27.46-27.46-11,3.45-8.6Z"/><path class="cls-4" d="M376.85,335.39l10.5,37.24-52.13,14.7-10.5-37.24,52.13-14.7m2.67-4.77-59.58,16.8,12.6,44.69,59.58-16.8-12.6-44.69Z"/><polygon class="cls-7" points="354.85 341.6 362.58 339.42 362.58 335.4 354.85 337.58 354.85 341.6"/><polygon class="cls-7" points="388.1 361.04 384.08 361.04 386.26 368.77 390.28 368.77 388.1 361.04"/><polygon class="cls-7" points="391.29 372.36 388.89 363.82 386.52 369.7 387.35 372.63 385.09 373.27 383.27 377.8 389.86 375.94 391.29 372.36"/><path class="cls-8" d="M406.59,327.66v31H360.16v-31h46.43m7.74-7.74h-61.9v46.43h61.9V319.93Z"/><polygon class="cls-9" points="406.59 346.47 406.59 352.31 414.33 355.41 414.33 349.57 406.59 346.47"/><polygon class="cls-9" points="401.56 358.62 395.73 358.62 392.62 366.36 398.46 366.36 401.56 358.62"/><path class="cls-10" d="M404.45,346.59l33,13.26-13.26,33-33-13.26,13.26-33m-3-7-17.3,43.09,43.09,17.3,17.3-43.09-43.09-17.3Z"/><path class="cls-6" d="M79.47,437.89a78,78,0,1,1,42.19-143.55l32.25-10.75a1.5,1.5,0,0,1,1.9,1.9L145,317.74A78,78,0,0,1,79.47,437.89Z"/><path class="cls-1" d="M79.46,283.46a76.33,76.33,0,0,1,42,12.53l32.94-11L143.4,318a76.48,76.48,0,1,1-63.94-34.49m0-3a79.44,79.44,0,1,0,67.24,37.08L157.22,286a3,3,0,0,0-3.79-3.79l-31.57,10.52a79.14,79.14,0,0,0-42.39-12.23Z"/><circle class="cls-6" cx="79.47" cy="359.93" r="76.47" transform="translate(-231.23 161.61) rotate(-45)"/><path class="cls-1" d="M118.61,320.84a.86.86,0,0,1,.86.86v73.53a.86.86,0,0,1-1.72,0v-.29l-36.32-19.1L65.26,375A9.63,9.63,0,0,0,67,379.56a4.79,4.79,0,0,1-2.39,1.81,63.57,63.57,0,0,0,4.78,13.27L61.09,399c-.27-.52-6.29-12.12-6.95-24.64l-7.47-.4v-5h-2.2a5,5,0,0,1-5-5V353a5,5,0,0,1,5-5h2.2v-5l34.76-1.88L117.74,322v-.29a.86.86,0,0,1,.86-.86m0-3a3.87,3.87,0,0,0-3.44,2.12L80.61,338.13,46.51,340a3,3,0,0,0-2.84,3v2a8,8,0,0,0-7.2,8v11a8,8,0,0,0,7.2,8v2a3,3,0,0,0,2.84,3l4.86.26a72.58,72.58,0,0,0,7.07,23.18,3,3,0,0,0,4,1.26l8.32-4.36a3,3,0,0,0,1.27-4,61.12,61.12,0,0,1-4-10.47,9.34,9.34,0,0,0,1.31-1.39,3,3,0,0,0,.3-3.18l10.91.59L115.16,397a3.86,3.86,0,0,0,7.31-1.74V321.7a3.87,3.87,0,0,0-3.86-3.86Z"/><path class="cls-4" d="M64.63,381.38A4.79,4.79,0,0,0,67,379.56,9.63,9.63,0,0,1,65.26,375l-4.47-2.34.31,6.58Z"/><path class="cls-8" d="M61.09,399c-.29-.54-7-13.49-7-26.82h9.39c0,11,5.88,22.34,5.93,22.45Z"/><path class="cls-9" d="M63.47,372.19H54.08a47.14,47.14,0,0,0,.74,8.08l9.11-2.48A36.73,36.73,0,0,1,63.47,372.19Z"/><polygon class="cls-8" points="81.42 375.85 46.67 373.97 46.67 342.97 81.42 341.09 81.42 375.85"/><path class="cls-4" d="M39.47,348h2.2a5,5,0,0,1,5,5v11a5,5,0,0,1-5,5h-2.2a0,0,0,0,1,0,0V348A0,0,0,0,1,39.47,348Z" transform="matrix(-1, 0, 0, -1, 86.13, 716.94)"/><polygon class="cls-8" points="81.42 341.09 117.74 321.99 117.74 358.47 81.42 358.47 81.42 341.09"/><polygon class="cls-8" points="81.42 375.85 117.74 394.95 117.74 358.47 81.42 358.47 81.42 375.85"/><rect class="cls-1" x="57.68" y="352.95" width="12.73" height="1.1" rx="0.39" ry="0.39"/><rect class="cls-1" x="57.68" y="357.92" width="12.73" height="1.1" rx="0.39" ry="0.39"/><rect class="cls-1" x="57.68" y="362.89" width="12.73" height="1.1" rx="0.39" ry="0.39"/><rect class="cls-4" x="117.74" y="320.84" width="1.72" height="75.25" rx="0.62" ry="0.62"/><path class="cls-6" d="M79.46,157.43A78,78,0,0,1,24.34,24.34,78,78,0,0,1,145,121.65L155.8,153.9a1.5,1.5,0,0,1-1.9,1.9L121.65,145A77.64,77.64,0,0,1,79.46,157.43Z"/><path class="cls-1" d="M79.47,3A76.48,76.48,0,0,1,143.4,121.44l11,32.94-32.94-11A76.47,76.47,0,1,1,79.47,3m0-3A79.47,79.47,0,0,0,23.28,135.66a79.51,79.51,0,0,0,98.58,11l31.57,10.52a3,3,0,0,0,3.79-3.79L146.7,121.86A79.48,79.48,0,0,0,79.47,0Z"/><circle class="cls-6" cx="79.47" cy="79.47" r="76.47" transform="translate(-32.92 79.47) rotate(-45)"/><path class="cls-1" d="M58.72,39.47,68.93,49.67l-8,8L63.24,60,80.1,76.89l27.43-27.43,3.86-2.52.6.6-2.52,3.86L82,78.84l1.71,1.71,4.14,4.14h0a1.48,1.48,0,0,1,2.09,0l25.61,25.61a1.48,1.48,0,0,1,0,2.09l1.54,1.54a1.45,1.45,0,0,1,0,2L114,119a1.45,1.45,0,0,1-2,0l-1.54-1.54h0a1.48,1.48,0,0,1-2.09,0L82.76,91.9a1.48,1.48,0,0,1,0-2.09l-2.25-2.25-1.71-1.71L71.7,93c-5.09,5.09-5.72,12-10.26,16.54A8.45,8.45,0,0,1,55.95,112h-1.1a8.5,8.5,0,0,1-1.91-.35l0,0a8.41,8.41,0,0,1-.82-.3l-.24-.11c-.2-.1-.41-.2-.6-.31l-.27-.16c-.19-.12-.38-.25-.56-.38l-.24-.17a8.46,8.46,0,0,1-.73-12.66C54,92.95,60.87,92.33,66,87.23l7.11-7.11-17.3-17.3L43.65,75l-2.27-2.27c8.07-8.07,3.33-19.21,3.33-19.21l14-14m0-3a3,3,0,0,0-2.12.88l-14,14a3,3,0,0,0-.64,3.3c.15.37,3.81,9.42-2.69,15.92a3,3,0,0,0,0,4.24l2.27,2.27a3,3,0,0,0,4.24,0l10-10L68.84,80.12l-5,5c-2.24,2.24-5,3.51-7.87,4.85s-6.09,2.83-8.68,5.41a11.46,11.46,0,0,0,1,17.13l.28.21,0,0c.26.19.51.36.76.52l.37.22c.26.15.53.29.81.42l.05,0,.27.13c.35.15.7.28,1,.39l.13,0a11.5,11.5,0,0,0,2.57.47h.16l.63,0h.7a11.47,11.47,0,0,0,7.42-3.34c2.59-2.59,4-5.68,5.41-8.68s2.61-5.62,4.85-7.87l5-5,.53.53q0,.11,0,.23A4.45,4.45,0,0,0,80.64,94l25.61,25.61a4.45,4.45,0,0,0,3.17,1.31h.23l.23.23a4.45,4.45,0,0,0,6.29,0l3.07-3.07a4.45,4.45,0,0,0,0-6.29l-.23-.23q0-.11,0-.23a4.45,4.45,0,0,0-1.31-3.17L92.1,82.56a4.45,4.45,0,0,0-3.17-1.31H88.7l-2.42-2.42,25.31-25.31A3,3,0,0,0,112,53l2.52-3.86a3,3,0,0,0-.39-3.76l-.3-.3-.3-.3a3,3,0,0,0-3.76-.39L105.89,47a3,3,0,0,0-.48.39L80.1,72.65,65.36,57.92l-.22-.22,5.91-5.91a3,3,0,0,0,0-4.24L60.84,37.34a3,3,0,0,0-2.12-.88Z"/><path class="cls-8" d="M117.12,116,114,119a1.45,1.45,0,0,1-2.05,0L55.78,62.82,60.9,57.7l56.22,56.22A1.45,1.45,0,0,1,117.12,116Z"/><rect class="cls-11" x="94.07" y="81.51" width="10.2" height="39.17" rx="1.48" ry="1.48" transform="translate(-42.44 99.74) rotate(-45)"/><path class="cls-1" d="M44.72,53.47l14-14L68.93,49.67,43.65,75l-2.27-2.27C49.46,64.61,44.72,53.47,44.72,53.47Z"/><polygon class="cls-9" points="63.24 60.04 61.42 68.46 55.78 62.83 60.9 57.7 63.24 60.04"/><rect class="cls-12" x="96.27" y="83.24" width="2.35" height="39.17" transform="translate(-44.17 99.02) rotate(-45)"/><path class="cls-9" d="M81.8,78.6,80,80.4l-1.9-1.9-.23-.23a1,1,0,0,0-1.46,0l-.64.64a1,1,0,0,0,0,1.46l.23.23-1.23,1.23,5.73,5.73,1.23-1.23.23.23a1,1,0,0,0,1.46,0l.64-.64a1,1,0,0,0,0-1.46l-.23-.23-1.9-1.9,1.8-1.8Z"/><path class="cls-8" d="M80.24,80.64,78.3,78.7l29.23-29.23,3.86-2.52.6.6-2.52,3.86Z"/><polygon class="cls-9" points="111.53 47.4 108.77 50.16 108.26 49.65 111.53 47.4"/><path class="cls-11" d="M71.7,93,80,84.62l.23.23a1,1,0,0,0,1.46,0l.64-.64a1,1,0,0,0,0-1.46l-.23-.23L76.4,76.8l-.23-.23a1,1,0,0,0-1.46,0l-.64.64a1,1,0,0,0,0,1.46l.23.23L66,87.23c-5.09,5.09-12,5.72-16.54,10.26a8.49,8.49,0,1,0,12,12C66,105,66.61,98.06,71.7,93Z"/><path class="cls-12" d="M51.16,109.14a9.45,9.45,0,0,1-.73-12.55c-.34.29-.68.58-1,.91a8.49,8.49,0,0,0,7.46,14.36A9.41,9.41,0,0,1,51.16,109.14Z"/><path class="cls-2" d="M230.85,183.19c8.08,0,15.33-3.62,17.58,14.75s-.5,31.13-1.62,34.5c0,0,7.88-8.37,8-38.87l-4.28-14.25-19.68-3.12Z"/><path class="cls-2" d="M230.85,183.19c-8.08,0-15.33-3.62-17.58,14.75s.5,35.13,1.63,38.5c0,0-7.87-12.37-8-42.87l4.28-14.25,19.68-3.12Z"/></g></g></svg>