<svg xmlns="http://www.w3.org/2000/svg" viewBox="0 0 520.54 511.53"><defs><style>.cls-1{fill:#444;}.cls-2{fill:#232323;}.cls-3{fill:#1e1e1e;}.cls-4{fill:#7f5b5b;}.cls-5{fill:#e24b4b;}.cls-6{fill:#896464;}.cls-7{fill:#3d3d3d;}.cls-8{fill:#e2e2e2;}.cls-9{fill:#9e7877;}.cls-10{fill:#727272;}.cls-11{fill:#ad8684;}.cls-12{fill:#d3aca9;}.cls-13{fill:#188db5;}.cls-14{fill:#ddbab6;}.cls-15,.cls-16{fill:#7a5941;}.cls-16{opacity:0.5;}.cls-17{fill:#f2f2f2;}.cls-18{fill:#fff;}</style></defs><title>consultation</title><g id="Calque_2" data-name="Calque 2"><g id="Calque_1-2" data-name="Calque 1"><path class="cls-1" d="M467.54,203.45a9.12,9.12,0,0,1,8.62,6.14c8.5,2.46,16.64,10.21,13.81,33.32a2.58,2.58,0,0,1,.67-.09c.78,0,1.86.37,2.42,2.25.64,2.16-1.59,6.51-3.58,8.17a.84.84,0,0,1,.14.44.86.86,0,0,1-.86.86.85.85,0,0,1-.82-.65,1,1,0,0,1-.69-.43,35.19,35.19,0,0,1-6.95,9.79,33.58,33.58,0,0,0-.94,5.48c-.22,2.87.09,5.7,1.58,7.55a16.08,16.08,0,0,0,5.31,4.6,4.93,4.93,0,0,1,1.2-.11,14.62,14.62,0,0,1,4.77.94c4,1.39,9.19,5.89,17.26,9.33s8.07,13.49,8.07,13.49h-100s0-10.05,8.07-13.49,13.29-7.94,17.26-9.33a14.62,14.62,0,0,1,4.77-.94,4.93,4.93,0,0,1,1.2.11,16.08,16.08,0,0,0,5.31-4.6c1.49-1.85,1.8-4.68,1.58-7.55a33.57,33.57,0,0,0-.94-5.48,35.19,35.19,0,0,1-6.95-9.79,1,1,0,0,1-.69.43.85.85,0,0,1-.82.65.86.86,0,0,1-.86-.86.84.84,0,0,1,.14-.44c-2-1.66-4.23-6-3.58-8.17.56-1.88,1.65-2.25,2.42-2.25a2.59,2.59,0,0,1,.67.09c-2.83-23.11,5.31-30.86,13.81-33.32a9.12,9.12,0,0,1,8.62-6.14m0-3a12.13,12.13,0,0,0-10.84,6.71,20.5,20.5,0,0,0-11.57,9.94c-3.06,5.73-4.16,13.6-3.28,23.42a6.2,6.2,0,0,0-2.7,3.7c-.94,3.15,1.15,7.61,3.39,10.19a3.87,3.87,0,0,0,3.8,3.14h.27a38.71,38.71,0,0,0,5.47,7.23,28.89,28.89,0,0,1,.67,4.2c.19,2.53-.13,4.46-.92,5.44a15.29,15.29,0,0,1-3.57,3.39l-.6,0a17.68,17.68,0,0,0-5.76,1.11,38.54,38.54,0,0,0-6.91,3.7,76.76,76.76,0,0,1-10.54,5.7c-9.78,4.17-9.89,15.76-9.89,16.25a3,3,0,0,0,3,3h100a3,3,0,0,0,3-3c0-.49-.11-12.08-9.89-16.25a76.76,76.76,0,0,1-10.54-5.7,38.53,38.53,0,0,0-6.91-3.7,17.68,17.68,0,0,0-5.76-1.11l-.6,0a15.29,15.29,0,0,1-3.57-3.39c-.79-1-1.12-2.91-.92-5.44a28.88,28.88,0,0,1,.67-4.2,38.71,38.71,0,0,0,5.47-7.23h.27a3.87,3.87,0,0,0,3.8-3.14c2.24-2.58,4.33-7,3.39-10.19a6.2,6.2,0,0,0-2.7-3.7c.88-9.82-.22-17.69-3.28-23.42a20.5,20.5,0,0,0-11.57-9.94,12.13,12.13,0,0,0-10.84-6.71Z"/><circle class="cls-2" cx="467.54" cy="212.58" r="9.12"/><ellipse class="cls-3" cx="467.54" cy="212.58" rx="9.12" ry="6.27"/><path class="cls-4" d="M445.33,243s-2.38-1-3.31,2.09,4.11,10.77,5.82,8.39S445.33,243,445.33,243Z"/><path class="cls-4" d="M489.75,243s2.38-1,3.31,2.09-4.11,10.77-5.82,8.39S489.75,243,489.75,243Z"/><path class="cls-5" d="M467.54,279.93l18.7,1s2-.56,6,.83,9.19,5.89,17.26,9.33,8.07,13.49,8.07,13.49h-50Z"/><path class="cls-5" d="M467.54,279.93l-18.7,1s-2-.56-6,.83-9.19,5.89-17.26,9.33-8.07,13.49-8.07,13.49h50Z"/><path class="cls-6" d="M480.93,276.29c-4.17-5.16.89-18,.89-18l-14.29,1.39-14.29-1.39s5.06,12.8.89,18-7.14,5.16-7.14,5.16,7.74,11.21,20.54,11.21,20.54-11.21,20.54-11.21S485.1,281.45,480.93,276.29Z"/><path class="cls-4" d="M467.54,259.73l-14.29-1.39a41.49,41.49,0,0,1,2.47,10.41c4,4.15,8.37,6.76,11.81,6.76s7.84-2.61,11.81-6.76a41.49,41.49,0,0,1,2.47-10.41Z"/><path class="cls-2" d="M467.54,208.51c-10.35,0-27.23,3.37-22,37.29h22Z"/><path class="cls-2" d="M467.54,208.51c10.35,0,27.23,3.37,22,37.29h-22Z"/><path class="cls-6" d="M489.76,243c0,13.68-13.89,27.16-22.22,27.16S445.32,256.67,445.32,243s-2-28.74,22.22-28.74S489.76,229.31,489.76,243Z"/><path class="cls-2" d="M467.54,217.26c-8.85,0-13.89-2-18.87,4l.48-3.64L461.41,210h6.13Z"/><path class="cls-2" d="M467.54,217.26c8.85,0,13.89-2,18.87,4l-.48-3.64L473.66,210h-6.13Z"/><path class="cls-7" d="M462.15,247.36h-9.58a2.5,2.5,0,0,1-2.5-2.5v-2.33a.5.5,0,1,1,1,0v2.33a1.5,1.5,0,0,0,1.5,1.5h9.58a1.5,1.5,0,0,0,1.5-1.5v-2.33a.5.5,0,0,1,1,0v2.33A2.5,2.5,0,0,1,462.15,247.36Z"/><path class="cls-7" d="M482.51,247.36h-9.58a2.5,2.5,0,0,1-2.5-2.5v-2.33a.5.5,0,0,1,1,0v2.33a1.5,1.5,0,0,0,1.5,1.5h9.58a1.5,1.5,0,0,0,1.5-1.5v-2.33a.5.5,0,1,1,1,0v2.33A2.5,2.5,0,0,1,482.51,247.36Z"/><path class="cls-7" d="M464.15,244.69a.5.5,0,0,1-.25-.94,6.72,6.72,0,0,1,7.26,0,.5.5,0,0,1-.49.87,5.74,5.74,0,0,0-6.28,0A.5.5,0,0,1,464.15,244.69Z"/><circle class="cls-8" cx="488.75" cy="253.69" r="0.86"/><circle class="cls-8" cx="446.33" cy="253.69" r="0.86"/><path class="cls-1" d="M263,3c6.22,0,12.32,1.32,17.24,5.31,6.94,5.63,4.25,14.14,4.06,17.64-.13,2.45-.46,6.93-1.11,11h.18c.78,0,1.86.37,2.42,2.25.79,2.67-2.8,8.69-4.92,8.83-.86,3.22-1.94,6.07-3,7.38a28,28,0,0,1-5.52,4.95c-.14.82-.25,1.66-.31,2.5-.22,2.87.09,5.7,1.58,7.55A16.08,16.08,0,0,0,279,75a4.93,4.93,0,0,1,1.2-.11,14.62,14.62,0,0,1,4.77.94c4,1.39,9.19,5.89,17.26,9.33s8.07,13.49,8.07,13.49h-100s0-10.05,8.07-13.49,13.29-7.94,17.26-9.33a14.62,14.62,0,0,1,4.77-.94,4.94,4.94,0,0,1,1.2.11,16.08,16.08,0,0,0,5.31-4.6c1.49-1.85,1.8-4.68,1.58-7.55-.06-.84-.18-1.68-.31-2.5a28,28,0,0,1-5.52-4.95c-1-1.31-2.09-4.16-3-7.38-2.12-.15-5.71-6.17-4.92-8.83.56-1.88,1.65-2.25,2.42-2.25h.26c-.14-1-.26-2.08-.32-3.18-.22-4.16.69-11.09.31-16.16a8.45,8.45,0,0,1,3.25-7.5s0-3.75,9.88-5.69A65.36,65.36,0,0,1,263,3m0-3h0a67.86,67.86,0,0,0-13,1.44c-8.5,1.67-11.16,4.83-12,6.94a11.65,11.65,0,0,0-3.57,9.41,75,75,0,0,1-.15,8.85c-.14,2.67-.28,5.2-.17,7.24q0,.46.06,1a6.38,6.38,0,0,0-2.31,3.45c-1.08,3.63,1.82,8.08,2.41,8.93a10.48,10.48,0,0,0,2.89,3,23.41,23.41,0,0,0,3.08,7A28.85,28.85,0,0,0,245.36,62c0,.36.08.71.11,1.05.19,2.53-.13,4.46-.92,5.44A15.29,15.29,0,0,1,241,71.86l-.6,0a17.68,17.68,0,0,0-5.76,1.11,38.54,38.54,0,0,0-6.91,3.7,76.77,76.77,0,0,1-10.54,5.7c-9.78,4.17-9.89,15.76-9.89,16.25a3,3,0,0,0,3,3h100a3,3,0,0,0,3-3c0-.49-.11-12.08-9.89-16.25a76.77,76.77,0,0,1-10.54-5.7,38.54,38.54,0,0,0-6.91-3.7,17.68,17.68,0,0,0-5.76-1.11l-.6,0A15.29,15.29,0,0,1,276,68.47c-.79-1-1.12-2.91-.92-5.44,0-.34.06-.69.11-1.05a28.85,28.85,0,0,0,5.11-4.79,23.4,23.4,0,0,0,3.08-7,10.48,10.48,0,0,0,2.89-3c.59-.85,3.49-5.3,2.41-8.93a6.45,6.45,0,0,0-2.16-3.34c.49-3.74.71-7.29.79-8.84,0-.45.11-1.09.22-1.84.6-4.38,1.73-12.52-5.39-18.29C277.24,2,270.8,0,263,0Z"/><path class="cls-9" d="M238.06,37s-2.38-1-3.31,2.09,4.11,10.77,5.82,8.39S238.06,37,238.06,37Z"/><path class="cls-9" d="M282.48,37s2.38-1,3.31,2.09-4.11,10.77-5.82,8.39S282.48,37,282.48,37Z"/><path class="cls-10" d="M238.41,41.89a44.89,44.89,0,0,1-1.3-8.17c-.22-4.16.69-11.09.31-16.16a8.45,8.45,0,0,1,3.25-7.5s0-3.75,9.88-5.69S272,1.62,280.24,8.31c6.94,5.63,4.25,14.14,4.06,17.64s-.78,11.14-2.14,15.69Z"/><path class="cls-1" d="M260.27,74,279,75s2-.56,6,.83,9.19,5.89,17.26,9.33,8.07,13.49,8.07,13.49h-50Z"/><path class="cls-1" d="M260.27,74l-18.7,1s-2-.56-6,.83-9.19,5.89-17.26,9.33-8.07,13.49-8.07,13.49h50Z"/><path class="cls-11" d="M273.66,70.36c-4.17-5.16.89-18,.89-18l-14.29,1.39L246,52.4s5.06,12.8.89,18-7.14,5.16-7.14,5.16,7.74,11.21,20.54,11.21S280.8,75.51,280.8,75.51,277.83,75.51,273.66,70.36Z"/><path class="cls-9" d="M260.27,53.79,246,52.4a41.49,41.49,0,0,1,2.47,10.41c4,4.15,8.37,6.76,11.81,6.76s7.84-2.61,11.81-6.76a41.49,41.49,0,0,1,2.47-10.41Z"/><path class="cls-11" d="M260.27,8.31C236.06,8.31,238,23.57,238,37.44c0,5.63,2.44,15.16,4.57,17.92s10.2,9.6,17.65,9.6,15.54-6.86,17.65-9.6,4.57-12.29,4.57-17.92C282.49,23.57,284.48,8.31,260.27,8.31Z"/><path class="cls-10" d="M238.41,41.89a38.6,38.6,0,0,1,.64-10.82c1.19-4.62,5.45-9.19,2.25-13.44s10.44-1,19-1V6.88l-15.78,2-6.2,8.31L238,24.07l-.61,9.41A67.55,67.55,0,0,0,238.41,41.89Z"/><path class="cls-10" d="M282.12,41.89a38.6,38.6,0,0,0-.64-10.82c-1.19-4.62-5.45-9.19-2.25-13.44s-10.44-1-19-1V6.88l15.78,2,6.2,8.31.28,6.88.61,9.41A67.55,67.55,0,0,1,282.12,41.89Z"/><path class="cls-1" d="M261.92,407.08c10.72,0,23.44,4.86,29.69,23.27,9.39,27.65-5,29.1-.4,52.78.48,2.48.89,4.71,1.23,6.73A73.57,73.57,0,0,0,302.2,495c8.07,3.44,8.07,13.49,8.07,13.49h-100s0-10.05,8.07-13.49c5.73-2.44,10-5.41,13.45-7.43,1.36-4.27,2.48-7.94,2.85-9.5.74-3.13,1.39-13.93,1.38-23.85-1-1.82-1.65-3.89-1.27-5.18a3.38,3.38,0,0,1,1.13-1.83,73,73,0,0,0-.61-7.4c-1.46-9.75,1.79-17.71,4.46-19.35,0,0-1.29-6.82,8.63-10.85a37.24,37.24,0,0,1,13.56-2.56m0-3a40.55,40.55,0,0,0-14.69,2.78c-8.83,3.58-10.37,9.33-10.53,12.29-3.35,3.57-5.79,11.83-4.4,21.13.23,1.53.4,3.5.52,5.88a7.3,7.3,0,0,0-1,2.05c-.7,2.34.28,5,1.14,6.77,0,10.12-.69,19.86-1.3,22.42-.2.85-.79,3-2.45,8.2l-1.57,1a76.84,76.84,0,0,1-10.54,5.7c-9.78,4.17-9.89,15.76-9.89,16.25a3,3,0,0,0,3,3h100a3,3,0,0,0,3-3c0-.49-.11-12.08-9.89-16.25a66.29,66.29,0,0,1-8.2-4.27c-.3-1.73-.64-3.56-1-5.45-1.94-9.9-.35-15.49,1.33-21.4,2.18-7.68,4.44-15.62-1-31.77-7.48-22-23.59-25.31-32.53-25.31Z"/><path class="cls-1" d="M239.73,420.49s-1.29-6.82,8.63-10.85,33.86-6.94,43.25,20.71-5,29.1-.4,52.78,2.25,25.4,2.25,25.4H225s8.52-25.53,9.69-30.42,2.09-28.51.63-38.26S237.05,422.14,239.73,420.49Z"/><path class="cls-12" d="M238.06,447s-2.38-1-3.31,2.09,4.11,10.77,5.82,8.39S238.06,447,238.06,447Z"/><path class="cls-12" d="M282.48,447s2.38-1,3.31,2.09-4.11,10.77-5.82,8.39S282.48,447,282.48,447Z"/><path class="cls-13" d="M260.27,483.93l18.7,1s2-.56,6,.83,9.19,5.89,17.26,9.33,8.07,13.49,8.07,13.49h-50Z"/><path class="cls-13" d="M260.27,483.93l-18.7,1s-2-.56-6,.83-9.19,5.89-17.26,9.33-8.07,13.49-8.07,13.49h50Z"/><path class="cls-14" d="M273.66,480.29c-4.17-5.16.89-18,.89-18l-14.29,1.39L246,462.33s5.06,12.8.89,18-7.14,5.16-7.14,5.16,7.74,11.21,20.54,11.21,20.54-11.21,20.54-11.21S277.83,485.45,273.66,480.29Z"/><path class="cls-12" d="M260.27,463.72,246,462.33a41.49,41.49,0,0,1,2.47,10.41c4,4.15,8.37,6.76,11.81,6.76s7.84-2.61,11.81-6.76a41.49,41.49,0,0,1,2.47-10.41Z"/><path class="cls-14" d="M282.49,447c0,13.68-13.89,27.16-22.22,27.16S238,460.66,238,447s-2-28.74,22.22-28.74S282.49,433.3,282.49,447Z"/><path class="cls-1" d="M238.28,450.11c.62-12.88,6.71-14,5.22-21.81,0,0,4.71-5.66,14.68-4,19.94,3.37,12.3,12.9,25.79,24.31,7.35,6.21-.79,15-.79,15l5.75.69-3-38-22-15.08-23,8.53L237.81,426l-1.05,17.66A12.19,12.19,0,0,0,238.28,450.11Z"/><path class="cls-1" d="M49.1,202.65s-1.09,1.83-.69,2.9c0,0,1.38.14,3.23.14a20.28,20.28,0,0,0,6.5-.88,15.29,15.29,0,0,1-1.79,1.72A41.4,41.4,0,0,0,65,208.11c.26,0,.5,0,.73,0,3-.29,4-2,4-2a3.65,3.65,0,0,1,0,1.5,9.07,9.07,0,0,1,4.92-1.4,9.57,9.57,0,0,1,1.89.19s-2.71,0-3.64,1.91,1.82,6.64,3.64,7.7a2.69,2.69,0,0,0,1.37.39,2.87,2.87,0,0,0,1.87-.76,1.89,1.89,0,0,1-.66,1.1S81,222.82,80.71,225c0,0,.07-1.54-1.49-4.91,0,0-1.45,6.6-1.32,9.46a78.9,78.9,0,0,1-1.72,14.07c.77,0,1.8.44,2.33,2.25.8,2.7-2.89,8.84-5,8.84a1,1,0,0,1-.82-.44l-.21.43-.19.39c-.14.28-.29.56-.44.83l-.13.25q-.3.53-.61,1.05l-.18.28-.47.75-.25.37-.44.64-.27.38-.46.62-.27.36-.52.65-.23.29q-.38.46-.77.9l-.12.13-.68.74-.28.29-.42.43a33.58,33.58,0,0,0-.94,5.47c-.22,2.87.09,5.7,1.58,7.55a16.14,16.14,0,0,0,5.3,4.6,4.93,4.93,0,0,1,1.2-.11,14.62,14.62,0,0,1,4.77.94c4,1.39,9.19,5.89,17.26,9.33S103,305.33,103,305.33H3s0-10.05,8.07-13.49,13.29-7.94,17.26-9.33a14.62,14.62,0,0,1,4.77-.94,4.93,4.93,0,0,1,1.2.11,16.14,16.14,0,0,0,5.3-4.6c1.49-1.85,1.8-4.68,1.58-7.55a33.58,33.58,0,0,0-.94-5.47l-.42-.43-.28-.28-.69-.75-.11-.12q-.39-.44-.77-.9l-.23-.28-.53-.66-.27-.36-.46-.62-.27-.38-.44-.65-.25-.37-.48-.75-.17-.28q-.31-.52-.61-1.05l-.13-.25c-.15-.28-.3-.55-.44-.83l-.19-.39-.21-.44a1,1,0,0,1-.82.44c-2.11,0-5.8-6.14-5-8.84.56-1.88,1.65-2.25,2.42-2.25h.23c-.12-.84-.22-1.73-.28-2.67-.33-5.28-.2-11.21-.66-13.71a8,8,0,0,0-1.82-3.89,5,5,0,0,1,1.53.66,79.84,79.84,0,0,0,3.67-10,8.88,8.88,0,0,1,.23,1.36s3.9-3.78,7.18-7.11,1.49-4.8,1.49-4.8,2.31.88,2.71,2.13c0,0,3.21-2.68,4.93-2.93m0-3a3,3,0,0,0-.44,0,11.41,11.41,0,0,0-4.2,1.94,10.65,10.65,0,0,0-1.93-1,3,3,0,0,0-3.7,4.25,6,6,0,0,1-1,1.26c-1.66,1.69-3.5,3.51-4.89,4.88l-.37,0h0a3,3,0,0,0-2.91,2.28,59,59,0,0,1-2.47,7.07,3,3,0,0,0-2.5,1.53,2.93,2.93,0,0,0,.52,3.54,5.26,5.26,0,0,1,1,2.36,59,59,0,0,1,.36,6.65c.05,2.09.11,4.46.25,6.7q0,.22,0,.44A6.39,6.39,0,0,0,24.61,245c-1,3.23,1.26,7.41,2.73,9.38a7.56,7.56,0,0,0,4.31,3.24h0q.32.58.66,1.15l.13.22.06.09.52.82.21.31.06.09.48.7.29.41.5.67,0,.06.25.32.57.71.08.09.17.21q.41.5.84,1l.1.11.77.83.15.16a28.88,28.88,0,0,1,.67,4.2c.19,2.53-.13,4.46-.92,5.44a15.34,15.34,0,0,1-3.57,3.39l-.6,0a17.68,17.68,0,0,0-5.76,1.11,38.54,38.54,0,0,0-6.91,3.7,76.76,76.76,0,0,1-10.54,5.7C.11,293.25,0,304.84,0,305.33a3,3,0,0,0,3,3H103a3,3,0,0,0,3-3c0-.49-.11-12.08-9.89-16.25a76.76,76.76,0,0,1-10.54-5.7,38.54,38.54,0,0,0-6.91-3.7,17.68,17.68,0,0,0-5.76-1.11l-.6,0a15.34,15.34,0,0,1-3.57-3.39c-.79-1-1.12-2.91-.92-5.44a28.87,28.87,0,0,1,.67-4.2l.15-.16.74-.8.13-.14q.42-.48.84-1l.17-.21.08-.1.57-.71.24-.32.05-.07.49-.67.3-.42.48-.7.06-.09.21-.31.51-.81.06-.1.13-.21q.34-.57.66-1.15h0a7.56,7.56,0,0,0,4.31-3.24c1.47-2,3.69-6.15,2.73-9.38A6.64,6.64,0,0,0,79.56,242a74.25,74.25,0,0,0,1.34-12.54,25.87,25.87,0,0,1,.43-4.33l2.36.28c.25-2.08-.66-5.86-1.29-8.12a4.71,4.71,0,0,0,.35-1.18,3.12,3.12,0,0,0-1.68-3.39,3.36,3.36,0,0,0-1.28-.27,2.57,2.57,0,0,0-1.92.83,9.5,9.5,0,0,1-2.11-3.69,2.76,2.76,0,0,1,.83-.17,3,3,0,0,0,3-2.7,3,3,0,0,0-2.41-3.24,12.62,12.62,0,0,0-2.49-.25,12.43,12.43,0,0,0-3,.38,2.58,2.58,0,0,0-1.48-.67l-.37,0a2.66,2.66,0,0,0-2.56,1.58,3.1,3.1,0,0,1-1.78.62l-.44,0a21.59,21.59,0,0,1-3.85-.5,3,3,0,0,0-4-2.61,16.35,16.35,0,0,1-5,.69,3,3,0,0,0-3-3Z"/><path class="cls-12" d="M30.79,243.79s-2.38-1-3.31,2.09,4.11,10.77,5.82,8.39S30.79,243.79,30.79,243.79Z"/><path class="cls-12" d="M75.21,243.79s2.38-1,3.31,2.09-4.11,10.77-5.82,8.39S75.21,243.79,75.21,243.79Z"/><path class="cls-15" d="M31.74,250.09A32.06,32.06,0,0,1,29.85,241c-.33-5.28-.2-11.21-.66-13.71a8,8,0,0,0-1.82-3.89,5,5,0,0,1,1.53.66,79.85,79.85,0,0,0,3.67-10,8.88,8.88,0,0,1,.23,1.36s3.9-3.78,7.18-7.11,1.49-4.8,1.49-4.8,2.31.88,2.71,2.13c0,0,3.21-2.68,4.93-2.93,0,0-1.09,1.83-.69,2.9,0,0,6,.62,9.72-.73a15.28,15.28,0,0,1-1.79,1.72s6.32,1.83,9.36,1.54,4-2,4-2a3.65,3.65,0,0,1,0,1.5,9.26,9.26,0,0,1,6.81-1.21s-2.71,0-3.64,1.91,1.82,6.64,3.64,7.7a2.7,2.7,0,0,0,3.24-.37,1.89,1.89,0,0,1-.66,1.1S81,222.82,80.71,225c0,0,.07-1.54-1.49-4.91,0,0-1.46,6.6-1.32,9.46s-1.29,15.84-4,21.72Z"/><path class="cls-8" d="M53,280.73l18.7,1s2-.56,6,.83,9.19,5.89,17.26,9.33S103,305.33,103,305.33H53Z"/><path class="cls-8" d="M53,280.73l-18.7,1s-2-.56-6,.83-9.19,5.89-17.26,9.33S3,305.33,3,305.33H53Z"/><path class="cls-14" d="M66.39,277.09c-4.17-5.16.89-18,.89-18L53,260.52l-14.29-1.39s5.06,12.8.89,18-7.14,5.16-7.14,5.16S40.2,293.46,53,293.46s20.54-11.21,20.54-11.21S70.56,282.25,66.39,277.09Z"/><path class="cls-12" d="M53,260.52l-14.29-1.39a41.49,41.49,0,0,1,2.47,10.41c4,4.15,8.37,6.76,11.81,6.76s7.84-2.61,11.81-6.76a41.49,41.49,0,0,1,2.47-10.41Z"/><path class="cls-14" d="M75.22,243.79c0,13.68-13.89,27.16-22.22,27.16s-22.22-13.47-22.22-27.16S28.79,215,53,215,75.22,230.1,75.22,243.79Z"/><path class="cls-16" d="M74.26,250.09c-3.79,6.52-12.63,7-12.63,7-.5-2.23-3.47-3.87-8.63-3.87s-8.13,1.64-8.63,3.87c0,0-8.84-.44-12.63-7l0,.05C35,261.35,46,270.94,53,270.94s18-9.59,21.28-20.8ZM55.6,264h-.53l-.47-1.49H51.39L50.92,264H50.4a3.84,3.84,0,1,1,0-7.69H55.6a3.84,3.84,0,1,1,0,7.69Z"/><path class="cls-15" d="M30.77,235.23s6.2-6.8,4.82-14.34c0,0,4.56.74,17.41.74v-9.57l-18.25,4.61-4.41,9.57L30,234Z"/><path class="cls-15" d="M75.23,235.23s-6.2-6.8-4.82-14.34c0,0-4.56.74-17.41.74v-9.57l18.25,4.61,4.41,9.57L76,234Z"/><path class="cls-15" d="M63,219.3a40.91,40.91,0,0,1,3,8S65,222,64,218.79,63,219.3,63,219.3Z"/><path class="cls-15" d="M65.24,220.51a20.82,20.82,0,0,0,7.37,8.27,25,25,0,0,1-6.51-9.16C63.45,213.5,65.24,220.51,65.24,220.51Z"/><path class="cls-15" d="M42.68,220.18a6.13,6.13,0,0,0-3.77,5.19S37.85,219.85,42.68,220.18Z"/><path class="cls-1" d="M286.52,164.83v17H260.77V190l114.5,39.83h-15v10h-15v90h15v5h15v5h15v5h-260v-5h15v-5h15v-5h15v-90h-15v-10h-15L259.77,190V164.83h26.75m27.75,165h16v-90h-16v90m-31,0h16v-90h-16v90m-31,0h16v-90h-16v90m-31,0h16v-90h-16v90m-31,0h16v-90h-16v90m96.25-168H259.77a3,3,0,0,0-3,3v23L144.28,227a3,3,0,0,0,1,5.83h12v7a3,3,0,0,0,3,3h12v84h-12a3,3,0,0,0-3,3v2h-12a3,3,0,0,0-3,3v2h-12a3,3,0,0,0-3,3v5a3,3,0,0,0,3,3h260a3,3,0,0,0,3-3v-5a3,3,0,0,0-3-3h-12v-2a3,3,0,0,0-3-3h-12v-2a3,3,0,0,0-3-3h-12v-84h12a3,3,0,0,0,3-3v-7h12a3,3,0,0,0,1-5.83L263.77,187.87v-3h22.75a3,3,0,0,0,3-3v-17a3,3,0,0,0-3-3Zm30.75,81h10v84h-10v-84Zm-31,0h10v84h-10v-84Zm-31,0h10v84h-10v-84Zm-31,0h10v84h-10v-84Zm-31,0h10v84h-10v-84Z"/><rect class="cls-8" x="259.77" y="164.83" width="1" height="27.28"/><rect class="cls-8" x="130.27" y="339.83" width="260" height="5"/><rect class="cls-17" x="145.27" y="334.83" width="230" height="5"/><rect class="cls-8" x="160.27" y="329.83" width="200" height="5"/><rect class="cls-17" x="160.27" y="229.83" width="200" height="10"/><polygon class="cls-18" points="160.07 227.33 260.27 192.47 360.47 227.33 160.07 227.33"/><path class="cls-8" d="M260.27,195.12l85.41,29.71H174.86l85.41-29.71m0-5.29-115,40h230l-115-40Z"/><rect class="cls-17" x="175.27" y="239.83" width="15" height="90"/><rect class="cls-17" x="206.27" y="239.83" width="15" height="90"/><rect class="cls-17" x="237.27" y="239.83" width="15" height="90"/><rect class="cls-17" x="268.27" y="239.83" width="15" height="90"/><rect class="cls-17" x="299.27" y="239.83" width="15" height="90"/><rect class="cls-17" x="330.27" y="239.83" width="15" height="90"/><rect class="cls-13" x="259.77" y="164.83" width="8.92" height="17"/><rect class="cls-18" x="268.69" y="164.83" width="8.92" height="17"/><rect class="cls-5" x="277.6" y="164.83" width="8.92" height="17"/><path class="cls-18" d="M94,128a1.5,1.5,0,0,1-1.5-1.5v-6h-4A3.5,3.5,0,0,1,85,117V86a3.5,3.5,0,0,1,3.5-3.5h46A3.5,3.5,0,0,1,138,86v31a3.5,3.5,0,0,1-3.5,3.5H102.16l-7.06,7.06A1.5,1.5,0,0,1,94,128Z"/><path class="cls-1" d="M134.54,84a2,2,0,0,1,2,2v31a2,2,0,0,1-2,2h-33l-7.5,7.5V119h-5.5a2,2,0,0,1-2-2V86a2,2,0,0,1,2-2h46m0-3h-46a5,5,0,0,0-5,5v31a5,5,0,0,0,5,5H91v4.5a3,3,0,0,0,5.12,2.12l6.62-6.62h31.76a5,5,0,0,0,5-5V86a5,5,0,0,0-5-5Z"/><rect class="cls-8" x="91.54" y="88.1" width="40" height="2.5"/><rect class="cls-8" x="91.54" y="95.6" width="30" height="2.5"/><rect class="cls-8" x="91.54" y="103.1" width="35" height="2.5"/><rect class="cls-8" x="91.54" y="110.6" width="20" height="2.5"/><path class="cls-18" d="M391.46,128a1.5,1.5,0,0,1-1.5-1.5v-6h-4a3.5,3.5,0,0,1-3.5-3.5V86a3.5,3.5,0,0,1,3.5-3.5h46a3.5,3.5,0,0,1,3.5,3.5v31a3.5,3.5,0,0,1-3.5,3.5H399.59l-7.06,7.06A1.5,1.5,0,0,1,391.46,128Z"/><path class="cls-1" d="M432,84a2,2,0,0,1,2,2v31a2,2,0,0,1-2,2H399l-7.5,7.5V119H386a2,2,0,0,1-2-2V86a2,2,0,0,1,2-2h46m0-3H386a5,5,0,0,0-5,5v31a5,5,0,0,0,5,5h2.5v4.5a3,3,0,0,0,5.12,2.12l6.62-6.62H432a5,5,0,0,0,5-5V86a5,5,0,0,0-5-5Z"/><rect class="cls-8" x="388.97" y="88.1" width="40" height="2.5"/><rect class="cls-8" x="388.97" y="95.6" width="30" height="2.5"/><rect class="cls-8" x="388.97" y="103.1" width="35" height="2.5"/><rect class="cls-8" x="388.97" y="110.6" width="20" height="2.5"/><path class="cls-18" d="M426.49,425.47a1.5,1.5,0,0,1-1.06-.44L418.37,418H386a3.5,3.5,0,0,1-3.5-3.5v-31A3.5,3.5,0,0,1,386,380h46a3.5,3.5,0,0,1,3.5,3.5v31A3.5,3.5,0,0,1,432,418h-4v6a1.5,1.5,0,0,1-1.5,1.5Z"/><path class="cls-1" d="M432,381.47a2,2,0,0,1,2,2v31a2,2,0,0,1-2,2h-5.5V424l-7.5-7.5H386a2,2,0,0,1-2-2v-31a2,2,0,0,1,2-2h46m0-3H386a5,5,0,0,0-5,5v31a5,5,0,0,0,5,5h31.76l6.62,6.62a3,3,0,0,0,5.12-2.12v-4.5H432a5,5,0,0,0,5-5v-31a5,5,0,0,0-5-5Z"/><rect class="cls-8" x="388.99" y="385.56" width="40" height="2.5"/><rect class="cls-8" x="388.99" y="393.06" width="30" height="2.5"/><rect class="cls-8" x="388.99" y="400.56" width="35" height="2.5"/><rect class="cls-8" x="388.99" y="408.06" width="20" height="2.5"/><path class="cls-18" d="M129,425.47A1.5,1.5,0,0,1,128,425L120.92,418H88.54a3.5,3.5,0,0,1-3.5-3.5v-31a3.5,3.5,0,0,1,3.5-3.5h46a3.5,3.5,0,0,1,3.5,3.5v31a3.5,3.5,0,0,1-3.5,3.5h-4v6a1.5,1.5,0,0,1-1.5,1.5Z"/><path class="cls-1" d="M134.54,381.47a2,2,0,0,1,2,2v31a2,2,0,0,1-2,2H129V424l-7.5-7.5h-33a2,2,0,0,1-2-2v-31a2,2,0,0,1,2-2h46m0-3h-46a5,5,0,0,0-5,5v31a5,5,0,0,0,5,5H120.3l6.62,6.62A3,3,0,0,0,132,424v-4.5h2.5a5,5,0,0,0,5-5v-31a5,5,0,0,0-5-5Z"/><rect class="cls-8" x="91.54" y="385.56" width="40" height="2.5"/><rect class="cls-8" x="91.54" y="393.06" width="30" height="2.5"/><rect class="cls-8" x="91.54" y="400.56" width="35" height="2.5"/><rect class="cls-8" x="91.54" y="408.06" width="20" height="2.5"/></g></g></svg>