<?xml version="1.0" encoding="UTF-8" standalone="no"?><!DOCTYPE svg PUBLIC "-//W3C//DTD SVG 1.1//EN" "http://www.w3.org/Graphics/SVG/1.1/DTD/svg11.dtd"><svg width="100%" height="100%" viewBox="0 0 109 19" version="1.1" xmlns="http://www.w3.org/2000/svg" xmlns:xlink="http://www.w3.org/1999/xlink" xml:space="preserve" xmlns:serif="http://www.serif.com/" style="fill-rule:evenodd;clip-rule:evenodd;stroke-linejoin:round;stroke-miterlimit:1.41421;"><g id="data.gouv.fr"><path d="M9.935,2.202l0,11.854l-2.079,0l0,-1.155c-0.807,0.856 -1.761,1.31 -2.863,1.364c-0.091,0 -0.176,0 -0.256,0c-1.386,0 -2.539,-0.482 -3.459,-1.444c-0.852,-0.888 -1.278,-1.962 -1.278,-3.224c0,-1.39 0.494,-2.551 1.483,-3.481c0.897,-0.845 1.976,-1.267 3.237,-1.267c1.182,0 2.131,0.331 2.846,0.994c0.034,0.043 0.068,0.081 0.103,0.113l0,-3.754l2.266,0Zm-4.891,4.604c-0.92,0 -1.653,0.347 -2.198,1.042c-0.375,0.482 -0.562,1.032 -0.562,1.653c0,0.93 0.357,1.673 1.073,2.229c0.5,0.385 1.079,0.578 1.738,0.578c0.898,0 1.619,-0.348 2.165,-1.043c0.386,-0.492 0.579,-1.059 0.579,-1.7c0,-0.941 -0.369,-1.679 -1.108,-2.214c-0.534,-0.342 -1.096,-0.524 -1.687,-0.545Z" style="fill-rule:nonzero;"/><path d="M21.642,5.17l0,8.886l-2.079,0l0,-1.155c-0.75,0.802 -1.624,1.251 -2.624,1.348c-0.159,0.01 -0.33,0.016 -0.511,0.016c-1.489,0 -2.687,-0.498 -3.596,-1.492c-0.773,-0.856 -1.159,-1.898 -1.159,-3.128c0,-1.476 0.523,-2.663 1.568,-3.561c0.886,-0.749 1.965,-1.123 3.238,-1.123c1.238,0 2.221,0.406 2.948,1.219c0.045,0.054 0.091,0.112 0.136,0.177l0,-1.187l2.079,0Zm-4.925,1.748c-0.999,0 -1.755,0.374 -2.266,1.123c-0.33,0.47 -0.494,1.021 -0.494,1.652c0,0.995 0.397,1.727 1.193,2.198c0.454,0.278 0.988,0.417 1.601,0.417c0.898,0 1.585,-0.268 2.062,-0.802c0.421,-0.535 0.648,-1.145 0.682,-1.829c0,-1.016 -0.386,-1.781 -1.159,-2.294c-0.466,-0.31 -1.005,-0.465 -1.619,-0.465Z" style="fill-rule:nonzero;"/><path d="M24.522,14.056l0,-6.945l-1.107,0l0,-1.941l1.107,0l0,-2.968l2.267,0l0,2.968l1.363,0l0,1.941l-1.363,0l0,6.945l-2.267,0Z" style="fill-rule:nonzero;"/><path d="M39.569,5.17l0,8.886l-2.079,0l0,-1.155c-0.749,0.802 -1.624,1.251 -2.624,1.348c-0.159,0.01 -0.329,0.016 -0.511,0.016c-1.488,0 -2.687,-0.498 -3.596,-1.492c-0.772,-0.856 -1.159,-1.898 -1.159,-3.128c0,-1.476 0.523,-2.663 1.568,-3.561c0.886,-0.749 1.966,-1.123 3.238,-1.123c1.238,0 2.221,0.406 2.948,1.219c0.046,0.054 0.091,0.112 0.136,0.177l0,-1.187l2.079,0Zm-4.924,1.748c-1,0 -1.756,0.374 -2.267,1.123c-0.329,0.47 -0.494,1.021 -0.494,1.652c0,0.995 0.398,1.727 1.193,2.198c0.454,0.278 0.988,0.417 1.602,0.417c0.897,0 1.585,-0.268 2.062,-0.802c0.42,-0.535 0.647,-1.145 0.681,-1.829c0,-1.016 -0.386,-1.781 -1.158,-2.294c-0.466,-0.31 -1.006,-0.465 -1.619,-0.465Z" style="fill-rule:nonzero;"/><path d="M43.319,12.452c-0.512,0 -0.938,0.401 -0.938,0.914c0,0.465 0.426,0.866 0.92,0.866c0.529,0 0.972,-0.385 0.972,-0.866c0,-0.497 -0.443,-0.914 -0.954,-0.914Z" style="fill-rule:nonzero;"/><path d="M54.549,5.17l2.164,0l0,7.202c0,1.625 -0.318,2.828 -0.954,3.609c-0.909,1.08 -2.221,1.62 -3.937,1.62c-1.806,0 -3.192,-0.567 -4.158,-1.7c-0.284,-0.332 -0.517,-0.706 -0.699,-1.123l2.574,0c0.545,0.567 1.198,0.877 1.959,0.93c0.125,0.011 0.262,0.016 0.409,0.016c1.682,0 2.562,-0.946 2.642,-2.839c-0.727,0.802 -1.568,1.251 -2.522,1.347c-0.182,0.022 -0.375,0.033 -0.58,0.033c-1.454,0 -2.624,-0.508 -3.51,-1.524c-0.75,-0.866 -1.125,-1.93 -1.125,-3.192c0,-1.423 0.506,-2.577 1.517,-3.465c0.863,-0.749 1.908,-1.123 3.135,-1.123c1.363,0 2.392,0.444 3.085,1.331l0,-1.122Zm-2.829,1.748c-1.034,0 -1.784,0.401 -2.25,1.203c-0.25,0.439 -0.375,0.946 -0.375,1.524c0,1.101 0.421,1.882 1.262,2.342c0.397,0.214 0.863,0.321 1.397,0.321c1.068,0 1.84,-0.396 2.317,-1.187c0.25,-0.417 0.375,-0.909 0.375,-1.476c0,-1.048 -0.397,-1.818 -1.192,-2.31c-0.387,-0.246 -0.83,-0.385 -1.33,-0.417c-0.068,0 -0.136,0 -0.204,0Z" style="fill-rule:nonzero;"/><path d="M63.904,4.961c1.477,0 2.704,0.487 3.681,1.46c0.909,0.898 1.363,1.983 1.363,3.256c0,1.251 -0.499,2.331 -1.499,3.24c-0.989,0.898 -2.164,1.348 -3.528,1.348c-1.397,0 -2.59,-0.466 -3.578,-1.396c-0.955,-0.909 -1.432,-1.994 -1.432,-3.256c0,-1.294 0.5,-2.396 1.5,-3.305c0.977,-0.898 2.141,-1.347 3.493,-1.347Zm0.017,1.957c-0.852,0 -1.556,0.326 -2.113,0.978c-0.409,0.492 -0.613,1.054 -0.613,1.685c0,0.909 0.358,1.636 1.073,2.181c0.489,0.364 1.045,0.546 1.67,0.546c0.875,0 1.585,-0.337 2.13,-1.011c0.398,-0.492 0.597,-1.053 0.597,-1.684c0,-0.866 -0.347,-1.572 -1.04,-2.118c-0.5,-0.384 -1.068,-0.577 -1.704,-0.577Z" style="fill-rule:nonzero;"/><path d="M79.48,5.17l0,8.886l-2.096,0l0,-0.85c-0.659,0.609 -1.375,0.952 -2.147,1.026l-0.563,0.033c-1.272,0 -2.232,-0.439 -2.88,-1.316c-0.431,-0.599 -0.664,-1.411 -0.698,-2.438c-0.012,-0.171 -0.017,-0.363 -0.017,-0.577l0,-4.764l2.266,0l0,4.347c0,1.122 0.153,1.866 0.46,2.229c0.295,0.374 0.739,0.562 1.329,0.562c0.807,0 1.381,-0.273 1.721,-0.818c0.239,-0.343 0.358,-1.054 0.358,-2.134l0,-4.186l2.267,0Z" style="fill-rule:nonzero;"/><path d="M85.052,14.056l-3.8,-8.886l2.522,0l2.181,5.886l2.148,-5.886l2.556,0l-3.8,8.886l-1.807,0Z" style="fill-rule:nonzero;"/><path d="M91.93,12.453c-0.481,0 -0.882,0.4 -0.882,0.914c0,0.465 0.401,0.865 0.866,0.865c0.497,0 0.914,-0.384 0.914,-0.865c0,-0.498 -0.417,-0.914 -0.898,-0.914Z" style="fill-rule:nonzero;"/><path d="M94.939,5.831l1.862,0l-1.883,8.716c-0.491,2.251 -1.166,3.376 -2.046,3.376c-0.245,0 -0.409,-0.143 -0.409,-0.348c0,-0.061 0.021,-0.102 0.082,-0.204c0.082,-0.144 0.102,-0.226 0.102,-0.348c0,-0.45 -0.368,-0.798 -0.818,-0.798c-0.43,0 -0.757,0.389 -0.757,0.88c0,0.695 0.716,1.248 1.616,1.248c1.862,0 3.315,-2.046 4.215,-5.872l1.534,-6.65l2.271,0l0.123,-0.655l-2.23,0c0.614,-3.273 1.412,-4.726 2.558,-4.726c0.286,0 0.45,0.102 0.45,0.266c0,0.041 -0.021,0.102 -0.082,0.205c-0.102,0.163 -0.123,0.266 -0.123,0.429c0,0.491 0.307,0.819 0.757,0.819c0.471,0 0.88,-0.389 0.88,-0.839c0,-0.757 -0.757,-1.33 -1.78,-1.33c-1.003,0 -1.821,0.45 -2.578,1.412c-0.614,0.818 -1.044,1.759 -1.678,3.764l-1.923,0l-0.143,0.655Z" style="fill-rule:nonzero;"/><path d="M102.161,14.056c1.125,-3.58 1.473,-4.419 2.414,-5.995c0.717,-1.166 1.289,-1.8 1.637,-1.8c0.143,0 0.246,0.082 0.348,0.286c0.164,0.348 0.327,0.45 0.737,0.45c0.613,0 0.961,-0.368 0.961,-1.023c0,-0.654 -0.389,-1.064 -0.961,-1.064c-0.471,0 -1.044,0.307 -1.576,0.88c-0.859,0.86 -1.718,2.108 -2.046,2.906l-0.307,0.757l1.146,-4.502l-0.061,-0.041c-1.494,0.266 -1.719,0.307 -3.213,0.553l0,0.348c0.451,-0.082 0.532,-0.103 0.696,-0.103c0.45,0 0.716,0.205 0.716,0.573c0,0.266 -0.164,1.105 -0.327,1.719l-1.739,6.056l1.575,0Z" style="fill-rule:nonzero;"/></g></svg>