<svg xmlns="http://www.w3.org/2000/svg" viewBox="0 0 662 188.31">
  <defs>
    <style>
      .cls-1 {
        fill: #FF3333;
      }
    </style>
  </defs>
  <g>
    <path class="cls-1" d="M287.55,99.52h14.67a1.45,1.45,0,0,1,1.5,1.51V185.8a1.44,1.44,0,0,1-1.5,1.5H287.55a1.45,1.45,0,0,1-1.51-1.5v-4.14c0-.5-.37-.63-.75-.25a17.17,17.17,0,0,1-14.42,6.9c-11.79,0-20.56-7-24.2-18.31a49.17,49.17,0,0,1-2.13-15.17,47.81,47.81,0,0,1,2.26-15.55c3.63-10.29,11.91-17.43,24.45-17.43,6.39,0,10.91,2.38,14,6.27.38.5.75.25.75-.26V101A1.45,1.45,0,0,1,287.55,99.52Zm-1.63,55.56c0-5.52-.88-9.91-2.76-13.17a9.44,9.44,0,0,0-8.4-4.89,9.73,9.73,0,0,0-8.91,4.89c-2,3.13-3.13,7.65-3.13,13.29a27.75,27.75,0,0,0,2.63,12.54,10.34,10.34,0,0,0,9.28,5.39c3.89,0,6.77-2,8.78-5.39C285,164.73,285.92,160.22,285.92,155.08Z"/>
    <path class="cls-1" d="M371.57,159.09a1.55,1.55,0,0,1-1.63,1.5H331.19c-.38,0-.63.25-.5.63a19.51,19.51,0,0,0,1.38,5c2,4.26,6,7,13.29,7A15.35,15.35,0,0,0,358,166.74c.62-.88,1.25-1,2-.25l9,8.9a1.37,1.37,0,0,1,.13,2.13c-5.65,7-14.93,10.91-25.46,10.79-14.3,0-24.2-7.15-28.47-18.56a40.4,40.4,0,0,1-2.63-15.3,37.55,37.55,0,0,1,1.88-13.29c3.76-11.79,13.92-19.44,27.21-19.44,17.18,0,27.21,11,29.35,26.71A59.71,59.71,0,0,1,371.57,159.09Zm-40.13-14.67a30.73,30.73,0,0,0-.88,4,.59.59,0,0,0,.63.63h21.69c.38,0,.63-.25.51-.63-.26-1.38-.38-2.51-.63-3.51-1.51-5-5.27-7.9-10.91-7.9C336.46,137,333.07,139.65,331.44,144.42Z"/>
    <path class="cls-1" d="M380,169.5a46,46,0,0,1-2.13-14.8A44.19,44.19,0,0,1,380,140.15c4-11.28,14.42-18.3,27.84-18.3,13.79,0,24.45,7.77,27.71,17.68a15.57,15.57,0,0,1,1,4.51,1.36,1.36,0,0,1-1.26,1.63l-14.42,2.13a1.45,1.45,0,0,1-1.76-1.25l-.37-2c-1.13-4.14-5.27-7.52-11-7.52-5.39,0-9.15,2.88-10.65,7.52a31.18,31.18,0,0,0-1.38,10.29,34,34,0,0,0,1.25,10.28,10.71,10.71,0,0,0,10.78,8,11,11,0,0,0,10.91-7.77,1.53,1.53,0,0,0,.13-.75.48.48,0,0,0,.12-.38A1.4,1.4,0,0,1,420.6,163L435,165.23a1.36,1.36,0,0,1,1.25,1.63,21,21,0,0,1-.75,3.51c-3.63,11.29-14.67,17.94-27.71,17.94C394.39,188.31,384.11,181,380,169.5Z"/>
    <path class="cls-1" d="M443.42,105.67a9.91,9.91,0,0,1,19.82,0,9.91,9.91,0,0,1-19.82,0Zm.88,80.13V124.23a1.45,1.45,0,0,1,1.51-1.51h14.67a1.45,1.45,0,0,1,1.5,1.51V185.8a1.44,1.44,0,0,1-1.5,1.5H445.81A1.45,1.45,0,0,1,444.3,185.8Z"/>
    <path class="cls-1" d="M514.27,99.52H529a1.45,1.45,0,0,1,1.5,1.51V185.8a1.44,1.44,0,0,1-1.5,1.5H514.27a1.44,1.44,0,0,1-1.5-1.5v-4.14c0-.5-.38-.63-.75-.25a17.17,17.17,0,0,1-14.42,6.9c-11.79,0-20.57-7-24.21-18.31a49.47,49.47,0,0,1-2.13-15.17,48.08,48.08,0,0,1,2.26-15.55c3.64-10.29,11.91-17.43,24.45-17.43,6.4,0,10.91,2.38,14,6.27.37.5.75.25.75-.26V101A1.45,1.45,0,0,1,514.27,99.52Zm-1.63,55.56c0-5.52-.87-9.91-2.76-13.17a9.42,9.42,0,0,0-8.4-4.89,9.71,9.71,0,0,0-8.9,4.89c-2,3.13-3.13,7.65-3.13,13.29a27.75,27.75,0,0,0,2.63,12.54,10.34,10.34,0,0,0,9.28,5.39c3.89,0,6.77-2,8.78-5.39C511.77,164.73,512.64,160.22,512.64,155.08Z"/>
    <path class="cls-1" d="M540.36,105.67a9.91,9.91,0,1,1,19.81,0,9.91,9.91,0,1,1-19.81,0Zm.88,80.13V124.23a1.45,1.45,0,0,1,1.5-1.51h14.67a1.45,1.45,0,0,1,1.51,1.51V185.8a1.45,1.45,0,0,1-1.51,1.5H542.74A1.44,1.44,0,0,1,541.24,185.8Z"/>
    <path class="cls-1" d="M662,144.29V185.8a1.45,1.45,0,0,1-1.51,1.5H645.82a1.45,1.45,0,0,1-1.51-1.5V148.18c0-6.77-3.76-11.16-9.65-11.16s-9.91,4.26-9.91,11V185.8a1.44,1.44,0,0,1-1.5,1.5H608.7a1.44,1.44,0,0,1-1.5-1.5V148.18c0-6.77-4-11.16-9.91-11.16-5.39,0-9.15,3.38-9.91,9V185.8a1.44,1.44,0,0,1-1.5,1.5H571.21a1.45,1.45,0,0,1-1.51-1.5V124.35a1.45,1.45,0,0,1,1.51-1.5h14.67a1.44,1.44,0,0,1,1.5,1.5v4.89c0,.51.38.76.76.26,3.51-5.27,9-7.65,15.92-7.65,8.4,0,14.8,3.76,18.18,10.15.26.5.51.5.88,0,3.76-7,10.41-10.15,18.06-10.15C654.22,121.85,662,130.12,662,144.29Z"/>
  </g>
  <g>
    <g>
      <path class="cls-1" d="M0,77.49v0A32.32,32.32,0,0,1,32.31,45.13H58.17a6.47,6.47,0,0,1,6.46,6.46V180.84a6.46,6.46,0,0,1-6.46,6.46H32.31A32.32,32.32,0,0,1,0,155V77.49Z"/>
      <rect class="cls-1" x="77.55" width="64.63" height="187.3" rx="6.46" ry="6.46"/>
    </g>
    <path class="cls-1" d="M226.19,155a32.31,32.31,0,1,1-32.31-32.32A32.32,32.32,0,0,1,226.19,155Z"/>
  </g>
</svg>

