<svg xmlns="http://www.w3.org/2000/svg" viewBox="0 0 264.33 191.8"><defs><style>.cls-1{fill:#e2e2e2;}.cls-2{fill:#188db5;}.cls-3{fill:#fff;}.cls-4{fill:#e24b4b;}.cls-5{fill:#21cc41;}.cls-6{fill:#20a9ce;}</style></defs><title>espace-3</title><g id="Calque_2" data-name="Calque 2"><g id="Calque_1-2" data-name="Calque 1"><rect class="cls-1" width="264.33" height="191.8" rx="4" ry="4"/><path class="cls-2" d="M4,0H260.33a4,4,0,0,1,4,4V29.55a0,0,0,0,1,0,0H0a0,0,0,0,1,0,0V4A4,4,0,0,1,4,0Z"/><rect class="cls-3" x="65.11" y="42.72" width="134.12" height="67" rx="2" ry="2"/><circle class="cls-4" cx="250.81" cy="14.77" r="3.94"/><circle class="cls-5" cx="235.04" cy="14.77" r="3.94"/><rect class="cls-1" x="71.24" y="50.88" width="61.5" height="9" rx="2" ry="2"/><rect class="cls-1" x="71.24" y="65.38" width="118.86" height="9" rx="2" ry="2"/><rect class="cls-1" x="71.24" y="79.88" width="100.86" height="9" rx="2" ry="2"/><rect class="cls-1" x="71.24" y="94.38" width="109.73" height="9" rx="2" ry="2"/><rect class="cls-3" x="65.11" y="118.82" width="134.12" height="67" rx="2" ry="2"/><rect class="cls-1" x="71.24" y="126.98" width="61.5" height="9" rx="2" ry="2"/><rect class="cls-1" x="71.24" y="141.48" width="118.86" height="9" rx="2" ry="2"/><rect class="cls-1" x="71.24" y="155.98" width="100.86" height="9" rx="2" ry="2"/><rect class="cls-1" x="71.24" y="170.48" width="109.73" height="9" rx="2" ry="2"/><rect class="cls-3" x="29.33" y="42.72" width="27.33" height="27.33" rx="2" ry="2"/><circle class="cls-6" cx="43" cy="56.38" r="5.51"/><path class="cls-6" d="M34.08,70H51.92a9.53,9.53,0,0,0-17.83,0Z"/><rect class="cls-3" x="29.33" y="118.82" width="27.33" height="27.33" rx="2" ry="2"/><circle class="cls-6" cx="43" cy="132.49" r="5.51"/><path class="cls-6" d="M34.08,146.15H51.92a9.53,9.53,0,0,0-17.83,0Z"/></g></g></svg>