<svg xmlns="http://www.w3.org/2000/svg" viewBox="0 0 264.33 191.8"><defs><style>.cls-1{fill:#e2e2e2;}.cls-2{fill:#188db5;}.cls-3{fill:#21cc41;}.cls-4{fill:#e24b4b;}.cls-5{fill:#fff;}.cls-6{fill:none;}</style></defs><title>espace-2</title><g id="Calque_2" data-name="Calque 2"><g id="Calque_1-2" data-name="Calque 1"><rect class="cls-1" width="264.33" height="191.8" rx="4" ry="4"/><path class="cls-2" d="M4,0H260.33a4,4,0,0,1,4,4V29.55a0,0,0,0,1,0,0H0a0,0,0,0,1,0,0V4A4,4,0,0,1,4,0Z"/><rect class="cls-3" x="109.1" y="163.18" width="46.12" height="18" rx="2" ry="2"/><circle class="cls-4" cx="250.81" cy="14.77" r="3.94"/><circle class="cls-3" cx="235.04" cy="14.77" r="3.94"/><polygon class="cls-5" points="204.63 42.72 59.7 42.72 132.16 94.88 204.63 42.72"/><path class="cls-5" d="M135.42,106.26a5.57,5.57,0,0,1-6.51,0L50.16,49.58V143a4.46,4.46,0,0,0,4.46,4.46H209.71a4.46,4.46,0,0,0,4.46-4.46V49.58Z"/><path class="cls-6" d="M123.16,163.18h18v18h-18Z"/><path class="cls-5" d="M129.76,175.1,126.61,172l-1.05,1,4.2,4.2,9-9-1-1Z"/></g></g></svg>