<svg xmlns="http://www.w3.org/2000/svg" viewBox="0 0 264.33 191.8"><defs><style>.cls-1{fill:#e2e2e2;}.cls-2{fill:#188db5;}.cls-3{fill:#fff;}.cls-4{fill:#21cc41;}.cls-5{fill:#e24b4b;}.cls-6{fill:none;}</style></defs><title>espace-1</title><g id="Calque_2" data-name="Calque 2"><g id="Calque_1-2" data-name="Calque 1"><rect class="cls-1" width="264.33" height="191.8" rx="4" ry="4"/><path class="cls-2" d="M4,0H260.33a4,4,0,0,1,4,4V29.55a0,0,0,0,1,0,0H0a0,0,0,0,1,0,0V4A4,4,0,0,1,4,0Z"/><path class="cls-3" d="M40.66,42.72h183a2,2,0,0,1,2,2V191.8a0,0,0,0,1,0,0h-187a0,0,0,0,1,0,0V44.72A2,2,0,0,1,40.66,42.72Z"/><rect class="cls-1" x="47.62" y="56.72" width="136.83" height="18" rx="2" ry="2"/><rect class="cls-1" x="47.62" y="117.08" width="160.83" height="18" rx="2" ry="2"/><rect class="cls-1" x="47.62" y="86.9" width="84.54" height="18" rx="2" ry="2"/><rect class="cls-4" x="109.1" y="147.26" width="46.12" height="18" rx="2" ry="2"/><circle class="cls-5" cx="250.81" cy="14.77" r="3.94"/><circle class="cls-4" cx="235.04" cy="14.77" r="3.94"/><path class="cls-6" d="M123.16,147.26h18v18h-18Z"/><path class="cls-3" d="M129.76,159.19,126.61,156l-1.05,1,4.2,4.2,9-9-1-1.05Z"/></g></g></svg>