<svg xmlns="http://www.w3.org/2000/svg" viewBox="0 0 80 80"><defs><style>.cls-1{fill:none;}.cls-2{fill:#fff;}</style></defs><title>home-2</title><g id="Calque_2" data-name="Calque 2"><g id="Calque_1-2" data-name="Calque 1"><rect class="cls-1" width="80" height="80"/><path class="cls-2" d="M73.24,0H4A4,4,0,0,0,0,4V56.27a4,4,0,0,0,4,4H73.24a4,4,0,0,0,4-4V4A4,4,0,0,0,73.24,0Zm-4,15.9H18V8H69.24ZM14,8v7.9H8V8ZM8,19.9h6V52.27H8ZM18,52.27V19.9H69.24V52.27Z" transform="translate(1.38 8.11)"/><polygon class="cls-2" points="42.75 48.12 37.03 42.4 32.79 46.64 40.63 54.48 44.87 54.48 59.2 40.16 54.95 35.91 42.75 48.12"/></g></g></svg>