<svg xmlns="http://www.w3.org/2000/svg" viewBox="0 0 80 80"><defs><style>.cls-1{fill:none;}.cls-2{fill:#fff;}</style></defs><title>home-3</title><g id="Calque_2" data-name="Calque 2"><g id="Calque_1-2" data-name="Calque 1"><rect class="cls-1" width="80" height="80"/><path class="cls-2" d="M42,58.78A24.41,24.41,0,0,1,20.2,45.37H37v-8H17.77a23.64,23.64,0,0,1,0-6H37v-8H20.2A24.41,24.41,0,0,1,42,10a24.14,24.14,0,0,1,15,5.14l6.14-7.89A34.05,34.05,0,0,0,42,0,34.44,34.44,0,0,0,9.39,23.41H0v8H7.72c-.08,1-.14,2-.14,3s.05,2,.14,3H0v8H9.39A34.44,34.44,0,0,0,42,68.78a34.05,34.05,0,0,0,21.1-7.25l-6.14-7.89A24.14,24.14,0,0,1,42,58.78Z" transform="translate(8.46 5.61)"/></g></g></svg>