<svg xmlns="http://www.w3.org/2000/svg" viewBox="0 0 80 80"><defs><style>.cls-1{fill:none;}.cls-2{fill:#fff;}</style></defs><title>home-1</title><g id="Calque_2" data-name="Calque 2"><g id="Calque_1-2" data-name="Calque 1"><rect class="cls-1" width="80" height="80"/><path class="cls-2" d="M27.21,75.63h0A27.24,27.24,0,0,1,0,48.42V27.2a27.2,27.2,0,0,1,54.41,0V48.42A27.24,27.24,0,0,1,27.21,75.63ZM27.21,8A19.23,19.23,0,0,0,8,27.2V48.42a19.2,19.2,0,1,0,38.41,0V27.2A19.23,19.23,0,0,0,27.21,8Z" transform="translate(12.8 2.19)"/><path class="cls-2" d="M27.2,39.89a4,4,0,0,1-4-4V22.47a4,4,0,0,1,8,0V35.89A4,4,0,0,1,27.2,39.89Z" transform="translate(12.8 2.19)"/></g></g></svg>