<?xml version="1.0" encoding="UTF-8" standalone="no"?>
<svg width="435px" height="436px" viewBox="0 0 435 436" version="1.1" xmlns="http://www.w3.org/2000/svg" xmlns:xlink="http://www.w3.org/1999/xlink" xmlns:sketch="http://www.bohemiancoding.com/sketch/ns">
    <!-- Generator: Sketch 3.3.3 (12081) - http://www.bohemiancoding.com/sketch -->
    <title>icon-democracyos</title>
    <desc>Created with Sketch.</desc>
    <defs>
        <path id="path-1" d="M0.06,0.95 L434.1,0.95 L434.1,436 L0.06,436 L0.06,0.95 Z"/>
    </defs>
    <g id="Page-1" stroke="none" stroke-width="1" fill="none" fill-rule="evenodd" sketch:type="MSPage">
        <g id="icon-democracyos" sketch:type="MSLayerGroup">
            <path d="M314.3,219 C289.233,215.833 267.167,204.65 248.1,185.45 C229.2,166.65 219.15,143.917 217.95,117.25 C246.483,120.983 268.934,131.467 285.3,148.7 C304.067,168.233 313.733,191.667 314.3,219 L314.3,219 Z M401.9,32.95 C423.367,54.55 434.1,80.133 434.1,109.7 C434.1,139.433 423.367,164.683 401.9,185.45 C390.3,197.45 377.617,206.45 363.85,212.45 C361.317,174.45 346.75,142.117 320.15,115.45 C295.583,90.95 263.383,76.817 223.55,73.05 C228.483,58.183 236.667,44.817 248.1,32.95 C270.367,11.617 296.1,0.95 325.3,0.95 C355.333,0.95 380.867,11.617 401.9,32.95 L401.9,32.95 Z" id="Fill-1" fill="#D9203F" sketch:type="MSShapeGroup"/>
            <g id="Group-6">
                <mask id="mask-2" sketch:name="Clip 3" fill="white">
                    <use xlink:href="#path-1"/>
                </mask>
                <g id="Clip-3"/>
                <path d="M401.9,250 C423.367,271.633 434.1,297.55 434.1,327.75 C434.1,356.85 423.367,381.766 401.9,402.5 C380.867,424.833 355.333,436 325.3,436 C296.1,436 270.367,424.833 248.1,402.5 C238.033,392.4 230.45,381.433 225.35,369.6 C264.684,365.2 296.283,350.933 320.15,326.8 C348.65,298.567 363.217,264.783 363.85,225.45 C377.617,230.617 390.3,238.8 401.9,250 L401.9,250 Z M217,324.8 C217.633,296 228,271.067 248.1,250 C267.167,232.433 289.233,222.383 314.3,219.85 L314.3,221.65 C314.3,250.65 304.633,275.35 285.3,295.75 C268.934,311.917 246.167,321.6 217,324.8 L217,324.8 Z" id="Fill-2" fill="#129285" sketch:type="MSShapeGroup" mask="url(#mask-2)"/>
                <path d="M217,117.25 C215.1,143.917 204.367,166.65 184.8,185.45 C170.767,200.25 154.95,210.133 137.35,215.1 L137.35,116.3 L206.7,116.3 C209.833,116.3 213.267,116.617 217,117.25 L217,117.25 Z M108.25,0.95 C138.317,0.95 163.833,11.617 184.8,32.95 C196.233,44.25 204.733,57.3 210.3,72.1 L206.7,72.1 L86,72.1 L86,217.2 C65.3,212.667 46.983,202.083 31.05,185.45 C10.35,164.683 0,139.433 0,109.7 C0,80.133 10.35,54.55 31.05,32.95 C52.65,11.617 78.383,0.95 108.25,0.95 L108.25,0.95 Z" id="Fill-4" fill="#EEA22D" sketch:type="MSShapeGroup" mask="url(#mask-2)"/>
                <path d="M86,221.65 L86,370.55 L206.7,370.55 L208.5,370.55 C202.8,382.55 194.9,393.2 184.8,402.5 C163.833,424.833 138.317,436 108.25,436 C78.383,436 52.65,424.833 31.05,402.5 C10.35,381.766 0,356.533 0,326.8 C0,297.233 10.35,271.633 31.05,250 C46.983,234.967 65.3,225.516 86,221.65 L86,221.65 Z M217,324.8 C213.9,325.567 210.467,325.95 206.7,325.95 L137.35,325.95 L137.35,222.8 C154.95,227.1 170.767,236.167 184.8,250 C205.567,271.067 216.3,296 217,324.8 L217,324.8 Z" id="Fill-5" fill="#7D4489" sketch:type="MSShapeGroup" mask="url(#mask-2)"/>
            </g>
        </g>
    </g>
</svg>