<svg xmlns="http://www.w3.org/2000/svg" viewBox="0 0 314.29 50"><defs><style>.cls-1{fill:#188db5;}.cls-2{fill:#20a9ce;}</style></defs><title>logo-consultation.gouv</title><g id="Calque_2" data-name="Calque 2"><g id="Calque_1-2" data-name="Calque 1"><path class="cls-1" d="M47.44,26.21a10.13,10.13,0,0,1-3.76.66c-4.85,0-7.8-3.53-7.8-9.17s2.95-9.12,7.8-9.12a10,10,0,0,1,3.71.58l1.12.38a.25.25,0,0,1,.18.33l-.66,2a.25.25,0,0,1-.33.18l-1.14-.38a8.64,8.64,0,0,0-2.87-.43c-3.07,0-4.88,2.41-4.88,6.5s1.8,6.53,4.88,6.53a8.05,8.05,0,0,0,2.9-.46l1.12-.38a.28.28,0,0,1,.36.18l.69,1.91a.24.24,0,0,1-.18.36Z"/><path class="cls-1" d="M67.87,17.7c0,5.64-2.95,9.17-7.72,9.17s-7.72-3.53-7.72-9.17,2.92-9.12,7.72-9.12S67.87,12.08,67.87,17.7Zm-12.53,0c0,4.06,1.78,6.53,4.8,6.53s4.78-2.46,4.78-6.53-1.78-6.5-4.78-6.5S55.35,13.61,55.35,17.7Z"/><path class="cls-1" d="M86.71,26.31a.25.25,0,0,1-.28.28h-3a.37.37,0,0,1-.33-.2,23,23,0,0,0-1.32-2.62l-5.44-9c-.33-.58-.64-1.17-.89-1.7-.15-.28-.41-.18-.36.1a25,25,0,0,1,.23,3.53v9.58a.25.25,0,0,1-.28.28H72.66a.25.25,0,0,1-.28-.28V9.11a.25.25,0,0,1,.28-.28h3A.37.37,0,0,1,76,9a28,28,0,0,0,1.35,2.62l5.44,9c.33.61.64,1.19.89,1.7.13.33.38.2.33-.1a21.24,21.24,0,0,1-.2-3.48V9.11a.25.25,0,0,1,.28-.28h2.31a.25.25,0,0,1,.28.28Z"/><path class="cls-1" d="M95.81,18.33c-3.12-1.17-4.24-2.49-4.24-5,0-3,2.34-4.8,6-4.8a12.69,12.69,0,0,1,4,.64l1.47.48c.18.08.25.2.18.36L102.49,12a.28.28,0,0,1-.36.18l-1.35-.43a10.59,10.59,0,0,0-3.23-.53c-1.83,0-3.07.86-3.07,2.19,0,1,.63,1.78,2.46,2.46l2.82,1c3,1.12,4.32,2.36,4.32,4.9,0,3.28-2.44,5.08-6.38,5.08a14.06,14.06,0,0,1-4.9-.86l-1.32-.43c-.18-.08-.25-.2-.18-.36l.66-2c.08-.15.2-.23.36-.15l1.4.46a12.38,12.38,0,0,0,4,.66c1.88,0,3.46-.71,3.46-2.44,0-1.12-1.09-1.85-2.52-2.39Z"/><path class="cls-1" d="M122,19.45c0,4.7-2.52,7.42-6.83,7.42s-6.83-2.72-6.83-7.42V9.11a.25.25,0,0,1,.28-.28h2.31a.25.25,0,0,1,.28.28V19.45c0,3,1.45,4.78,4,4.78s3.94-1.73,3.94-4.78V9.11a.25.25,0,0,1,.28-.28h2.34a.25.25,0,0,1,.28.28Z"/><path class="cls-1" d="M137.86,24a.25.25,0,0,1,.28.28v2a.25.25,0,0,1-.28.28H127.22a.25.25,0,0,1-.28-.28V9.11a.25.25,0,0,1,.28-.28h2.31a.25.25,0,0,1,.28.28V24Z"/><path class="cls-1" d="M153.77,11.12a.25.25,0,0,1-.28.28h-5.41V26.31a.25.25,0,0,1-.28.28h-2.34a.25.25,0,0,1-.28-.28V11.39h-5.39a.25.25,0,0,1-.28-.28v-2a.25.25,0,0,1,.28-.28h13.69a.25.25,0,0,1,.28.28Z"/><path class="cls-1" d="M158.55,23.18l-1.24,3.18a.3.3,0,0,1-.31.23h-2.44c-.23,0-.3-.13-.23-.33L158.7,15.1a59.2,59.2,0,0,0,2-6,.27.27,0,0,1,.3-.25h3.13a.27.27,0,0,1,.31.23c.53,2,1.22,4,2,6l4.37,11.15c.08.2,0,.33-.23.33h-2.44a.3.3,0,0,1-.3-.23l-1.25-3.18Zm7-2.57-1.35-3.33a35.65,35.65,0,0,1-1.45-4.7c-.08-.28-.36-.28-.41,0a33.5,33.5,0,0,1-1.47,4.7l-1.32,3.33Z"/><path class="cls-1" d="M185.56,11.12a.25.25,0,0,1-.28.28h-5.41V26.31a.25.25,0,0,1-.28.28h-2.34a.25.25,0,0,1-.28-.28V11.39h-5.39a.25.25,0,0,1-.28-.28v-2a.25.25,0,0,1,.28-.28h13.69a.25.25,0,0,1,.28.28Z"/><path class="cls-1" d="M192.65,26.31a.25.25,0,0,1-.28.28h-2.31a.25.25,0,0,1-.28-.28V9.11a.25.25,0,0,1,.28-.28h2.31a.25.25,0,0,1,.28.28Z"/><path class="cls-1" d="M212.62,17.7c0,5.64-2.95,9.17-7.72,9.17s-7.72-3.53-7.72-9.17,2.92-9.12,7.72-9.12S212.62,12.08,212.62,17.7Zm-12.52,0c0,4.06,1.78,6.53,4.8,6.53s4.78-2.46,4.78-6.53-1.78-6.5-4.78-6.5S200.1,13.61,200.1,17.7Z"/><path class="cls-1" d="M231.45,26.31a.25.25,0,0,1-.28.28h-3a.37.37,0,0,1-.33-.2,22.94,22.94,0,0,0-1.32-2.62l-5.44-9c-.33-.58-.64-1.17-.89-1.7-.15-.28-.41-.18-.36.1a25,25,0,0,1,.23,3.53v9.58a.25.25,0,0,1-.28.28H217.4a.25.25,0,0,1-.28-.28V9.11a.25.25,0,0,1,.28-.28h3a.37.37,0,0,1,.33.2,28.41,28.41,0,0,0,1.35,2.62l5.44,9c.33.61.63,1.19.89,1.7.13.33.38.2.33-.1a21.24,21.24,0,0,1-.2-3.48V9.11a.25.25,0,0,1,.28-.28h2.31a.25.25,0,0,1,.28.28Z"/><path class="cls-2" d="M238.8,25.57a1.16,1.16,0,0,1-1.25,1.27,1.14,1.14,0,0,1-1.22-1.27,1.14,1.14,0,0,1,1.22-1.27A1.16,1.16,0,0,1,238.8,25.57Z"/><path class="cls-2" d="M255.44,17.95a.2.2,0,0,1,.23.23v7c0,.15-.05.23-.18.25l-.43.15-1.63.58a9.3,9.3,0,0,1-3.63.63c-4.62,0-7.39-3.43-7.39-9s2.77-9,7.39-9a9.61,9.61,0,0,1,3.66.66l1.07.38a.2.2,0,0,1,.13.28l-.38,1.07a.2.2,0,0,1-.28.13L252.93,11a8.41,8.41,0,0,0-3.12-.53c-3.58,0-5.67,2.77-5.67,7.42s2.08,7.42,5.67,7.42a8.68,8.68,0,0,0,3.07-.51l1.14-.41V19.47h-3.46c-.18,0-.25-.1-.2-.25l.3-1.07a.23.23,0,0,1,.25-.2Z"/><path class="cls-2" d="M275,17.85c0,5.54-2.79,9-7.34,9s-7.37-3.46-7.37-9,2.79-9,7.37-9S275,12.31,275,17.85Zm-13,0c0,4.65,2.08,7.42,5.64,7.42s5.62-2.77,5.62-7.42-2.06-7.42-5.62-7.42S262,13.2,262,17.85Z"/><path class="cls-2" d="M292.59,19.73c0,4.47-2.39,7.11-6.48,7.11s-6.48-2.64-6.48-7.11V9.34a.2.2,0,0,1,.23-.23h1.22a.2.2,0,0,1,.23.23V19.73c0,3.51,1.75,5.54,4.8,5.54s4.8-2,4.8-5.54V9.34a.2.2,0,0,1,.23-.23h1.22a.2.2,0,0,1,.23.23Z"/><path class="cls-2" d="M306.85,21.91a36.34,36.34,0,0,0-1.42,4.47.25.25,0,0,1-.25.2h-1.45a.25.25,0,0,1-.25-.2,36.52,36.52,0,0,0-1.4-4.47L296.84,9.36a.17.17,0,0,1,.18-.25h1.32a.26.26,0,0,1,.28.18l4.75,11.46a19.68,19.68,0,0,1,.94,3.18c0,.23.28.23.3,0a19.7,19.7,0,0,1,.94-3.18l4.75-11.46a.26.26,0,0,1,.28-.18h1.32a.17.17,0,0,1,.18.25Z"/><path class="cls-1" d="M40.14,35.21c2,0,3.25,1.06,3.25,2.83a2.61,2.61,0,0,1-1.86,2.52c-.18.08-.18.15,0,.25a3.26,3.26,0,0,1,1.34,1.63l1,2.38c0,.11,0,.18-.13.18H42.37a.2.2,0,0,1-.18-.11l-.76-1.81a2.53,2.53,0,0,0-2.63-1.91h-1v3.67a.14.14,0,0,1-.15.15H36.36a.14.14,0,0,1-.15-.15V35.36a.14.14,0,0,1,.15-.15Zm-.57,4.57c1.44,0,2.21-.57,2.21-1.64a1.47,1.47,0,0,0-1.64-1.51H37.79v3.15Z"/><path class="cls-1" d="M49.58,45a5.88,5.88,0,0,1-1.43.18c-2.12,0-3.31-1.37-3.31-3.54s1.2-3.54,3.25-3.54c1.68,0,2.7.84,2.7,2.23,0,1.08-.66,1.69-2.06,1.9l-2.2.34a1.48,1.48,0,0,0,1.6,1.2,3.81,3.81,0,0,0,1.11-.14l.62-.15a.14.14,0,0,1,.2.11l.28,1.05a.14.14,0,0,1-.11.2ZM48.5,41c.49-.08.76-.31.76-.67,0-.56-.43-.85-1.19-.85-.92,0-1.56.58-1.67,1.86Zm1.19-6c.14,0,.18.08.1.18L48.47,37a.22.22,0,0,1-.18.1h-1c-.13,0-.17-.07-.11-.18l1-1.81a.18.18,0,0,1,.18-.11Z"/><path class="cls-1" d="M53,38.28a5.24,5.24,0,0,1,1.53-.21c1.89,0,3.05,1,3.05,2.68v4.1a.14.14,0,0,1-.15.15h-.7a.17.17,0,0,1-.18-.13l-.11-.43c-.08-.2-.17-.2-.35,0a2.47,2.47,0,0,1-1.92.74c-1.55,0-2.42-.8-2.42-2.12s.9-2.16,2.55-2.16h1.75V40.8c0-.85-.55-1.32-1.58-1.32a3.84,3.84,0,0,0-1.09.14l-.5.15a.14.14,0,0,1-.2-.11l-.31-1a.15.15,0,0,1,.11-.2Zm1.29,3.82c-.69,0-1,.32-1,.8s.38.88,1.05.88c1.11,0,1.71-.55,1.71-1.58v-.1Z"/><path class="cls-1" d="M61,43.36c0,.24.1.38.28.38h.1c.1,0,.15,0,.2.08l.42,1a.14.14,0,0,1-.07.21,1.71,1.71,0,0,1-.64.13,1.66,1.66,0,0,1-1.83-1.79V35.11a.14.14,0,0,1,.15-.15H60.8a.14.14,0,0,1,.15.15Z"/><path class="cls-1" d="M65.17,44.85A.14.14,0,0,1,65,45H63.77a.14.14,0,0,1-.15-.15V39.59h-.69a.14.14,0,0,1-.15-.15V38.36a.14.14,0,0,1,.15-.15H65a.14.14,0,0,1,.15.15Zm0-9.06a.86.86,0,0,1-.92,1,.95.95,0,0,1,0-1.89A.85.85,0,0,1,65.16,35.78Z"/><path class="cls-1" d="M68.6,42c-1.16-.29-1.71-.9-1.71-1.9,0-1.26.94-2,2.56-2a6.94,6.94,0,0,1,1.74.22l.62.15a.14.14,0,0,1,.11.2l-.29,1.05a.15.15,0,0,1-.2.11l-.62-.17a5.38,5.38,0,0,0-1.36-.17c-.64,0-1,.24-1,.62s.2.52.63.64l1.4.36c1.22.31,1.76.94,1.76,1.95,0,1.32-1,2.12-2.63,2.12a7.83,7.83,0,0,1-2.14-.29l-.55-.15a.14.14,0,0,1-.11-.2l.32-1.05a.14.14,0,0,1,.18-.1l.5.14a7.24,7.24,0,0,0,1.79.24c.69,0,1.08-.27,1.08-.7s-.2-.55-.66-.69Z"/><path class="cls-1" d="M78.11,45a5.88,5.88,0,0,1-1.43.18c-2.12,0-3.31-1.37-3.31-3.54s1.2-3.54,3.25-3.54c1.68,0,2.7.84,2.7,2.23,0,1.08-.66,1.69-2.06,1.9l-2.2.34a1.48,1.48,0,0,0,1.6,1.2,3.81,3.81,0,0,0,1.11-.14l.62-.15a.14.14,0,0,1,.2.11l.28,1.05a.14.14,0,0,1-.11.2ZM77,41c.49-.08.76-.31.76-.67,0-.56-.43-.85-1.19-.85-.92,0-1.56.58-1.67,1.86Z"/><path class="cls-1" d="M85.84,38.32a.17.17,0,0,1,0,.21,9.66,9.66,0,0,0-.63,1l-1.9,3.15a5,5,0,0,1-.53.76c-.07.08,0,.15.07.15h2.8c.11,0,.17.07.13.17l-.31,1.09a.17.17,0,0,1-.18.13H80.65a.18.18,0,0,1-.18-.11.19.19,0,0,1,0-.21,9.36,9.36,0,0,0,.7-1.11L83,40.5a3,3,0,0,1,.53-.77c.08-.1.06-.15-.07-.15H80.72a.14.14,0,0,1-.15-.15V38.36a.14.14,0,0,1,.15-.15h4.92a.23.23,0,0,1,.2.1Z"/><path class="cls-1" d="M95.25,41.69a33.09,33.09,0,0,0-1.08,3.18A.17.17,0,0,1,94,45H92.5a.17.17,0,0,1-.18-.13c-.24-.9-.66-2.09-1.08-3.18l-1.39-3.31c0-.11,0-.18.13-.18h1.3a.2.2,0,0,1,.18.11l1,2.35A14.42,14.42,0,0,1,93.13,43c0,.15.18.15.22,0A11.68,11.68,0,0,1,94,40.67l1-2.35a.2.2,0,0,1,.18-.11h1.3c.11,0,.17.07.13.18Z"/><path class="cls-1" d="M104,41.6c0,2.18-1.23,3.56-3.22,3.56s-3.24-1.37-3.24-3.56,1.23-3.53,3.24-3.53S104,39.44,104,41.6Zm-4.92,0c0,1.34.63,2.14,1.69,2.14s1.68-.8,1.68-2.14-.64-2.13-1.68-2.13S99.09,40.27,99.09,41.6Z"/><path class="cls-1" d="M107.1,42c-1.16-.29-1.71-.9-1.71-1.9,0-1.26.94-2,2.56-2a6.94,6.94,0,0,1,1.74.22l.62.15a.14.14,0,0,1,.11.2l-.29,1.05a.15.15,0,0,1-.2.11l-.62-.17a5.38,5.38,0,0,0-1.36-.17c-.64,0-1,.24-1,.62s.2.52.63.64l1.4.36c1.22.31,1.76.94,1.76,1.95,0,1.32-1,2.12-2.63,2.12a7.83,7.83,0,0,1-2.14-.29l-.55-.15a.14.14,0,0,1-.11-.2l.32-1.05a.14.14,0,0,1,.18-.1l.5.14a7.24,7.24,0,0,0,1.79.24c.69,0,1.08-.27,1.08-.7s-.2-.55-.66-.69Z"/><path class="cls-1" d="M119.41,45a5.16,5.16,0,0,1-1.3.18c-2.14,0-3.32-1.37-3.32-3.56s1.16-3.53,3.36-3.53a4.3,4.3,0,0,1,1.2.17l.6.17a.15.15,0,0,1,.11.2l-.32,1.05a.14.14,0,0,1-.18.1l-.48-.13a3.17,3.17,0,0,0-.94-.15c-1.25,0-1.82.8-1.82,2.12s.6,2.16,1.79,2.16a4.14,4.14,0,0,0,1-.15l.46-.14a.15.15,0,0,1,.2.1l.32,1.05a.14.14,0,0,1-.11.2Z"/><path class="cls-1" d="M127.7,41.6c0,2.18-1.23,3.56-3.22,3.56s-3.24-1.37-3.24-3.56,1.23-3.53,3.24-3.53S127.7,39.44,127.7,41.6Zm-4.92,0c0,1.34.63,2.14,1.69,2.14s1.68-.8,1.68-2.14-.64-2.13-1.68-2.13S122.78,40.27,122.78,41.6Z"/><path class="cls-1" d="M130.38,38.91c.08.17.17.15.32,0a2.51,2.51,0,0,1,1.93-.85,2.4,2.4,0,0,1,2.56,2.65v4.13A.14.14,0,0,1,135,45H133.8a.14.14,0,0,1-.15-.15v-4c0-.88-.46-1.42-1.22-1.42-1,0-1.64.76-1.64,2.12v3.26a.14.14,0,0,1-.15.15h-1.25a.14.14,0,0,1-.15-.15V38.36a.14.14,0,0,1,.15-.15h.7a.15.15,0,0,1,.17.14Z"/><path class="cls-1" d="M138.56,42c-1.16-.29-1.71-.9-1.71-1.9,0-1.26.94-2,2.56-2a6.94,6.94,0,0,1,1.74.22l.62.15a.14.14,0,0,1,.11.2l-.29,1.05a.15.15,0,0,1-.2.11l-.62-.17a5.38,5.38,0,0,0-1.36-.17c-.64,0-1,.24-1,.62s.2.52.63.64l1.4.36c1.22.31,1.76.94,1.76,1.95,0,1.32-1,2.12-2.63,2.12a7.83,7.83,0,0,1-2.14-.29l-.55-.15a.14.14,0,0,1-.11-.2l.32-1.05a.14.14,0,0,1,.18-.1l.5.14a7.24,7.24,0,0,0,1.79.24c.69,0,1.08-.27,1.08-.7s-.2-.55-.66-.69Z"/><path class="cls-1" d="M148.42,44.3c-.08-.17-.17-.15-.32,0a2.51,2.51,0,0,1-1.93.85,2.4,2.4,0,0,1-2.56-2.65V38.36a.14.14,0,0,1,.15-.15H145a.14.14,0,0,1,.15.15v4c0,.88.46,1.41,1.22,1.41,1,0,1.64-.76,1.64-2.12V38.36a.14.14,0,0,1,.15-.15h1.25a.14.14,0,0,1,.15.15v6.49a.14.14,0,0,1-.15.15h-.7a.15.15,0,0,1-.17-.14Z"/><path class="cls-1" d="M153,43.36c0,.24.1.38.28.38h.1c.1,0,.15,0,.2.08l.42,1a.14.14,0,0,1-.07.21,1.71,1.71,0,0,1-.64.13,1.66,1.66,0,0,1-1.83-1.79V35.11a.14.14,0,0,1,.15-.15h1.25a.14.14,0,0,1,.15.15Z"/><path class="cls-1" d="M158.66,38.21a.14.14,0,0,1,.15.15v1.08a.14.14,0,0,1-.15.15h-1.57V43c0,.48.21.74.55.74a1,1,0,0,0,.36-.06c.1,0,.17,0,.21.07l.45,1a.15.15,0,0,1-.07.21,2.08,2.08,0,0,1-1,.24,2,2,0,0,1-2.1-2.16v-3.4h-.69a.14.14,0,0,1-.15-.15V38.36a.14.14,0,0,1,.15-.15h.69V36.6a.16.16,0,0,1,.13-.17l1.25-.42c.11,0,.18,0,.18.13v2.07Z"/><path class="cls-1" d="M161,38.28a5.24,5.24,0,0,1,1.53-.21c1.89,0,3.05,1,3.05,2.68v4.1a.14.14,0,0,1-.15.15h-.7a.17.17,0,0,1-.18-.13l-.11-.43c-.08-.2-.17-.2-.35,0a2.47,2.47,0,0,1-1.92.74c-1.55,0-2.42-.8-2.42-2.12s.9-2.16,2.55-2.16h1.75V40.8c0-.85-.55-1.32-1.58-1.32a3.84,3.84,0,0,0-1.09.14l-.5.15a.14.14,0,0,1-.2-.11l-.31-1a.15.15,0,0,1,.11-.2Zm1.29,3.82c-.69,0-1,.32-1,.8s.38.88,1.05.88c1.11,0,1.71-.55,1.71-1.58v-.1Z"/><path class="cls-1" d="M170.94,38.21a.14.14,0,0,1,.15.15v1.08a.14.14,0,0,1-.15.15h-1.57V43c0,.48.21.74.55.74a1,1,0,0,0,.36-.06c.1,0,.17,0,.21.07l.45,1a.15.15,0,0,1-.07.21,2.08,2.08,0,0,1-1,.24,2,2,0,0,1-2.1-2.16v-3.4h-.69a.14.14,0,0,1-.15-.15V38.36a.14.14,0,0,1,.15-.15h.69V36.6a.16.16,0,0,1,.13-.17l1.25-.42c.11,0,.18,0,.18.13v2.07Z"/><path class="cls-1" d="M174.65,44.85a.14.14,0,0,1-.15.15h-1.25a.14.14,0,0,1-.15-.15V39.59h-.69a.14.14,0,0,1-.15-.15V38.36a.14.14,0,0,1,.15-.15h2.09a.14.14,0,0,1,.15.15Zm0-9.06a.86.86,0,0,1-.92,1,.95.95,0,0,1,0-1.89A.85.85,0,0,1,174.64,35.78Z"/><path class="cls-1" d="M182.65,41.6c0,2.18-1.23,3.56-3.22,3.56s-3.24-1.37-3.24-3.56,1.23-3.53,3.24-3.53S182.65,39.44,182.65,41.6Zm-4.92,0c0,1.34.63,2.14,1.69,2.14s1.68-.8,1.68-2.14-.64-2.13-1.68-2.13S177.73,40.27,177.73,41.6Z"/><path class="cls-1" d="M185.33,38.91c.08.17.17.15.32,0a2.51,2.51,0,0,1,1.93-.85,2.4,2.4,0,0,1,2.56,2.65v4.13A.14.14,0,0,1,190,45h-1.25a.14.14,0,0,1-.15-.15v-4c0-.88-.46-1.42-1.22-1.42-1,0-1.64.76-1.64,2.12v3.26a.14.14,0,0,1-.15.15h-1.25a.14.14,0,0,1-.15-.15V38.36a.14.14,0,0,1,.15-.15h.7a.15.15,0,0,1,.17.14Z"/><path class="cls-1" d="M193.51,42c-1.16-.29-1.71-.9-1.71-1.9,0-1.26.94-2,2.56-2a6.93,6.93,0,0,1,1.74.22l.62.15a.14.14,0,0,1,.11.2l-.29,1.05a.15.15,0,0,1-.2.11l-.62-.17a5.38,5.38,0,0,0-1.36-.17c-.64,0-1,.24-1,.62s.2.52.63.64l1.4.36c1.22.31,1.76.94,1.76,1.95,0,1.32-1,2.12-2.63,2.12a7.83,7.83,0,0,1-2.14-.29l-.55-.15a.14.14,0,0,1-.11-.2l.32-1.05a.14.14,0,0,1,.18-.1l.5.14a7.24,7.24,0,0,0,1.79.24c.69,0,1.08-.27,1.08-.7s-.2-.55-.66-.69Z"/><path class="cls-1" d="M205.93,45a5.88,5.88,0,0,1-1.43.18c-2.12,0-3.31-1.37-3.31-3.54s1.21-3.54,3.25-3.54c1.68,0,2.7.84,2.7,2.23,0,1.08-.66,1.69-2.06,1.9l-2.2.34a1.48,1.48,0,0,0,1.6,1.2,3.81,3.81,0,0,0,1.11-.14l.62-.15a.14.14,0,0,1,.2.11l.28,1.05a.14.14,0,0,1-.11.2Zm-1.08-4c.49-.08.76-.31.76-.67,0-.56-.43-.85-1.19-.85-.92,0-1.55.58-1.67,1.86Z"/><path class="cls-1" d="M209.83,38.91c.08.17.17.15.32,0a2.51,2.51,0,0,1,1.93-.85,2.4,2.4,0,0,1,2.56,2.65v4.13a.14.14,0,0,1-.15.15h-1.25a.14.14,0,0,1-.15-.15v-4c0-.88-.46-1.42-1.22-1.42-1,0-1.64.76-1.64,2.12v3.26a.14.14,0,0,1-.15.15h-1.25a.14.14,0,0,1-.15-.15V38.36a.14.14,0,0,1,.15-.15h.7a.15.15,0,0,1,.17.14Z"/><path class="cls-1" d="M223,38.21a.14.14,0,0,1,.15.15v1.08a.14.14,0,0,1-.15.15h-1.57V43c0,.48.21.74.55.74a1,1,0,0,0,.36-.06c.1,0,.17,0,.21.07l.45,1a.15.15,0,0,1-.07.21,2.08,2.08,0,0,1-1,.24,2,2,0,0,1-2.1-2.16v-3.4h-.69a.14.14,0,0,1-.15-.15V38.36a.14.14,0,0,1,.15-.15h.69V36.6a.16.16,0,0,1,.13-.17l1.25-.42c.11,0,.18,0,.18.13v2.07Z"/><path class="cls-1" d="M230.65,41.6c0,2.18-1.23,3.56-3.22,3.56s-3.24-1.37-3.24-3.56,1.23-3.53,3.24-3.53S230.65,39.44,230.65,41.6Zm-4.92,0c0,1.34.63,2.14,1.7,2.14s1.68-.8,1.68-2.14-.64-2.13-1.68-2.13S225.74,40.27,225.74,41.6Z"/><path class="cls-1" d="M236.94,44.3c-.08-.17-.17-.15-.32,0a2.51,2.51,0,0,1-1.93.85,2.4,2.4,0,0,1-2.56-2.65V38.36a.14.14,0,0,1,.15-.15h1.25a.14.14,0,0,1,.15.15v4c0,.88.46,1.41,1.22,1.41,1,0,1.64-.76,1.64-2.12V38.36a.14.14,0,0,1,.15-.15h1.25a.14.14,0,0,1,.15.15v6.49a.14.14,0,0,1-.15.15h-.7a.15.15,0,0,1-.17-.14Z"/><path class="cls-1" d="M243.57,38.21a.14.14,0,0,1,.15.15v1.08a.14.14,0,0,1-.15.15H242V43c0,.48.21.74.55.74a1,1,0,0,0,.36-.06c.1,0,.17,0,.21.07l.45,1a.15.15,0,0,1-.07.21,2.08,2.08,0,0,1-1,.24,2,2,0,0,1-2.1-2.16v-3.4h-.69a.14.14,0,0,1-.15-.15V38.36a.14.14,0,0,1,.15-.15h.69V36.6a.16.16,0,0,1,.13-.17l1.25-.42c.11,0,.18,0,.18.13v2.07Z"/><path class="cls-1" d="M249.52,45a5.88,5.88,0,0,1-1.43.18c-2.12,0-3.31-1.37-3.31-3.54s1.2-3.54,3.25-3.54c1.68,0,2.7.84,2.7,2.23,0,1.08-.66,1.69-2.06,1.9l-2.2.34a1.48,1.48,0,0,0,1.6,1.2,3.8,3.8,0,0,0,1.11-.14l.62-.15a.14.14,0,0,1,.2.11l.28,1.05a.14.14,0,0,1-.11.2Zm-1.08-4c.49-.08.76-.31.76-.67,0-.56-.43-.85-1.19-.85-.92,0-1.56.58-1.67,1.86Z"/><path class="cls-1" d="M256.75,42c-1.16-.29-1.71-.9-1.71-1.9,0-1.26.94-2,2.56-2a6.93,6.93,0,0,1,1.74.22l.62.15a.14.14,0,0,1,.11.2l-.29,1.05a.15.15,0,0,1-.2.11l-.62-.17a5.38,5.38,0,0,0-1.36-.17c-.64,0-1,.24-1,.62s.2.52.63.64l1.4.36c1.22.31,1.76.94,1.76,1.95,0,1.32-1,2.12-2.63,2.12a7.83,7.83,0,0,1-2.14-.29l-.55-.15a.14.14,0,0,1-.11-.2l.32-1.05a.14.14,0,0,1,.18-.1l.5.14a7.24,7.24,0,0,0,1.79.24c.69,0,1.08-.27,1.08-.7s-.2-.55-.66-.69Z"/><path class="cls-1" d="M263.8,44.85a.14.14,0,0,1-.15.15H262.4a.14.14,0,0,1-.15-.15V39.59h-.69a.14.14,0,0,1-.15-.15V38.36a.14.14,0,0,1,.15-.15h2.09a.14.14,0,0,1,.15.15Zm0-9.06a.86.86,0,0,1-.92,1,.95.95,0,0,1,0-1.89A.85.85,0,0,1,263.79,35.78Z"/><path class="cls-1" d="M266.83,38.89c.08.17.17.17.34,0a2.32,2.32,0,0,1,1.82-.84,2.19,2.19,0,0,1,1.82.94c.18.2.31.15.48,0a2.46,2.46,0,0,1,4.38,1.71v4.13a.14.14,0,0,1-.15.15h-1.26a.14.14,0,0,1-.15-.15v-4c0-.88-.36-1.42-1.11-1.42-1.06,0-1.54.83-1.54,2.12v3.26a.14.14,0,0,1-.15.15H270a.14.14,0,0,1-.15-.15v-4c0-.87-.39-1.4-1.11-1.4-1.08,0-1.54.83-1.54,2.12v3.26a.14.14,0,0,1-.15.15h-1.25a.14.14,0,0,1-.15-.15V38.36a.14.14,0,0,1,.15-.15h.7a.15.15,0,0,1,.17.14Z"/><path class="cls-1" d="M278.63,38.92c.06.15.17.14.27,0a2.48,2.48,0,0,1,2-.87c1.83,0,2.94,1.36,2.94,3.53s-1.18,3.56-3.14,3.56a2.88,2.88,0,0,1-1.27-.27l-.38-.17v3.14a.14.14,0,0,1-.15.15H277.6a.14.14,0,0,1-.15-.15v-9.5a.14.14,0,0,1,.15-.15h.7c.1,0,.15,0,.17.13Zm.78,4.58a2.55,2.55,0,0,0,1.15.24c1.08,0,1.69-.8,1.69-2.14s-.62-2.13-1.65-2.13-1.61.87-1.61,2.09v1.75Z"/><path class="cls-1" d="M286.89,43.36c0,.24.1.38.28.38h.1c.1,0,.15,0,.2.08l.42,1a.14.14,0,0,1-.07.21,1.71,1.71,0,0,1-.64.13,1.66,1.66,0,0,1-1.83-1.79V35.11a.14.14,0,0,1,.15-.15h1.25a.14.14,0,0,1,.15.15Z"/><path class="cls-1" d="M291.1,44.85a.14.14,0,0,1-.15.15H289.7a.14.14,0,0,1-.15-.15V39.59h-.69a.14.14,0,0,1-.15-.15V38.36a.14.14,0,0,1,.15-.15h2.09a.14.14,0,0,1,.15.15Zm0-9.06a.86.86,0,0,1-.92,1,.95.95,0,0,1,0-1.89A.85.85,0,0,1,291.09,35.78Z"/><path class="cls-1" d="M297.26,45a5.16,5.16,0,0,1-1.3.18c-2.14,0-3.32-1.37-3.32-3.56s1.16-3.53,3.36-3.53a4.3,4.3,0,0,1,1.21.17l.6.17a.14.14,0,0,1,.11.2l-.32,1.05a.14.14,0,0,1-.18.1l-.48-.13a3.17,3.17,0,0,0-.94-.15c-1.25,0-1.82.8-1.82,2.12s.6,2.16,1.79,2.16a4.15,4.15,0,0,0,1-.15l.46-.14a.15.15,0,0,1,.2.1l.32,1.05a.15.15,0,0,1-.11.2Z"/><path class="cls-1" d="M301.63,44.85a.14.14,0,0,1-.15.15h-1.25a.14.14,0,0,1-.15-.15V39.59h-.69a.14.14,0,0,1-.15-.15V38.36a.14.14,0,0,1,.15-.15h2.09a.14.14,0,0,1,.15.15Zm0-9.06a.86.86,0,0,1-.92,1,.95.95,0,0,1,0-1.89A.85.85,0,0,1,301.62,35.78Z"/><path class="cls-1" d="M307.12,38.21a.14.14,0,0,1,.15.15v1.08a.14.14,0,0,1-.15.15h-1.57V43c0,.48.21.74.55.74a1,1,0,0,0,.36-.06c.1,0,.17,0,.21.07l.45,1a.15.15,0,0,1-.07.21,2.07,2.07,0,0,1-1,.24A2,2,0,0,1,304,43v-3.4h-.69a.14.14,0,0,1-.15-.15V38.36a.14.14,0,0,1,.15-.15H304V36.6a.16.16,0,0,1,.13-.17l1.25-.42c.11,0,.18,0,.18.13v2.07Z"/><path class="cls-1" d="M313.07,45a5.88,5.88,0,0,1-1.43.18c-2.12,0-3.31-1.37-3.31-3.54s1.21-3.54,3.25-3.54c1.68,0,2.7.84,2.7,2.23,0,1.08-.66,1.69-2.06,1.9l-2.2.34a1.48,1.48,0,0,0,1.6,1.2,3.81,3.81,0,0,0,1.11-.14l.62-.15a.14.14,0,0,1,.2.11l.28,1.05a.14.14,0,0,1-.11.2ZM312,41c.49-.08.76-.31.76-.67,0-.56-.43-.85-1.19-.85-.92,0-1.55.58-1.67,1.86Zm1.19-6c.14,0,.18.08.1.18L312,37a.22.22,0,0,1-.18.1h-1c-.13,0-.17-.07-.11-.18l1-1.81a.18.18,0,0,1,.18-.11Z"/><path class="cls-1" d="M14.44,50A14.46,14.46,0,0,1,0,35.56V14.44a14.44,14.44,0,0,1,28.88,0H24.56a10.11,10.11,0,0,0-20.23,0V35.56a10.11,10.11,0,0,0,20.23,0h4.33A14.46,14.46,0,0,1,14.44,50Z"/><circle class="cls-2" cx="26.72" cy="29.06" r="2.16"/></g></g></svg>