<?xml version="1.0" encoding="utf-8"?>
<!-- Generator: Adobe Illustrator 16.0.0, SVG Export Plug-In . SVG Version: 6.00 Build 0)  -->
<!DOCTYPE svg PUBLIC "-//W3C//DTD SVG 1.1//EN" "http://www.w3.org/Graphics/SVG/1.1/DTD/svg11.dtd">
<svg version="1.1" id="Calque_1" xmlns="http://www.w3.org/2000/svg" xmlns:xlink="http://www.w3.org/1999/xlink" x="0px" y="0px"
	 width="1190.55px" height="841.89px" viewBox="0 0 1190.55 841.89" enable-background="new 0 0 1190.55 841.89"
	 xml:space="preserve">
<g>
	<path fill="#302D7D" d="M114.79,366.125c-25.052-0.382-45.115-21.076-44.729-46.122c0.364-23.859,19.309-43.48,43.118-44.671
		c1.204-0.061,16.662,0.159,16.814,0.16c3.232,0.051,5.81,2.705,5.758,5.937c-0.051,3.231-2.708,5.807-5.938,5.758
		c-1.697-0.027-14.963-0.195-16.127-0.168c-17.595,0.881-31.656,15.452-31.929,33.163c-0.292,18.598,14.615,33.96,33.211,34.246
		c18.592,0.287,33.953-14.609,34.24-33.205l2.125-138.018c0.053-3.232,2.703-5.811,5.937-5.763c3.23,0.051,5.811,2.709,5.761,5.941
		l-2.124,138.018C160.525,346.448,139.828,366.513,114.79,366.125"/>
	<path fill="#302D7D" d="M186.343,367.102c-3.167-0.046-5.685-2.651-5.639-5.812l1.233-79.967c0.045-3.158,2.649-5.686,5.814-5.637
		c3.159,0.05,5.676,2.654,5.632,5.814l-1.228,79.964C192.105,364.629,189.507,367.152,186.343,367.102"/>
	<path fill="#D21B39" d="M218.148,367.477c-3.106-0.046-5.583-2.597-5.535-5.697l2.403-156.104c0.049-3.098,2.6-5.574,5.703-5.528
		c3.094,0.047,5.572,2.6,5.521,5.701l-2.399,156.105C223.795,365.052,221.238,367.524,218.148,367.477"/>
	<path fill="#D21B39" d="M247.105,499.109h-0.013c-3.232-0.058-5.798-2.722-5.743-5.952l3.032-171.083
		c0.25-25.002,20.829-45.18,45.874-44.932c0.087,0,0.168,0.001,0.25,0.004c24.936,0.384,44.978,20.91,44.728,45.875
		c-0.228,23.461-18.721,43.162-42.101,44.859c-1.507,0.104-22.448-0.074-22.644-0.074h-0.03c-3.22-0.05-5.792-2.693-5.756-5.917
		c0.039-3.228,2.684-5.816,5.916-5.782c2.033,0.023,20.236,0.155,21.782,0.095c17.24-1.25,30.964-15.879,31.138-33.297
		c0.184-18.538-14.7-33.78-33.213-34.067c-0.054-0.002-0.122-0.002-0.18-0.002c-18.599-0.183-33.878,14.797-34.07,33.399
		l-3.03,171.131C252.99,496.591,250.333,499.16,247.105,499.109"/>
	<path fill="#302D7D" d="M198.586,257.457c-0.086,5.835-4.882,10.489-10.718,10.4c-5.836-0.093-10.492-4.89-10.403-10.726
		c0.092-5.834,4.891-10.486,10.728-10.396C194.023,246.825,198.677,251.623,198.586,257.457"/>
	<path fill="#D21B39" d="M264.18,253.45l-44.035-0.678c-3.226-0.046-5.814-2.705-5.762-5.933c0.048-3.233,2.715-5.809,5.945-5.758
		l44.03,0.675c3.235,0.052,5.811,2.708,5.763,5.94C270.065,250.925,267.413,253.5,264.18,253.45"/>
	<path fill="#302D7D" d="M286.958,149.87l212.819,80.223l2.544,15.325l2.979,0.048l-2.763-16.688
		c-0.085-0.517-0.438-0.95-0.934-1.135L287.176,146.82c-0.496-0.187-1.057-0.094-1.469,0.255l-32.88,28.059
		c0.609,0.802,1.202,1.581,1.787,2.344L286.958,149.87L286.958,149.87z"/>
	<path fill="#302D7D" d="M460.965,527.809L363.6,612.223l-212.584-78.86l-21.508-129.676l-2.991-0.085l21.739,131.086
		c0.093,0.519,0.443,0.953,0.936,1.135l214.204,79.458c0.16,0.06,0.329,0.088,0.489,0.093c0.355,0.005,0.704-0.119,0.986-0.363
		l100.498-87.131L460.965,527.809L460.965,527.809z"/>
	<path fill="#302D7D" d="M386.376,300.098c2.962,0.045,5.583-0.503,7.857-1.639c2.279-1.144,4.044-2.759,5.3-4.848
		c1.254-2.086,1.902-4.487,1.945-7.207c0.04-2.717-0.531-5.142-1.72-7.268c-1.195-2.125-2.908-3.796-5.147-5.004
		c-2.243-1.213-4.844-1.838-7.808-1.883l-10.169-0.156l-0.424,27.849L386.376,300.098L386.376,300.098z M374.334,269.948
		l12.679,0.195c3.333,0.051,6.276,0.783,8.843,2.198c2.552,1.414,4.538,3.344,5.933,5.793c1.393,2.451,2.073,5.22,2.027,8.307
		c-0.052,3.082-0.811,5.823-2.287,8.231c-1.465,2.407-3.507,4.275-6.104,5.612c-2.607,1.333-5.569,1.977-8.908,1.926l-12.676-0.197
		L374.334,269.948L374.334,269.948z"/>
	<path fill="#302D7D" d="M410.161,278.653l2.295,0.035l-0.37,23.914l-2.292-0.035L410.161,278.653L410.161,278.653z M410.078,272.31
		c-0.367-0.36-0.541-0.797-0.532-1.317c0.008-0.515,0.197-0.957,0.568-1.317c0.375-0.363,0.821-0.539,1.339-0.531
		c0.516,0.008,0.961,0.19,1.318,0.55c0.362,0.357,0.541,0.795,0.534,1.312c-0.006,0.521-0.202,0.959-0.577,1.319
		c-0.371,0.362-0.815,0.533-1.333,0.525C410.88,272.843,410.438,272.666,410.078,272.31L410.078,272.31z"/>
	<path fill="#302D7D" d="M426.593,280.123c1.569-0.908,3.467-1.348,5.693-1.313l-0.036,2.245l-0.542-0.053
		c-2.652-0.042-4.746,0.759-6.262,2.4c-1.531,1.645-2.31,3.947-2.356,6.903l-0.192,12.462l-2.292-0.035l0.37-23.913l2.204,0.035
		l-0.087,5.224C423.857,282.352,425.017,281.029,426.593,280.123L426.593,280.123z"/>
	<path fill="#302D7D" d="M441.494,282.09c-1.359,0.729-2.452,1.763-3.275,3.114c-0.838,1.347-1.324,2.874-1.48,4.582l18.327,0.283
		c-0.063-1.714-0.494-3.248-1.301-4.608c-0.807-1.352-1.876-2.421-3.204-3.208c-1.333-0.785-2.838-1.19-4.518-1.213
		C444.364,281.011,442.847,281.366,441.494,282.09L441.494,282.09z M457.24,291.89l-20.562-0.317c0.021,1.86,0.473,3.522,1.34,4.99
		c0.861,1.461,2.043,2.605,3.545,3.421c1.494,0.818,3.191,1.241,5.086,1.268c1.559,0.024,3.005-0.234,4.343-0.778
		c1.335-0.547,2.454-1.356,3.36-2.45l1.306,1.54c-1.063,1.23-2.375,2.173-3.962,2.823c-1.587,0.645-3.294,0.955-5.121,0.928
		c-2.392-0.039-4.497-0.589-6.346-1.651c-1.844-1.069-3.285-2.527-4.306-4.379c-1.03-1.848-1.521-3.945-1.486-6.301
		c0.034-2.317,0.561-4.396,1.585-6.231c1.015-1.831,2.41-3.251,4.168-4.262c1.752-1.012,3.718-1.5,5.885-1.469
		c2.169,0.035,4.101,0.581,5.818,1.624c1.709,1.051,3.038,2.499,4.009,4.352c0.966,1.844,1.427,3.93,1.394,6.25L457.24,291.89
		L457.24,291.89z"/>
	<path fill="#302D7D" d="M466.338,302.063c-1.818-1.066-3.232-2.53-4.241-4.398c-1.006-1.862-1.495-3.953-1.458-6.277
		c0.035-2.35,0.589-4.441,1.653-6.27c1.066-1.833,2.521-3.248,4.372-4.246c1.854-0.988,3.935-1.47,6.255-1.436
		c1.918,0.032,3.667,0.432,5.227,1.205c1.56,0.771,2.818,1.883,3.775,3.333l-1.717,1.21c-0.837-1.207-1.878-2.111-3.14-2.729
		c-1.253-0.616-2.652-0.934-4.175-0.958c-1.866-0.029-3.546,0.366-5.032,1.182c-1.501,0.818-2.675,1.985-3.54,3.496
		c-0.864,1.519-1.31,3.267-1.334,5.247c-0.036,1.987,0.353,3.755,1.171,5.292c0.818,1.538,1.954,2.742,3.429,3.604
		c1.466,0.862,3.132,1.307,4.996,1.335c1.521,0.022,2.929-0.253,4.204-0.83c1.28-0.575,2.346-1.454,3.224-2.63l1.675,1.265
		c-0.998,1.418-2.292,2.49-3.875,3.212c-1.581,0.725-3.338,1.072-5.256,1.042C470.227,303.676,468.157,303.126,466.338,302.063
		L466.338,302.063z"/>
	<path fill="#302D7D" d="M499.5,302.435c-0.584,0.538-1.319,0.945-2.195,1.224c-0.875,0.277-1.78,0.407-2.728,0.394
		c-2.079-0.033-3.677-0.628-4.785-1.789c-1.111-1.167-1.649-2.767-1.619-4.813l0.243-15.62l-4.4-0.07l0.029-1.972l4.398,0.069
		l0.078-5.222l2.291,0.035l-0.084,5.222l7.614,0.116l-0.032,1.973l-7.613-0.117l-0.232,15.392c-0.025,1.553,0.331,2.748,1.065,3.565
		c0.738,0.822,1.841,1.244,3.302,1.263c1.499,0.025,2.738-0.399,3.73-1.271L499.5,302.435L499.5,302.435z"/>
	<path fill="#302D7D" d="M505.07,280.114l2.289,0.035l-0.368,23.914l-2.285-0.035L505.07,280.114L505.07,280.114z M504.99,273.771
		c-0.365-0.362-0.546-0.798-0.536-1.321c0.005-0.512,0.203-0.954,0.577-1.316c0.364-0.361,0.817-0.537,1.33-0.529
		c0.521,0.008,0.964,0.19,1.323,0.546c0.364,0.361,0.541,0.798,0.535,1.313c-0.012,0.521-0.198,0.959-0.575,1.321
		c-0.371,0.361-0.824,0.536-1.344,0.523C505.788,274.305,505.345,274.125,504.99,273.771L504.99,273.771z"/>
	<path fill="#302D7D" d="M529.831,301.249c1.461-0.825,2.629-2.005,3.489-3.519c0.861-1.509,1.306-3.247,1.341-5.204
		c0.03-1.949-0.366-3.699-1.177-5.24c-0.823-1.538-1.949-2.75-3.387-3.622c-1.434-0.882-3.066-1.333-4.905-1.364
		c-1.831-0.027-3.478,0.375-4.943,1.21c-1.461,0.829-2.627,2.005-3.489,3.521c-0.858,1.513-1.312,3.247-1.341,5.2
		c-0.03,1.957,0.369,3.705,1.181,5.243c0.816,1.539,1.94,2.751,3.378,3.623c1.437,0.88,3.075,1.333,4.901,1.362
		C526.722,302.487,528.364,302.084,529.831,301.249L529.831,301.249z M518.76,302.87c-1.8-1.067-3.205-2.532-4.216-4.4
		c-1.006-1.86-1.496-3.953-1.456-6.277c0.033-2.318,0.581-4.397,1.647-6.228c1.066-1.833,2.517-3.251,4.352-4.263
		c1.833-1.01,3.881-1.496,6.138-1.461c2.261,0.035,4.288,0.583,6.09,1.651c1.805,1.065,3.213,2.527,4.221,4.392
		c1.006,1.862,1.495,3.958,1.455,6.275c-0.032,2.325-0.583,4.402-1.652,6.232c-1.064,1.833-2.511,3.255-4.348,4.266
		c-1.835,1.008-3.877,1.495-6.143,1.457C522.595,304.484,520.559,303.935,518.76,302.87L518.76,302.87z"/>
	<path fill="#302D7D" d="M561.879,283.42c1.708,1.764,2.544,4.277,2.495,7.552l-0.214,13.97l-2.288-0.034l0.213-13.791
		c0.039-2.683-0.61-4.744-1.941-6.17c-1.345-1.424-3.235-2.156-5.681-2.195c-2.803-0.041-5.038,0.766-6.675,2.42
		c-1.645,1.655-2.492,3.904-2.537,6.741l-0.192,12.735l-2.291-0.035l0.368-23.913l2.201,0.033l-0.077,5.179
		c0.847-1.666,2.09-2.96,3.742-3.883c1.652-0.92,3.585-1.368,5.817-1.333C557.818,280.742,560.163,281.65,561.879,283.42
		L561.879,283.42z"/>
	<path fill="#302D7D" d="M583.444,281.319l2.29,0.035l-0.368,23.914l-2.29-0.035L583.444,281.319L583.444,281.319z M583.358,274.978
		c-0.365-0.363-0.535-0.8-0.531-1.321c0.011-0.513,0.198-0.956,0.574-1.315c0.374-0.365,0.819-0.539,1.333-0.531
		c0.52,0.008,0.963,0.19,1.332,0.548c0.36,0.358,0.53,0.796,0.523,1.314c-0.007,0.519-0.192,0.957-0.567,1.319
		c-0.379,0.363-0.825,0.535-1.346,0.527C584.162,275.511,583.725,275.332,583.358,274.978L583.358,274.978z"/>
	<path fill="#302D7D" d="M613.001,284.207c1.712,1.767,2.541,4.278,2.489,7.552l-0.21,13.971l-2.293-0.039l0.215-13.788
		c0.037-2.683-0.607-4.743-1.942-6.171c-1.345-1.424-3.232-2.154-5.669-2.192c-2.815-0.044-5.039,0.764-6.684,2.416
		c-1.648,1.657-2.486,3.907-2.531,6.741l-0.196,12.738l-2.292-0.035l0.367-23.913l2.196,0.035l-0.08,5.173
		c0.854-1.662,2.099-2.957,3.745-3.877c1.656-0.924,3.59-1.37,5.819-1.334C608.937,281.529,611.284,282.437,613.001,284.207
		L613.001,284.207z"/>
	<path fill="#302D7D" d="M635.459,304.527c-0.59,0.539-1.318,0.945-2.196,1.224c-0.874,0.276-1.782,0.407-2.729,0.392
		c-2.078-0.033-3.674-0.627-4.786-1.786c-1.116-1.167-1.651-2.769-1.619-4.817l0.238-15.616l-4.393-0.07l0.027-1.972l4.395,0.07
		l0.08-5.222l2.291,0.035l-0.08,5.218l7.605,0.119l-0.029,1.973l-7.607-0.117l-0.233,15.392c-0.028,1.552,0.329,2.746,1.069,3.565
		c0.732,0.817,1.836,1.244,3.295,1.263c1.503,0.024,2.743-0.399,3.731-1.271L635.459,304.527L635.459,304.527z"/>
	<path fill="#302D7D" d="M644.419,285.216c-1.361,0.727-2.453,1.763-3.278,3.109c-0.833,1.349-1.326,2.875-1.47,4.584l18.322,0.281
		c-0.072-1.71-0.502-3.245-1.302-4.605c-0.81-1.354-1.871-2.421-3.202-3.208c-1.335-0.787-2.848-1.191-4.523-1.217
		C647.286,284.133,645.773,284.487,644.419,285.216L644.419,285.216z M660.161,295.011l-20.566-0.317
		c0.034,1.863,0.483,3.525,1.35,4.99c0.856,1.465,2.049,2.606,3.542,3.423c1.495,0.819,3.197,1.24,5.092,1.27
		c1.55,0.022,3.002-0.235,4.338-0.782c1.34-0.543,2.453-1.353,3.363-2.446l1.299,1.535c-1.059,1.234-2.375,2.177-3.958,2.824
		c-1.589,0.647-3.289,0.958-5.122,0.927c-2.385-0.033-4.498-0.587-6.342-1.649c-1.852-1.068-3.285-2.526-4.314-4.379
		c-1.022-1.846-1.519-3.947-1.482-6.299c0.033-2.321,0.563-4.398,1.583-6.23c1.023-1.833,2.413-3.252,4.17-4.263
		c1.751-1.014,3.716-1.503,5.883-1.469c2.17,0.033,4.108,0.578,5.825,1.624c1.703,1.05,3.038,2.498,4.006,4.348
		c0.965,1.848,1.432,3.934,1.391,6.253L660.161,295.011L660.161,295.011z"/>
	<path fill="#302D7D" d="M671.977,283.898c1.571-0.909,3.465-1.347,5.702-1.312l-0.036,2.244l-0.55-0.054
		c-2.66-0.039-4.747,0.759-6.271,2.4c-1.52,1.646-2.308,3.951-2.355,6.903l-0.189,12.462l-2.287-0.033l0.369-23.914l2.192,0.035
		l-0.077,5.223C669.236,286.124,670.398,284.803,671.977,283.898L671.977,283.898z"/>
	<path fill="#302D7D" d="M719.569,285.846c1.668,1.765,2.475,4.28,2.424,7.548l-0.212,13.973l-2.295-0.035l0.215-13.789
		c0.041-2.688-0.585-4.746-1.875-6.171c-1.293-1.422-3.118-2.155-5.46-2.189c-2.688-0.042-4.833,0.768-6.437,2.422
		c-1.597,1.654-2.416,3.904-2.461,6.739l-0.196,12.737l-2.29-0.034l0.213-13.788c0.043-2.685-0.584-4.743-1.879-6.171
		c-1.287-1.424-3.11-2.155-5.458-2.191c-2.699-0.043-4.835,0.767-6.431,2.422c-1.601,1.659-2.424,3.906-2.466,6.742l-0.2,12.736
		l-2.29-0.035l0.368-23.912l2.205,0.031l-0.081,5.132c0.823-1.664,2.023-2.954,3.615-3.861c1.583-0.907,3.46-1.344,5.626-1.31
		c2.168,0.031,4.004,0.55,5.503,1.549c1.494,1.004,2.55,2.454,3.157,4.36c0.82-1.759,2.092-3.15,3.799-4.162
		c1.711-1.011,3.699-1.499,5.956-1.466C715.587,283.17,717.9,284.075,719.569,285.846L719.569,285.846z"/>
	<path fill="#302D7D" d="M730.438,283.583l2.293,0.034l-0.37,23.911l-2.291-0.036L730.438,283.583L730.438,283.583z
		 M730.352,277.239c-0.362-0.363-0.541-0.798-0.533-1.321c0.01-0.516,0.207-0.956,0.573-1.314c0.375-0.364,0.822-0.539,1.334-0.531
		c0.517,0.008,0.961,0.19,1.323,0.546c0.363,0.356,0.539,0.798,0.53,1.313c-0.004,0.519-0.201,0.959-0.569,1.319
		c-0.373,0.362-0.823,0.533-1.342,0.525C731.159,277.77,730.716,277.593,730.352,277.239L730.352,277.239z"/>
	<path fill="#302D7D" d="M759.988,286.465c1.709,1.768,2.546,4.282,2.495,7.553l-0.214,13.972l-2.293-0.034l0.218-13.791
		c0.039-2.685-0.608-4.743-1.941-6.171c-1.348-1.424-3.233-2.155-5.673-2.193c-2.816-0.045-5.044,0.761-6.68,2.416
		c-1.648,1.658-2.495,3.906-2.536,6.743l-0.198,12.735l-2.287-0.035l0.368-23.912l2.192,0.034l-0.075,5.176
		c0.854-1.667,2.102-2.961,3.752-3.879c1.644-0.922,3.584-1.368,5.813-1.333C755.926,283.788,758.273,284.698,759.988,286.465
		L759.988,286.465z"/>
	<path fill="#302D7D" d="M770.928,284.202l2.292,0.037l-0.365,23.913l-2.294-0.037L770.928,284.202L770.928,284.202z
		 M770.848,277.863c-0.362-0.364-0.542-0.802-0.532-1.321c0.008-0.515,0.197-0.955,0.573-1.318c0.374-0.36,0.815-0.537,1.334-0.526
		c0.522,0.005,0.959,0.186,1.32,0.546c0.364,0.358,0.539,0.794,0.531,1.314c-0.01,0.519-0.195,0.957-0.569,1.321
		c-0.376,0.361-0.822,0.531-1.337,0.523C771.647,278.394,771.21,278.216,770.848,277.863L770.848,277.863z"/>
	<path fill="#302D7D" d="M781.934,307.604c-1.735-0.605-3.081-1.361-4.046-2.264l1.086-1.817c0.967,0.845,2.213,1.549,3.741,2.12
		c1.538,0.575,3.144,0.875,4.821,0.902c2.414,0.039,4.2-0.335,5.354-1.112c1.167-0.772,1.748-1.864,1.769-3.269
		c0.016-1.009-0.282-1.807-0.899-2.395c-0.618-0.59-1.376-1.03-2.287-1.321c-0.918-0.292-2.183-0.599-3.79-0.924
		c-1.894-0.364-3.414-0.759-4.568-1.176c-1.153-0.415-2.137-1.067-2.947-1.964c-0.81-0.901-1.202-2.128-1.183-3.688
		c0.032-1.893,0.842-3.445,2.427-4.66c1.596-1.213,3.844-1.795,6.742-1.749c1.534,0.021,3.04,0.259,4.526,0.71
		c1.495,0.452,2.699,1.033,3.638,1.75l-1.078,1.814c-0.967-0.711-2.076-1.268-3.32-1.651c-1.248-0.387-2.523-0.591-3.837-0.61
		c-2.229-0.035-3.915,0.351-5.059,1.161c-1.14,0.804-1.728,1.881-1.75,3.224c-0.014,1.071,0.296,1.91,0.928,2.511
		c0.631,0.606,1.413,1.063,2.339,1.368c0.929,0.306,2.229,0.639,3.896,0.996c1.861,0.363,3.361,0.749,4.502,1.149
		c1.144,0.401,2.095,1.033,2.878,1.901c0.785,0.866,1.156,2.046,1.136,3.545c-0.03,1.986-0.876,3.558-2.545,4.725
		c-1.674,1.162-3.999,1.724-6.99,1.678C785.491,308.528,783.665,308.211,781.934,307.604L781.934,307.604z"/>
	<path fill="#302D7D" d="M814.013,307.275c-0.585,0.539-1.318,0.945-2.195,1.224c-0.876,0.275-1.779,0.407-2.728,0.392
		c-2.081-0.032-3.674-0.628-4.791-1.789c-1.109-1.167-1.649-2.769-1.62-4.813l0.241-15.621l-4.395-0.068l0.027-1.972l4.396,0.068
		l0.08-5.222l2.298,0.035l-0.086,5.223l7.608,0.118l-0.027,1.972l-7.609-0.118l-0.234,15.392c-0.024,1.554,0.334,2.748,1.063,3.565
		c0.733,0.821,1.837,1.243,3.309,1.265c1.489,0.023,2.731-0.403,3.727-1.275L814.013,307.275L814.013,307.275z"/>
	<path fill="#302D7D" d="M831.448,275.834l3.292,0.052l-7.267,5.297l-2.481-0.041L831.448,275.834L831.448,275.834z
		 M822.965,287.961c-1.356,0.728-2.447,1.763-3.272,3.112c-0.833,1.346-1.323,2.873-1.474,4.584l18.32,0.279
		c-0.059-1.713-0.497-3.245-1.305-4.606c-0.803-1.352-1.863-2.421-3.201-3.207c-1.325-0.787-2.836-1.191-4.521-1.216
		C825.839,286.88,824.326,287.233,822.965,287.961L822.965,287.961z M838.711,297.759l-20.569-0.319
		c0.035,1.864,0.484,3.526,1.35,4.993c0.863,1.463,2.045,2.604,3.541,3.42c1.493,0.822,3.196,1.242,5.095,1.271
		c1.555,0.022,3-0.237,4.336-0.784c1.342-0.544,2.462-1.354,3.364-2.445l1.306,1.535c-1.063,1.232-2.383,2.178-3.967,2.825
		c-1.578,0.647-3.289,0.953-5.115,0.93c-2.393-0.039-4.496-0.593-6.349-1.655c-1.852-1.065-3.283-2.522-4.308-4.375
		c-1.028-1.848-1.52-3.949-1.484-6.304c0.039-2.315,0.566-4.395,1.58-6.228c1.026-1.833,2.409-3.25,4.174-4.262
		c1.755-1.011,3.721-1.503,5.882-1.468c2.171,0.035,4.109,0.577,5.825,1.623c1.707,1.05,3.044,2.498,4.008,4.35
		c0.961,1.846,1.426,3.931,1.39,6.25L838.711,297.759L838.711,297.759z"/>
	<path fill="#302D7D" d="M850.522,286.644c1.571-0.907,3.474-1.344,5.7-1.309l-0.032,2.244l-0.549-0.054
		c-2.66-0.042-4.748,0.759-6.271,2.401c-1.523,1.644-2.311,3.946-2.356,6.902l-0.188,12.462l-2.288-0.035l0.369-23.911l2.199,0.033
		l-0.081,5.224C847.785,288.874,848.952,287.551,850.522,286.644L850.522,286.644z"/>
	<path fill="#302D7D" d="M861.395,285.598l2.295,0.035l-0.371,23.908l-2.29-0.03L861.395,285.598L861.395,285.598z M861.311,279.254
		c-0.362-0.364-0.536-0.8-0.527-1.321c0.005-0.516,0.194-0.954,0.569-1.314c0.378-0.364,0.819-0.538,1.335-0.531
		c0.523,0.008,0.963,0.188,1.319,0.546c0.366,0.356,0.545,0.794,0.536,1.314c-0.009,0.519-0.199,0.957-0.572,1.319
		c-0.371,0.362-0.815,0.536-1.34,0.525C862.113,279.785,861.675,279.608,861.311,279.254L861.311,279.254z"/>
	<path fill="#302D7D" d="M876.472,288.785c-1.356,0.727-2.453,1.761-3.287,3.111c-0.825,1.347-1.315,2.874-1.464,4.583l18.328,0.281
		c-0.069-1.71-0.502-3.245-1.302-4.605c-0.813-1.352-1.87-2.421-3.203-3.207c-1.335-0.789-2.85-1.191-4.524-1.218
		C879.344,287.702,877.83,288.058,876.472,288.785L876.472,288.785z M892.213,298.581l-20.563-0.316
		c0.031,1.862,0.48,3.522,1.348,4.991c0.866,1.463,2.041,2.604,3.541,3.421c1.503,0.814,3.197,1.24,5.09,1.268
		c1.559,0.026,3.01-0.237,4.339-0.782c1.342-0.543,2.463-1.356,3.366-2.444l1.302,1.535c-1.064,1.234-2.382,2.176-3.966,2.822
		c-1.58,0.647-3.287,0.958-5.117,0.93c-2.384-0.038-4.495-0.589-6.342-1.652c-1.854-1.067-3.287-2.524-4.313-4.377
		c-1.022-1.848-1.521-3.948-1.484-6.3c0.04-2.318,0.568-4.394,1.591-6.228c1.02-1.834,2.405-3.255,4.167-4.266
		c1.756-1.012,3.711-1.5,5.884-1.468c2.165,0.035,4.106,0.577,5.813,1.623c1.711,1.051,3.044,2.498,4.015,4.353
		c0.964,1.844,1.428,3.929,1.394,6.25L892.213,298.581L892.213,298.581z"/>
	<polygon fill="#302D7D" points="898.565,276.088 900.851,276.123 900.328,310.111 898.04,310.076 898.565,276.088 	"/>
	<polygon fill="#302D7D" points="909.374,276.255 911.658,276.29 911.139,310.281 908.851,310.243 909.374,276.255 	"/>
	<path fill="#302D7D" d="M924.291,289.521c-1.351,0.727-2.449,1.763-3.274,3.111c-0.833,1.345-1.329,2.874-1.477,4.583l18.33,0.283
		c-0.071-1.712-0.501-3.247-1.307-4.607c-0.806-1.354-1.875-2.421-3.202-3.207c-1.33-0.787-2.841-1.191-4.519-1.218
		C927.167,288.441,925.651,288.795,924.291,289.521L924.291,289.521z M940.039,299.315l-20.568-0.314
		c0.029,1.86,0.479,3.525,1.348,4.989c0.856,1.464,2.046,2.606,3.543,3.421c1.5,0.816,3.197,1.243,5.086,1.273
		c1.556,0.021,3.007-0.24,4.338-0.787c1.34-0.542,2.46-1.353,3.364-2.444l1.307,1.534c-1.064,1.234-2.383,2.18-3.966,2.824
		c-1.581,0.647-3.288,0.958-5.12,0.929c-2.386-0.037-4.501-0.587-6.343-1.649c-1.849-1.071-3.286-2.526-4.309-4.379
		c-1.024-1.848-1.519-3.946-1.485-6.301c0.042-2.319,0.563-4.398,1.582-6.227c1.025-1.834,2.41-3.256,4.169-4.266
		c1.764-1.011,3.72-1.502,5.891-1.469c2.163,0.036,4.102,0.581,5.813,1.624c1.708,1.053,3.043,2.5,4.01,4.348
		c0.969,1.849,1.432,3.934,1.397,6.255L940.039,299.315L940.039,299.315z"/>
	<path fill="#302D7D" d="M970.808,308.034c1.461-0.829,2.626-2.007,3.49-3.519c0.863-1.511,1.31-3.249,1.338-5.206
		c0.029-1.951-0.361-3.699-1.174-5.237c-0.826-1.541-1.949-2.752-3.388-3.628c-1.429-0.876-3.071-1.331-4.904-1.36
		c-1.831-0.027-3.48,0.374-4.943,1.21c-1.455,0.832-2.626,2.006-3.49,3.517c-0.858,1.515-1.306,3.252-1.336,5.201
		c-0.032,1.958,0.363,3.708,1.178,5.247c0.814,1.536,1.949,2.748,3.375,3.622c1.438,0.882,3.081,1.333,4.908,1.361
		C967.694,309.271,969.346,308.867,970.808,308.034L970.808,308.034z M978.267,277.313l-0.524,33.993l-2.244-0.035l0.088-5.637
		c-0.979,1.851-2.324,3.27-4.052,4.25c-1.73,0.976-3.674,1.453-5.841,1.417c-2.23-0.035-4.241-0.585-6.023-1.646
		c-1.785-1.07-3.173-2.523-4.172-4.375c-0.992-1.849-1.475-3.947-1.435-6.302c0.034-2.35,0.579-4.44,1.627-6.27
		c1.056-1.834,2.492-3.249,4.306-4.243c1.819-0.992,3.839-1.477,6.073-1.442c2.134,0.033,4.044,0.57,5.729,1.597
		c1.668,1.039,2.99,2.464,3.935,4.28l0.243-15.62L978.267,277.313L978.267,277.313z"/>
	<path fill="#302D7D" d="M990.896,290.546c-1.359,0.725-2.452,1.764-3.277,3.111c-0.836,1.345-1.327,2.874-1.478,4.58l18.326,0.283
		c-0.066-1.711-0.501-3.245-1.301-4.605c-0.806-1.356-1.872-2.422-3.211-3.206c-1.328-0.787-2.837-1.193-4.518-1.22
		C993.764,289.465,992.243,289.817,990.896,290.546L990.896,290.546z M1006.639,300.34l-20.57-0.315
		c0.037,1.86,0.481,3.522,1.344,4.991c0.861,1.464,2.051,2.605,3.544,3.422c1.506,0.817,3.202,1.241,5.094,1.27
		c1.556,0.024,3.003-0.237,4.344-0.782c1.333-0.544,2.457-1.355,3.353-2.445l1.307,1.534c-1.056,1.234-2.375,2.179-3.958,2.824
		c-1.585,0.645-3.294,0.956-5.131,0.928c-2.375-0.034-4.488-0.587-6.338-1.65c-1.847-1.07-3.282-2.525-4.306-4.379
		c-1.024-1.848-1.522-3.945-1.482-6.301c0.036-2.318,0.562-4.396,1.576-6.227c1.029-1.833,2.411-3.254,4.172-4.265
		c1.757-1.013,3.719-1.501,5.881-1.467c2.172,0.032,4.109,0.578,5.822,1.622c1.708,1.052,3.05,2.498,4.014,4.35
		c0.966,1.844,1.427,3.932,1.391,6.253L1006.639,300.34L1006.639,300.34z"/>
	<polygon fill="#302D7D" points="1023.61,278.012 1025.899,278.049 1025.376,312.035 1023.088,312.002 1023.61,278.012 	"/>
	<path fill="#302D7D" d="M1045.794,309.278c1.398-0.89,2.468-2.205,3.194-3.933l0.072-4.49l-8.156-0.126
		c-2.355-0.035-4.056,0.368-5.129,1.202c-1.064,0.84-1.608,2.011-1.63,3.506c-0.023,1.554,0.532,2.795,1.68,3.713
		c1.15,0.92,2.776,1.395,4.878,1.428C1042.692,310.607,1044.383,310.175,1045.794,309.278L1045.794,309.278z M1049.129,290.57
		c1.561,1.538,2.323,3.77,2.279,6.704l-0.235,15.161l-2.198-0.037l0.069-4.257c-0.791,1.394-1.927,2.471-3.401,3.222
		c-1.476,0.756-3.244,1.12-5.285,1.087c-2.658-0.041-4.747-0.701-6.27-1.974c-1.523-1.275-2.267-2.937-2.236-4.982
		c0.031-1.982,0.767-3.584,2.202-4.801c1.439-1.217,3.715-1.794,6.83-1.745l8.2,0.123l0.027-1.925
		c0.04-2.232-0.539-3.934-1.733-5.111c-1.182-1.183-2.934-1.791-5.257-1.827c-1.594-0.023-3.117,0.23-4.569,0.757
		c-1.463,0.527-2.703,1.24-3.728,2.143l-1.114-1.666c1.207-1.053,2.65-1.864,4.346-2.433c1.689-0.567,3.444-0.839,5.277-0.813
		C1045.293,288.242,1047.56,289.035,1049.129,290.57L1049.129,290.57z"/>
	<path fill="#302D7D" d="M393.719,367.606c-0.974,0.705-2.174,1.224-3.589,1.559c-1.415,0.335-2.907,0.495-4.461,0.471
		c-4.047-0.062-7.154-1.146-9.34-3.244c-2.177-2.098-3.238-5.15-3.176-9.148l0.214-13.97l-5.246-0.082l0.112-7.584l5.25,0.082
		l0.128-8.278l9.858,0.153l-0.127,8.276l8.47,0.128l-0.114,7.584l-8.475-0.127l-0.214,13.84c-0.023,1.433,0.336,2.542,1.055,3.334
		c0.728,0.793,1.767,1.199,3.115,1.219c1.557,0.024,2.889-0.379,3.997-1.205L393.719,367.606L393.719,367.606z"/>
	<path fill="#302D7D" d="M412.387,336.287c2.012-0.812,4.323-1.197,6.934-1.156l-0.14,9.1c-1.087-0.101-1.829-0.155-2.205-0.163
		c-2.821-0.042-5.049,0.713-6.674,2.269c-1.625,1.556-2.463,3.912-2.513,7.074l-0.244,16.054l-9.858-0.153l0.521-34.001l9.415,0.146
		l-0.069,4.483C408.759,338.32,410.371,337.099,412.387,336.287L412.387,336.287z"/>
	<path fill="#302D7D" d="M440.45,362.669c1.319-0.756,2.265-1.891,2.837-3.399l0.054-3.476l-6.763-0.105
		c-4.043-0.062-6.086,1.228-6.13,3.885c-0.021,1.269,0.465,2.274,1.443,3.024c0.977,0.756,2.329,1.145,4.059,1.17
		C437.625,363.792,439.135,363.429,440.45,362.669L440.45,362.669z M449.22,339.353c2.778,2.55,4.139,6.353,4.057,11.408
		l-0.295,19.405l-9.225-0.145l0.062-4.235c-1.907,3.136-5.384,4.66-10.439,4.583c-2.608-0.041-4.866-0.518-6.772-1.434
		c-1.906-0.911-3.349-2.157-4.339-3.734c-0.983-1.572-1.457-3.347-1.43-5.328c0.051-3.164,1.277-5.633,3.686-7.412
		c2.404-1.765,6.099-2.619,11.067-2.542l7.837,0.119c0.034-2.148-0.598-3.808-1.877-4.987c-1.292-1.18-3.245-1.792-5.858-1.831
		c-1.809-0.031-3.597,0.232-5.351,0.77c-1.756,0.544-3.256,1.288-4.49,2.24l-3.431-6.943c1.868-1.277,4.106-2.255,6.713-2.926
		c2.601-0.687,5.264-1,8.009-0.958C442.41,335.485,446.438,336.803,449.22,339.353L449.22,339.353z"/>
	<path fill="#302D7D" d="M491.662,340.035c2.551,2.569,3.788,6.343,3.709,11.309l-0.298,19.467l-9.86-0.149l0.277-17.952
		c0.037-2.697-0.519-4.716-1.678-6.06c-1.152-1.344-2.855-2.039-5.09-2.074c-2.484-0.039-4.475,0.702-5.973,2.217
		c-1.498,1.515-2.274,3.79-2.32,6.824l-0.26,16.812l-9.855-0.153l0.521-34l9.417,0.147l-0.06,3.978
		c1.327-1.413,2.964-2.494,4.916-3.244c1.951-0.747,4.083-1.105,6.407-1.067C485.723,336.151,489.103,337.469,491.662,340.035
		L491.662,340.035z"/>
	<path fill="#302D7D" d="M505.572,370.433c-2.684-0.732-4.826-1.642-6.403-2.718l3.391-7.03c1.503,0.993,3.324,1.811,5.466,2.456
		c2.137,0.649,4.241,0.986,6.305,1.017c4.166,0.063,6.275-0.938,6.304-3.001c0.016-0.971-0.548-1.672-1.676-2.118
		c-1.133-0.433-2.871-0.822-5.229-1.153c-2.772-0.463-5.066-0.986-6.869-1.556c-1.801-0.573-3.355-1.571-4.66-2.981
		c-1.303-1.413-1.942-3.401-1.901-5.969c0.033-2.151,0.689-4.05,1.956-5.693c1.264-1.643,3.096-2.91,5.498-3.806
		c2.389-0.889,5.204-1.309,8.454-1.259c2.402,0.039,4.787,0.342,7.162,0.899c2.368,0.562,4.328,1.322,5.875,2.271l-3.394,6.97
		c-2.966-1.73-6.22-2.624-9.761-2.68c-2.104-0.033-3.688,0.236-4.751,0.816c-1.07,0.57-1.605,1.319-1.62,2.245
		c-0.017,1.054,0.545,1.799,1.679,2.237c1.128,0.438,2.937,0.871,5.41,1.286c2.78,0.51,5.047,1.039,6.813,1.588
		c1.754,0.558,3.282,1.538,4.566,2.95c1.286,1.406,1.905,3.355,1.868,5.846c-0.032,2.108-0.693,3.968-1.979,5.592
		c-1.291,1.626-3.151,2.871-5.588,3.742c-2.436,0.867-5.321,1.277-8.649,1.223C511.012,371.562,508.256,371.171,505.572,370.433
		L505.572,370.433z"/>
	<path fill="#302D7D" d="M545.703,338.337l8.723,0.138l-0.118,7.581l-8.471-0.127l-0.398,25.657l-9.847-0.15l0.391-25.657
		l-5.253-0.083l0.123-7.581l5.249,0.08l0.022-1.519c0.061-3.875,1.246-6.938,3.581-9.175c2.334-2.239,5.58-3.327,9.757-3.264
		c1.467,0.023,2.875,0.206,4.191,0.538c1.329,0.334,2.421,0.809,3.3,1.412l-2.702,7.103c-1.129-0.822-2.446-1.236-3.966-1.26
		c-2.989-0.049-4.511,1.568-4.56,4.858L545.703,338.337L545.703,338.337z"/>
	<path fill="#302D7D" d="M579.379,361.962c1.647-1.68,2.496-3.955,2.543-6.822c0.042-2.862-0.737-5.159-2.329-6.894
		c-1.599-1.728-3.662-2.618-6.185-2.656c-2.533-0.039-4.634,0.789-6.304,2.466c-1.659,1.683-2.523,3.957-2.568,6.817
		c-0.045,2.867,0.75,5.165,2.357,6.897c1.616,1.732,3.693,2.617,6.225,2.659C575.644,364.466,577.731,363.643,579.379,361.962
		L579.379,361.962z M563.387,370.122c-2.824-1.538-5.013-3.648-6.572-6.33c-1.566-2.673-2.318-5.7-2.262-9.076
		c0.049-3.367,0.896-6.368,2.539-8.994c1.643-2.635,3.894-4.671,6.762-6.125c2.872-1.45,6.098-2.15,9.677-2.093
		c3.578,0.054,6.766,0.849,9.571,2.386c2.801,1.545,4.972,3.648,6.542,6.332c1.56,2.674,2.31,5.702,2.255,9.069
		c-0.05,3.374-0.893,6.376-2.536,9.002c-1.649,2.629-3.881,4.673-6.733,6.125c-2.846,1.453-6.062,2.152-9.637,2.098
		C569.411,372.463,566.212,371.663,563.387,370.122L563.387,370.122z"/>
	<path fill="#302D7D" d="M611.34,339.351c2.008-0.816,4.323-1.199,6.937-1.157l-0.139,9.099c-1.098-0.101-1.835-0.157-2.211-0.163
		c-2.827-0.041-5.047,0.713-6.669,2.271c-1.636,1.555-2.465,3.914-2.515,7.072l-0.246,16.055l-9.862-0.151l0.527-34.004l9.416,0.147
		l-0.073,4.483C607.714,341.379,609.322,340.159,611.34,339.351L611.34,339.351z"/>
	<path fill="#302D7D" d="M676.209,342.843c2.463,2.547,3.658,6.323,3.581,11.339l-0.298,19.464l-9.86-0.151l0.277-17.949
		c0.04-2.697-0.487-4.716-1.581-6.06c-1.1-1.342-2.68-2.034-4.743-2.066c-2.314-0.035-4.16,0.685-5.534,2.163
		c-1.371,1.47-2.084,3.688-2.124,6.634l-0.264,17.065l-9.854-0.151l0.277-17.95c0.08-5.352-2.031-8.062-6.33-8.125
		c-2.271-0.037-4.101,0.686-5.469,2.159c-1.367,1.476-2.081,3.691-2.126,6.637l-0.265,17.062l-9.857-0.151l0.525-34l9.416,0.147
		l-0.063,3.915c1.29-1.414,2.851-2.486,4.702-3.218c1.839-0.727,3.863-1.073,6.054-1.04c2.401,0.036,4.559,0.543,6.485,1.517
		c1.918,0.979,3.462,2.39,4.616,4.212c1.415-1.748,3.196-3.088,5.338-4.023c2.141-0.937,4.478-1.386,7.005-1.347
		C670.373,338.992,673.735,340.3,676.209,342.843L676.209,342.843z"/>
	<path fill="#302D7D" d="M704.313,366.728c1.321-0.758,2.263-1.889,2.839-3.4l0.052-3.476l-6.765-0.104
		c-4.049-0.062-6.084,1.232-6.128,3.887c-0.018,1.267,0.464,2.272,1.44,3.024c0.979,0.758,2.337,1.141,4.062,1.173
		C701.498,367.853,703.004,367.489,704.313,366.728L704.313,366.728z M713.085,343.41c2.781,2.552,4.136,6.355,4.057,11.408
		l-0.299,19.405l-9.229-0.142l0.067-4.235c-1.896,3.135-5.38,4.662-10.438,4.582c-2.611-0.041-4.867-0.518-6.774-1.432
		c-1.903-0.911-3.341-2.161-4.335-3.735c-0.984-1.57-1.465-3.349-1.436-5.328c0.05-3.162,1.276-5.631,3.688-7.408
		c2.408-1.769,6.098-2.625,11.067-2.548l7.841,0.121c0.032-2.147-0.594-3.81-1.889-4.985c-1.28-1.184-3.241-1.797-5.848-1.835
		c-1.813-0.027-3.6,0.235-5.357,0.771c-1.751,0.545-3.25,1.289-4.487,2.242l-3.433-6.944c1.875-1.277,4.112-2.253,6.717-2.928
		c2.602-0.682,5.271-0.994,8.008-0.953C706.28,339.547,710.305,340.862,713.085,343.41L713.085,343.41z"/>
	<path fill="#302D7D" d="M746.131,373.027c-0.979,0.705-2.182,1.224-3.597,1.561c-1.417,0.335-2.907,0.492-4.465,0.469
		c-4.044-0.062-7.155-1.145-9.337-3.243c-2.182-2.101-3.239-5.146-3.178-9.149l0.214-13.97l-5.244-0.08l0.112-7.584l5.248,0.081
		l0.131-8.279l9.857,0.153l-0.127,8.277l8.467,0.13l-0.118,7.585l-8.468-0.13l-0.214,13.84c-0.021,1.434,0.331,2.542,1.054,3.334
		c0.727,0.791,1.769,1.2,3.113,1.219c1.557,0.023,2.893-0.379,4.002-1.205L746.131,373.027L746.131,373.027z"/>
	<path fill="#302D7D" d="M750.614,340.736l9.858,0.15l-0.523,34.001l-9.855-0.151L750.614,340.736L750.614,340.736z M751.211,334.42
		c-1.117-1.07-1.667-2.383-1.643-3.945c0.022-1.558,0.608-2.854,1.767-3.895c1.155-1.028,2.64-1.538,4.453-1.508
		c1.811,0.028,3.277,0.555,4.394,1.585c1.122,1.027,1.674,2.303,1.655,3.814c-0.031,1.646-0.623,2.996-1.772,4.052
		c-1.153,1.059-2.633,1.574-4.447,1.543C753.804,336.039,752.337,335.489,751.211,334.42L751.211,334.42z"/>
	<path fill="#302D7D" d="M790.094,365.206c1.646-1.681,2.493-3.956,2.532-6.827c0.047-2.86-0.727-5.158-2.319-6.89
		c-1.598-1.73-3.664-2.62-6.192-2.657c-2.522-0.04-4.618,0.786-6.292,2.465c-1.669,1.684-2.526,3.955-2.574,6.814
		c-0.042,2.871,0.745,5.169,2.364,6.901c1.615,1.73,3.688,2.617,6.216,2.655C786.353,367.706,788.445,366.885,790.094,365.206
		L790.094,365.206z M774.095,373.365c-2.814-1.54-5.004-3.652-6.565-6.33c-1.562-2.675-2.318-5.699-2.261-9.075
		c0.048-3.368,0.894-6.37,2.54-8.998c1.642-2.633,3.895-4.669,6.761-6.126c2.866-1.449,6.085-2.146,9.67-2.09
		c3.579,0.054,6.772,0.85,9.579,2.387c2.796,1.544,4.973,3.648,6.534,6.332c1.563,2.676,2.309,5.7,2.257,9.069
		c-0.046,3.375-0.893,6.378-2.537,9.002c-1.64,2.631-3.879,4.673-6.724,6.125c-2.847,1.453-6.07,2.152-9.646,2.099
		C780.117,375.705,776.923,374.906,774.095,373.365L774.095,373.365z"/>
	<path fill="#302D7D" d="M838.699,345.373c2.554,2.572,3.785,6.344,3.713,11.312l-0.3,19.466l-9.857-0.151l0.271-17.95
		c0.045-2.696-0.511-4.719-1.674-6.061c-1.158-1.344-2.859-2.038-5.09-2.072c-2.488-0.036-4.479,0.701-5.979,2.218
		c-1.497,1.514-2.265,3.788-2.313,6.821l-0.26,16.812l-9.863-0.151l0.523-33.998l9.417,0.141l-0.062,3.979
		c1.331-1.411,2.967-2.495,4.923-3.243c1.951-0.748,4.081-1.104,6.401-1.068C832.756,341.492,836.141,342.809,838.699,345.373
		L838.699,345.373z"/>
	<path fill="#302D7D" d="M890.516,366.749c1.649-1.681,2.497-3.956,2.54-6.824c0.042-2.859-0.729-5.158-2.327-6.889
		c-1.596-1.732-3.661-2.62-6.183-2.66c-2.537-0.038-4.621,0.787-6.267,2.467c-1.65,1.682-2.497,3.958-2.543,6.816
		c-0.04,2.865,0.732,5.167,2.336,6.897c1.588,1.733,3.649,2.618,6.182,2.657C886.78,369.252,888.869,368.431,890.516,366.749
		L890.516,366.749z M894.964,344.626c2.57,1.496,4.574,3.573,6.007,6.225c1.437,2.659,2.128,5.733,2.074,9.229
		c-0.056,3.498-0.843,6.552-2.36,9.165c-1.517,2.609-3.579,4.623-6.187,6.037c-2.62,1.415-5.505,2.097-8.663,2.046
		c-4.342-0.066-7.739-1.49-10.171-4.264l-0.248,15.863l-9.863-0.151l0.713-46.261l9.412,0.144l-0.059,3.917
		c2.488-2.913,6.078-4.332,10.753-4.258C889.534,342.365,892.392,343.135,894.964,344.626L894.964,344.626z"/>
	<path fill="#302D7D" d="M942.558,343.687l-0.524,34l-9.356-0.143l0.059-4.044c-1.327,1.454-2.9,2.562-4.729,3.308
		c-1.825,0.753-3.788,1.112-5.89,1.079c-4.473-0.068-7.99-1.407-10.563-4.019s-3.817-6.442-3.742-11.497l0.298-19.213l9.856,0.151
		l-0.271,17.76c-0.083,5.473,2.167,8.249,6.769,8.319c2.354,0.036,4.258-0.703,5.718-2.22c1.45-1.516,2.205-3.79,2.253-6.82
		l0.261-16.809L942.558,343.687L942.558,343.687z"/>
	<path fill="#302D7D" d="M974.387,368.04c1.654-1.682,2.497-3.954,2.539-6.825c0.045-2.859-0.729-5.157-2.324-6.892
		c-1.601-1.729-3.664-2.617-6.189-2.656c-2.526-0.041-4.618,0.786-6.266,2.465c-1.648,1.686-2.495,3.957-2.538,6.815
		c-0.042,2.87,0.731,5.169,2.326,6.9c1.595,1.73,3.661,2.615,6.191,2.656C970.651,370.543,972.737,369.722,974.387,368.04
		L974.387,368.04z M978.838,345.917c2.568,1.496,4.567,3.57,6.005,6.228c1.433,2.656,2.125,5.731,2.071,9.227
		c-0.055,3.5-0.846,6.553-2.356,9.165c-1.518,2.612-3.578,4.623-6.191,6.036c-2.618,1.416-5.501,2.098-8.659,2.05
		c-4.677-0.072-8.215-1.599-10.619-4.586l-0.058,3.914l-9.416-0.145l0.721-46.895l9.86,0.155l-0.254,16.495
		c2.529-2.7,5.964-4.018,10.3-3.952C973.405,343.658,976.262,344.425,978.838,345.917L978.838,345.917z"/>
	<polygon fill="#302D7D" points="992.364,331.556 1002.227,331.711 1001.5,378.604 991.643,378.453 992.364,331.556 	"/>
	<path fill="#302D7D" d="M1009.604,344.719l9.861,0.153l-0.522,33.998l-9.861-0.151L1009.604,344.719L1009.604,344.719z
		 M1010.209,338.403c-1.12-1.069-1.67-2.383-1.647-3.943c0.026-1.56,0.615-2.854,1.772-3.892c1.149-1.035,2.633-1.539,4.443-1.512
		c1.814,0.027,3.277,0.559,4.401,1.587c1.119,1.027,1.671,2.3,1.652,3.812c-0.027,1.646-0.616,2.995-1.774,4.057
		c-1.153,1.056-2.639,1.569-4.447,1.542C1012.797,340.027,1011.329,339.473,1010.209,338.403L1010.209,338.403z"/>
	<path fill="#302D7D" d="M1049.053,369.186c1.674-1.677,2.532-3.952,2.575-6.822c0.045-2.861-0.742-5.157-2.358-6.892
		c-1.623-1.728-3.672-2.619-6.158-2.654c-2.526-0.041-4.62,0.783-6.3,2.463c-1.667,1.684-2.519,3.956-2.563,6.818
		c-0.046,2.866,0.737,5.165,2.351,6.898c1.623,1.731,3.697,2.617,6.226,2.654C1045.307,371.69,1047.384,370.869,1049.053,369.186
		L1049.053,369.186z M1061.562,345.52l-0.712,46.258l-9.863-0.151l0.246-15.864c-2.481,2.701-5.901,4.021-10.238,3.955
		c-3.206-0.053-6.092-0.813-8.657-2.287c-2.568-1.467-4.574-3.546-6.011-6.221c-1.435-2.674-2.12-5.766-2.063-9.265
		c0.052-3.494,0.834-6.559,2.349-9.188c1.517-2.635,3.583-4.646,6.198-6.038c2.61-1.393,5.517-2.065,8.719-2.016
		c4.64,0.071,8.149,1.597,10.553,4.588l0.062-3.918L1061.562,345.52L1061.562,345.52z"/>
	<path fill="#302D7D" d="M1103.34,346.161l-0.522,34l-9.356-0.144l0.061-4.045c-1.332,1.453-2.908,2.563-4.726,3.309
		c-1.826,0.75-3.794,1.113-5.899,1.081c-4.467-0.069-7.985-1.41-10.561-4.018c-2.574-2.614-3.818-6.447-3.736-11.5l0.292-19.21
		l9.861,0.151l-0.277,17.756c-0.081,5.476,2.17,8.25,6.767,8.322c2.357,0.036,4.264-0.704,5.726-2.219
		c1.451-1.519,2.201-3.793,2.247-6.824l0.262-16.81L1103.34,346.161L1103.34,346.161z"/>
	<path fill="#302D7D" d="M1120.826,355.279c-1.53,1.24-2.483,2.957-2.858,5.139l16.747,0.256c-0.308-2.155-1.201-3.879-2.7-5.193
		c-1.493-1.31-3.339-1.979-5.534-2.011C1124.249,353.435,1122.365,354.035,1120.826,355.279L1120.826,355.279z M1143.732,366.569
		L1118,366.172c0.435,2.114,1.503,3.794,3.218,5.045c1.708,1.248,3.847,1.887,6.415,1.93c1.771,0.028,3.341-0.209,4.717-0.717
		c1.382-0.505,2.664-1.319,3.858-2.442l5.164,5.772c-3.259,3.618-7.959,5.376-14.112,5.284c-3.837-0.059-7.21-0.86-10.141-2.401
		c-2.928-1.541-5.17-3.656-6.729-6.333c-1.561-2.674-2.315-5.7-2.263-9.076c0.048-3.325,0.889-6.313,2.511-8.962
		c1.621-2.654,3.823-4.707,6.599-6.167c2.787-1.449,5.885-2.146,9.299-2.096c3.33,0.053,6.33,0.814,9.003,2.289
		c2.676,1.474,4.761,3.563,6.257,6.257c1.493,2.704,2.222,5.824,2.17,9.357C1143.957,364.042,1143.882,364.926,1143.732,366.569
		L1143.732,366.569z"/>
	<polygon fill="#302D7D" points="1049.421,511.306 367.355,500.811 368.793,407.466 1050.854,417.958 1049.421,511.306 	"/>
	<path fill="#FFFFFF" d="M411.672,471.067c-0.445-0.471-0.792-1.067-1.055-1.798c-0.264-0.727-0.392-1.566-0.377-2.521
		c0.013-0.954,0.253-2.231,0.706-3.831c0.472-1.597,1.062-3.417,1.765-5.459l2.351-6.632c3.336-9.229,5.293-16.376,5.87-21.433
		c0.189-1.5,0.929-2.234,2.231-2.215c0.823,0.012,1.493,0.216,2.025,0.622c1.028,0.799,1.504,1.682,1.453,2.644
		c-0.047,0.962-0.233,2.135-0.559,3.51c-0.324,1.379-0.74,2.884-1.248,4.511c-0.505,1.619-1.09,3.341-1.735,5.15l-3.864,10.81
		c-2.213,6.14-3.344,10.116-3.367,11.915c-0.016,0.964,0.367,1.449,1.154,1.462c0.755,0.011,1.44-0.139,2.059-0.447
		c0.619-0.315,1.02-0.466,1.198-0.466c0.374,0.008,0.557,0.196,0.55,0.573c-0.027,1.586-0.851,2.904-2.497,3.947
		c-1.098,0.713-2.105,1.067-2.997,1.052c-0.911-0.016-1.627-0.132-2.174-0.353C412.6,471.884,412.112,471.535,411.672,471.067
		L411.672,471.067z"/>
	<path fill="#FFFFFF" d="M440.626,438.597c-0.398,0.415-0.847,0.748-1.354,1c-0.501,0.244-1.027,0.397-1.581,0.459
		c-0.561,0.052-1.073-0.041-1.565-0.285c-0.489-0.24-0.905-0.573-1.251-1.003c-0.756-0.907-1.124-1.813-1.116-2.725
		c0.019-0.911,0.171-1.593,0.479-2.04c0.292-0.452,0.673-0.815,1.121-1.095c0.869-0.541,1.686-0.803,2.442-0.79
		c0.757,0.011,1.337,0.069,1.762,0.186c0.417,0.112,0.804,0.298,1.155,0.554c0.868,0.601,1.288,1.328,1.275,2.179
		c-0.009,0.844-0.144,1.549-0.394,2.104C441.346,437.702,441.026,438.184,440.626,438.597L440.626,438.597z M434.698,467.486
		c0.458,0.006,0.689,0.31,0.68,0.922c-0.012,0.798-0.391,1.625-1.136,2.468c-1.091,1.235-2.538,1.838-4.339,1.809
		c-2.066-0.029-3.476-0.89-4.216-2.582c-0.28-0.591-0.407-1.307-0.394-2.146c0.013-0.836,0.172-1.77,0.489-2.795
		c0.305-1.017,0.682-2.092,1.141-3.214c0.46-1.129,0.951-2.27,1.486-3.418l1.472-3.353c1.069-2.5,1.61-4.153,1.625-4.954
		c0.012-0.804-0.063-1.337-0.228-1.594c-0.174-0.263-0.357-0.468-0.543-0.615l-0.527-0.381c-0.18-0.133-0.262-0.347-0.259-0.664
		c0.004-0.309,0.13-0.604,0.373-0.887c0.249-0.282,0.566-0.526,0.966-0.736c0.805-0.396,1.752-0.589,2.813-0.571
		c2.631,0.041,3.93,0.746,3.91,2.123c-0.024,1.603-0.477,3.432-1.345,5.477c-0.87,2.054-1.607,3.701-2.221,4.961l-1.655,3.67
		c-1.224,2.69-1.839,4.638-1.857,5.833c-0.014,0.784,0.373,1.182,1.154,1.194c0.775,0.011,1.345-0.078,1.749-0.269
		C434.23,467.579,434.512,467.482,434.698,467.486L434.698,467.486z"/>
	<path fill="#FFFFFF" d="M449.116,469.498c1.684,0.028,3.391-0.695,5.146-2.168c2.682-2.24,4.503-5.482,5.479-9.713
		c0.326-1.388,0.502-2.833,0.526-4.344c0.022-1.508-0.135-2.563-0.461-3.176c-0.333-0.614-0.849-0.926-1.546-0.938
		c-0.709-0.01-1.449,0.268-2.228,0.825c-0.777,0.557-1.588,1.302-2.44,2.224c-0.854,0.928-1.698,1.988-2.535,3.201
		c-0.842,1.21-1.609,2.461-2.282,3.755c-1.49,2.847-2.255,5.278-2.286,7.278C446.457,468.458,447.334,469.474,449.116,469.498
		L449.116,469.498z M441.694,464.993c0.016-1.034,0.11-2.025,0.271-2.964c0.167-0.941,0.38-1.895,0.633-2.855
		c0.259-0.957,0.543-1.918,0.863-2.88l3.132-9.106c2.493-7.382,4.077-13.159,4.743-17.325c0.221-1.5,0.962-2.235,2.227-2.217
		c0.753,0.012,1.388,0.216,1.891,0.618c0.936,0.787,1.382,1.606,1.339,2.469c-0.032,0.866-0.177,1.831-0.418,2.889
		c-0.238,1.059-0.537,2.209-0.913,3.453c-0.354,1.243-0.775,2.549-1.239,3.913c-1.263,3.515-2.188,6.051-2.797,7.612l-1.592,3.967
		c1.587-2.384,2.886-4.017,3.875-4.894c1.991-1.702,4.056-2.535,6.175-2.503c3.117,0.049,5.171,1.712,6.162,4.994
		c0.317,1.128,0.465,2.532,0.438,4.214c-0.023,1.674-0.295,3.334-0.814,4.978c-0.516,1.64-1.203,3.17-2.063,4.572
		c-0.854,1.407-1.855,2.67-2.982,3.793c-1.139,1.129-2.327,2.085-3.571,2.864c-2.625,1.639-5.169,2.438-7.61,2.401
		c-2.463-0.04-4.386-0.82-5.772-2.337C442.316,469.129,441.66,467.246,441.694,464.993L441.694,464.993z"/>
	<path fill="#FFFFFF" d="M484.465,442.792c-0.696,0.257-1.302,0.39-1.8,0.4c-0.498,0.013-0.825-0.093-0.983-0.311
		c-0.362-0.47-0.338-0.889,0.078-1.257l1.241-1.158c2.685-2.475,4.56-5.576,5.635-9.311c0.187-0.709,0.865-0.995,2.019-0.853
		c0.941,0.155,1.703,0.651,2.284,1.482c1.274,1.84,0.658,4.024-1.845,6.558C489.083,440.381,486.874,441.863,484.465,442.792
		L484.465,442.792z M486.427,449.141c-1.869-0.028-3.694,1.227-5.463,3.771c-1.498,2.193-2.71,4.797-3.652,7.816
		c2.986-0.257,5.59-1.399,7.814-3.422c2.046-1.889,3.081-3.721,3.107-5.487C488.257,450.051,487.668,449.16,486.427,449.141
		L486.427,449.141z M470.573,463.672c0.097-1.548,0.372-3.029,0.847-4.444c0.468-1.408,1.085-2.776,1.852-4.096
		c0.773-1.313,1.67-2.558,2.7-3.729c1.02-1.173,2.126-2.196,3.32-3.068c2.583-1.872,5.173-2.786,7.783-2.746
		c3.047,0.047,5.063,1.339,6.045,3.866c0.344,0.866,0.497,1.879,0.462,3.044c-0.041,1.173-0.276,2.249-0.718,3.233
		c-0.444,0.98-1.055,1.872-1.828,2.674c-0.763,0.802-1.684,1.516-2.735,2.139c-1.057,0.63-2.199,1.152-3.442,1.581
		c-2.546,0.853-5.26,1.277-8.151,1.268c-0.076,0.248-0.124,0.62-0.153,1.123c-0.025,0.498,0.017,1.057,0.131,1.674
		c0.126,0.613,0.324,1.168,0.621,1.651c0.622,1.085,1.551,1.636,2.763,1.654c2.062,0.031,4.094-0.544,6.074-1.728
		c0.698-0.4,1.271-0.813,1.712-1.244c0.45-0.433,0.833-0.645,1.146-0.639c0.328,0.005,0.607,0.201,0.842,0.585
		c0.235,0.391,0.352,0.824,0.339,1.308c-0.013,0.941-0.293,1.763-0.842,2.448c-2.279,2.215-5.646,3.286-10.087,3.219
		c-2.622-0.041-4.714-0.856-6.278-2.448C471.222,469.18,470.422,466.745,470.573,463.672L470.573,463.672z"/>
	<path fill="#FFFFFF" d="M496.133,472.794c-0.354-0.271-0.636-0.577-0.843-0.908c-0.207-0.335-0.321-0.626-0.337-0.86
		c-0.011-0.246,0.035-0.537,0.163-0.884c0.125-0.344,0.286-0.768,0.486-1.266c3.78-8.9,5.688-14.882,5.741-17.953
		c-0.045-0.855-0.328-1.472-0.854-1.837l-0.535-0.379c-0.159-0.132-0.236-0.349-0.246-0.663c-0.003-0.31,0.114-0.604,0.351-0.89
		c0.239-0.281,0.543-0.526,0.923-0.736c0.774-0.396,1.565-0.591,2.379-0.579c0.812,0.014,1.441,0.111,1.891,0.299
		c0.457,0.186,0.836,0.435,1.151,0.739c0.673,0.652,0.999,1.338,0.999,2.051c0,0.717-0.085,1.434-0.268,2.161
		c-0.186,0.733-0.395,1.446-0.637,2.144c-0.242,0.706-0.485,1.373-0.728,2.004c-0.238,0.626-0.401,1.093-0.475,1.396
		c-0.153,0.619-0.207,1.015-0.184,1.176c0.439-0.37,0.707-0.73,0.796-1.083l1.078-1.967c2.381-4.14,4.692-6.869,6.926-8.193
		c0.645-0.364,1.415-0.539,2.317-0.527c0.901,0.016,1.626,0.342,2.174,0.987c0.546,0.64,0.82,1.346,0.83,2.11
		c0.022,0.77-0.044,1.404-0.189,1.912c-0.135,0.504-0.345,0.977-0.62,1.423c-0.603,0.99-1.331,1.48-2.166,1.467
		c-0.23-0.002-0.44-0.087-0.636-0.25l-0.584-0.521c-0.582-0.521-1.144-0.79-1.687-0.8c-0.546-0.009-1.205,0.338-1.996,1.042
		c-0.786,0.699-1.612,1.606-2.464,2.717c-2.879,3.683-5.241,7.823-7.097,12.419l-1.225,3.087c-0.315,0.763-0.591,1.308-0.829,1.633
		c-0.241,0.33-0.591,0.489-1.033,0.481c-0.458-0.009-0.914-0.102-1.372-0.271C496.884,473.29,496.488,473.065,496.133,472.794
		L496.133,472.794z"/>
	<path fill="#FFFFFF" d="M534.633,449.881c-1.874-0.029-3.694,1.227-5.467,3.774c-1.498,2.191-2.717,4.793-3.65,7.813
		c2.98-0.256,5.588-1.395,7.813-3.418c2.046-1.895,3.079-3.72,3.107-5.488C536.461,450.794,535.858,449.9,534.633,449.881
		L534.633,449.881z M518.771,464.416c0.1-1.551,0.377-3.031,0.853-4.448c0.463-1.406,1.081-2.776,1.853-4.092
		c0.769-1.316,1.669-2.563,2.699-3.729c1.018-1.176,2.131-2.195,3.32-3.071c2.582-1.869,5.181-2.787,7.786-2.744
		c3.045,0.047,5.064,1.337,6.042,3.867c0.336,0.865,0.494,1.88,0.46,3.042c-0.037,1.173-0.277,2.248-0.721,3.233
		c-0.443,0.98-1.048,1.872-1.817,2.672c-0.774,0.805-1.687,1.517-2.736,2.143c-1.059,0.629-2.202,1.151-3.442,1.579
		c-2.55,0.853-5.27,1.278-8.151,1.266c-0.078,0.249-0.127,0.625-0.158,1.125c-0.02,0.499,0.021,1.054,0.137,1.678
		c0.118,0.611,0.321,1.166,0.618,1.646c0.628,1.084,1.542,1.637,2.755,1.654c2.07,0.033,4.102-0.544,6.078-1.729
		c0.704-0.397,1.278-0.812,1.714-1.243c0.449-0.431,0.829-0.642,1.157-0.636c0.317,0.003,0.597,0.198,0.833,0.583
		c0.234,0.39,0.345,0.824,0.341,1.306c-0.018,0.942-0.3,1.765-0.847,2.451c-2.285,2.215-5.646,3.286-10.086,3.217
		c-2.62-0.039-4.716-0.853-6.278-2.449C519.417,469.923,518.623,467.486,518.771,464.416L518.771,464.416z"/>
	<path fill="#FFFFFF" d="M544.332,473.535c-0.353-0.272-0.63-0.575-0.836-0.908c-0.213-0.337-0.321-0.624-0.337-0.862
		c-0.02-0.244,0.035-0.536,0.158-0.885c0.124-0.341,0.284-0.763,0.489-1.263c3.777-8.901,5.688-14.882,5.735-17.953
		c-0.035-0.857-0.322-1.473-0.853-1.834l-0.531-0.384c-0.157-0.131-0.24-0.345-0.243-0.66c-0.005-0.311,0.109-0.605,0.344-0.889
		c0.245-0.281,0.551-0.528,0.929-0.736c0.772-0.397,1.559-0.589,2.373-0.578c0.818,0.012,1.446,0.108,1.896,0.294
		c0.457,0.19,0.84,0.435,1.158,0.741c0.664,0.652,0.995,1.339,0.995,2.049c0,0.718-0.085,1.438-0.271,2.167
		c-0.185,0.728-0.394,1.443-0.634,2.14c-0.246,0.709-0.484,1.373-0.727,2.005c-0.246,0.626-0.405,1.093-0.479,1.394
		c-0.149,0.624-0.209,1.015-0.182,1.176c0.438-0.368,0.705-0.73,0.796-1.085l1.071-1.963c2.388-4.143,4.694-6.87,6.927-8.196
		c0.649-0.361,1.424-0.539,2.328-0.523c0.9,0.013,1.62,0.342,2.166,0.986c0.544,0.638,0.825,1.344,0.833,2.108
		c0.017,0.77-0.042,1.405-0.19,1.917c-0.134,0.499-0.343,0.977-0.621,1.422c-0.602,0.988-1.329,1.479-2.166,1.464
		c-0.232-0.004-0.449-0.086-0.638-0.251l-0.583-0.519c-0.581-0.522-1.142-0.791-1.689-0.8c-0.546-0.011-1.205,0.337-1.992,1.036
		c-0.785,0.704-1.612,1.609-2.466,2.721c-2.875,3.685-5.242,7.824-7.1,12.42l-1.226,3.086c-0.314,0.764-0.585,1.309-0.824,1.632
		c-0.238,0.331-0.587,0.489-1.038,0.48c-0.455-0.007-0.91-0.097-1.366-0.267C545.092,474.033,544.684,473.805,544.332,473.535
		L544.332,473.535z"/>
	<path fill="#FFFFFF" d="M584.731,473.731c-0.441-0.471-0.791-1.07-1.063-1.797c-0.267-0.729-0.391-1.57-0.373-2.525
		c0.011-0.952,0.254-2.23,0.712-3.83c0.467-1.597,1.049-3.418,1.757-5.459l2.356-6.631c3.331-9.229,5.286-16.376,5.867-21.434
		c0.18-1.498,0.926-2.236,2.229-2.217c0.829,0.017,1.499,0.222,2.024,0.622c1.029,0.801,1.511,1.684,1.457,2.647
		c-0.049,0.962-0.235,2.133-0.564,3.508c-0.313,1.381-0.731,2.884-1.241,4.512c-0.506,1.619-1.094,3.339-1.744,5.149l-3.854,10.811
		c-2.215,6.141-3.343,10.113-3.372,11.913c-0.015,0.964,0.373,1.451,1.157,1.46c0.747,0.016,1.433-0.135,2.047-0.445
		c0.631-0.313,1.029-0.467,1.203-0.465c0.375,0.008,0.563,0.193,0.558,0.573c-0.023,1.585-0.858,2.905-2.501,3.949
		c-1.097,0.713-2.094,1.063-2.993,1.05c-0.903-0.014-1.631-0.132-2.182-0.353C585.661,474.545,585.166,474.197,584.731,473.731
		L584.731,473.731z"/>
	<path fill="#FFFFFF" d="M610.034,442.729c-0.605,0.448-1.212,0.792-1.822,1.04c-0.615,0.254-1.233,0.373-1.884,0.361
		c-0.641-0.01-0.995-0.222-1.063-0.631c-0.027-0.233,0.13-0.544,0.474-0.932l1.167-1.156c1.526-1.514,2.293-2.857,2.312-4.038
		c0.02-1.067-0.189-1.967-0.624-2.699c-0.438-0.727-0.729-1.246-0.872-1.55c-0.147-0.304-0.111-0.715,0.109-1.217
		c0.225-0.508,0.657-0.938,1.29-1.306c0.64-0.366,1.462-0.54,2.461-0.525c0.995,0.018,1.782,0.471,2.36,1.36
		c0.579,0.894,0.859,1.874,0.843,2.945c-0.021,1.071-0.165,1.977-0.433,2.714c-0.272,0.733-0.624,1.445-1.048,2.138
		c-0.433,0.684-0.932,1.331-1.506,1.928C611.23,441.762,610.64,442.286,610.034,442.729L610.034,442.729z"/>
	<path fill="#FFFFFF" d="M627.701,444.995c-0.691,0.259-1.291,0.391-1.791,0.4c-0.508,0.014-0.83-0.091-0.987-0.309
		c-0.368-0.47-0.345-0.891,0.072-1.259l1.244-1.156c2.683-2.475,4.559-5.578,5.635-9.311c0.192-0.709,0.866-0.995,2.021-0.853
		c0.946,0.155,1.701,0.649,2.28,1.48c1.274,1.837,0.657,4.026-1.838,6.557C632.324,442.586,630.112,444.068,627.701,444.995
		L627.701,444.995z M629.67,451.344c-1.878-0.028-3.697,1.227-5.464,3.772c-1.499,2.189-2.718,4.797-3.656,7.816
		c2.983-0.259,5.59-1.399,7.815-3.423c2.049-1.893,3.082-3.72,3.106-5.486C631.501,452.255,630.896,451.361,629.67,451.344
		L629.67,451.344z M613.813,465.877c0.098-1.55,0.378-3.031,0.845-4.446c0.472-1.408,1.086-2.776,1.86-4.095
		c0.766-1.313,1.665-2.557,2.693-3.728c1.019-1.173,2.135-2.197,3.326-3.071c2.579-1.868,5.175-2.784,7.776-2.744
		c3.053,0.046,5.072,1.336,6.043,3.866c0.347,0.864,0.502,1.881,0.463,3.044c-0.032,1.173-0.275,2.247-0.716,3.234
		c-0.44,0.98-1.051,1.871-1.822,2.67c-0.775,0.807-1.69,1.517-2.73,2.143c-1.063,0.627-2.204,1.153-3.444,1.581
		c-2.552,0.85-5.268,1.275-8.159,1.266c-0.075,0.25-0.124,0.622-0.15,1.121c-0.027,0.5,0.021,1.058,0.135,1.678
		c0.119,0.612,0.326,1.167,0.618,1.651c0.626,1.082,1.547,1.634,2.758,1.651c2.07,0.035,4.096-0.543,6.078-1.727
		c0.698-0.397,1.272-0.813,1.715-1.244c0.45-0.433,0.832-0.642,1.151-0.638c0.323,0.007,0.599,0.202,0.832,0.583
		c0.234,0.39,0.347,0.825,0.341,1.308c-0.015,0.943-0.292,1.764-0.839,2.448c-2.284,2.216-5.647,3.287-10.093,3.217
		c-2.616-0.038-4.709-0.853-6.273-2.446C614.454,471.384,613.658,468.946,613.813,465.877L613.813,465.877z"/>
	<path fill="#FFFFFF" d="M658.901,453.291c-0.557-0.008-1.343,0.515-2.378,1.555c-1.034,1.052-1.933,2.002-2.701,2.866l-2.317,2.695
		l-4.471,5.523c-1.066,1.948-1.902,3.567-2.515,4.864l-1.486,3.08c-0.384,0.765-0.72,1.299-1.006,1.607
		c-0.279,0.307-0.659,0.454-1.129,0.451c-0.472-0.007-0.927-0.102-1.363-0.273c-0.428-0.181-0.809-0.405-1.123-0.679
		c-0.671-0.579-1.002-1.212-0.991-1.89c0.005-0.266,0.211-0.789,0.612-1.569l1.05-2.152c0.333-0.633,0.715-1.451,1.164-2.444
		l1.557-3.642c2.188-5.234,3.291-8.614,3.314-10.147c0.01-0.822-0.246-1.435-0.775-1.836l-0.531-0.382
		c-0.177-0.132-0.26-0.349-0.26-0.662c0.006-0.311,0.13-0.605,0.375-0.889c0.251-0.282,0.567-0.525,0.963-0.735
		c0.805-0.396,1.619-0.589,2.432-0.576c0.81,0.011,1.44,0.107,1.886,0.293c0.442,0.19,0.811,0.435,1.113,0.741
		c0.65,0.635,0.971,1.294,0.963,1.97c-0.014,0.677-0.111,1.359-0.288,2.041c-0.188,0.686-0.407,1.38-0.675,2.076
		c-0.271,0.705-0.552,1.392-0.849,2.066c-0.298,0.67-0.563,1.257-0.804,1.755l-0.55,1.141c-0.15,0.286-0.192,0.375-0.111,0.266
		c2.021-2.717,3.353-4.464,3.991-5.236l1.9-2.218c1.396-1.589,2.496-2.633,3.288-3.14c1.605-1.043,2.864-1.56,3.771-1.546
		c0.911,0.014,1.678,0.139,2.298,0.385c0.621,0.239,1.162,0.579,1.615,1.015c0.965,0.925,1.443,2.092,1.423,3.5
		c-0.021,1.413-0.368,2.878-1.031,4.403c-0.666,1.521-1.246,2.76-1.728,3.706c-0.488,0.947-0.957,1.909-1.397,2.885
		c-1.381,2.956-2.095,5.113-2.111,6.471c-0.01,0.608,0.467,0.916,1.434,0.933c0.749,0.011,1.436-0.14,2.05-0.45
		c0.624-0.313,1.021-0.465,1.203-0.463c0.376,0.006,0.559,0.195,0.554,0.571c-0.026,1.585-0.852,2.907-2.502,3.948
		c-1.097,0.714-2.101,1.066-3.012,1.052c-0.91-0.013-1.661-0.123-2.257-0.328c-0.597-0.203-1.122-0.525-1.575-0.959
		c-1.033-0.964-1.547-2.294-1.523-3.987c0.031-2.07,0.726-4.646,2.077-7.735c0.971-2.104,1.666-3.549,2.077-4.328l0.936-1.888
		c0.571-1.133,0.859-2.03,0.871-2.689C660.364,453.644,659.881,453.307,658.901,453.291L658.901,453.291z"/>
	<path fill="#FFFFFF" d="M686.273,452.213c-1.872-0.026-3.689,1.229-5.465,3.775c-1.493,2.191-2.716,4.793-3.652,7.812
		c2.982-0.256,5.588-1.396,7.815-3.417c2.051-1.891,3.088-3.721,3.111-5.488C688.109,453.124,687.51,452.233,686.273,452.213
		L686.273,452.213z M670.418,466.75c0.098-1.554,0.382-3.03,0.843-4.449c0.473-1.407,1.089-2.774,1.865-4.095
		c0.766-1.312,1.665-2.559,2.69-3.728c1.024-1.176,2.134-2.198,3.322-3.068c2.579-1.872,5.182-2.787,7.781-2.746
		c3.052,0.047,5.065,1.337,6.047,3.867c0.342,0.863,0.498,1.878,0.458,3.042c-0.04,1.171-0.272,2.247-0.718,3.236
		c-0.444,0.979-1.048,1.871-1.826,2.67c-0.765,0.807-1.683,1.516-2.73,2.138c-1.058,0.631-2.205,1.156-3.435,1.585
		c-2.552,0.854-5.271,1.275-8.159,1.266c-0.076,0.249-0.127,0.622-0.155,1.121c-0.024,0.501,0.018,1.055,0.138,1.679
		c0.115,0.614,0.326,1.166,0.613,1.65c0.63,1.083,1.551,1.633,2.758,1.651c2.073,0.031,4.102-0.542,6.074-1.728
		c0.71-0.396,1.278-0.813,1.727-1.242c0.439-0.433,0.823-0.642,1.147-0.638c0.322,0.004,0.604,0.202,0.832,0.584
		c0.234,0.389,0.351,0.826,0.346,1.307c-0.014,0.942-0.297,1.764-0.843,2.45c-2.284,2.211-5.648,3.286-10.093,3.215
		c-2.62-0.038-4.716-0.853-6.281-2.448C671.065,472.254,670.267,469.819,670.418,466.75L670.418,466.75z"/>
	<path fill="#FFFFFF" d="M695.977,475.867c-0.346-0.27-0.634-0.573-0.841-0.907c-0.204-0.335-0.314-0.624-0.338-0.86
		c-0.014-0.248,0.043-0.536,0.165-0.885c0.12-0.344,0.282-0.764,0.489-1.266c3.769-8.899,5.687-14.881,5.735-17.953
		c-0.044-0.855-0.326-1.468-0.855-1.836l-0.531-0.379c-0.161-0.132-0.232-0.347-0.244-0.664c0-0.307,0.111-0.603,0.348-0.887
		c0.237-0.284,0.544-0.528,0.921-0.736c0.771-0.397,1.565-0.594,2.384-0.582c0.81,0.016,1.447,0.112,1.894,0.298
		c0.452,0.191,0.836,0.435,1.151,0.741c0.669,0.652,1.006,1.336,0.997,2.05c0.009,0.721-0.094,1.437-0.267,2.166
		c-0.188,0.728-0.395,1.441-0.642,2.143c-0.245,0.703-0.479,1.368-0.722,2.002c-0.25,0.626-0.395,1.092-0.479,1.394
		c-0.156,0.623-0.211,1.015-0.181,1.178c0.435-0.37,0.7-0.733,0.798-1.086l1.072-1.964c2.383-4.143,4.696-6.87,6.923-8.194
		c0.649-0.362,1.427-0.541,2.327-0.525c0.901,0.014,1.619,0.342,2.162,0.984c0.551,0.642,0.823,1.346,0.834,2.111
		c0.021,0.771-0.045,1.404-0.188,1.913c-0.136,0.504-0.349,0.979-0.622,1.42c-0.601,0.992-1.327,1.482-2.158,1.469
		c-0.238,0-0.446-0.09-0.642-0.25l-0.581-0.52c-0.583-0.522-1.149-0.794-1.689-0.802c-0.546-0.005-1.209,0.34-1.998,1.04
		c-0.784,0.702-1.609,1.608-2.463,2.719c-2.879,3.684-5.236,7.827-7.096,12.421l-1.228,3.086c-0.312,0.764-0.591,1.305-0.825,1.632
		c-0.237,0.332-0.59,0.487-1.039,0.481c-0.46-0.007-0.91-0.099-1.363-0.272C696.735,476.368,696.329,476.142,695.977,475.867
		L695.977,475.867z"/>
	<path fill="#FFFFFF" d="M726.112,461.851c-0.495,1.275-0.883,2.585-1.178,3.932c-0.279,1.339-0.435,2.439-0.447,3.295
		c-0.014,0.857,0.003,1.508,0.046,1.958c0.051,0.445,0.149,0.837,0.306,1.182c0.339,0.754,0.865,1.138,1.564,1.146
		c0.69,0.014,1.389-0.224,2.065-0.707c0.689-0.474,1.415-1.139,2.181-1.985c0.761-0.842,1.524-1.84,2.292-2.988
		c0.763-1.143,1.499-2.386,2.193-3.712c1.545-2.94,2.642-5.751,3.295-8.436c-0.085-0.504-0.376-1.02-0.888-1.539
		c-0.999-1-1.915-1.505-2.733-1.518c-0.824-0.014-1.649,0.225-2.48,0.727c-0.823,0.495-1.612,1.171-2.368,2.021
		c-0.752,0.858-1.458,1.854-2.119,2.997C727.18,459.363,726.606,460.57,726.112,461.851L726.112,461.851z M733.981,471.26
		c-2.773,4.027-5.812,6.015-9.108,5.964c-2.98-0.046-4.965-1.662-5.949-4.855c-0.337-1.099-0.498-2.438-0.473-4.023
		c0.023-1.588,0.273-3.177,0.748-4.77c0.487-1.588,1.124-3.092,1.934-4.507c0.806-1.414,1.755-2.719,2.834-3.901
		c1.076-1.191,2.231-2.213,3.456-3.066c2.566-1.836,5.097-2.734,7.591-2.696c2.502,0.04,4.267,1.235,5.299,3.592
		c0.217-0.236,0.417-0.461,0.601-0.706c0.181-0.235,0.38-0.459,0.602-0.67c0.462-0.457,0.881-0.684,1.226-0.678
		c0.353,0.005,0.713,0.07,1.096,0.203c0.383,0.135,0.749,0.307,1.099,0.525c0.875,0.531,1.196,1.02,0.968,1.464
		c-1.008,2.105-1.859,4.181-2.553,6.221l-4.162,12.574c-3.259,9.533-7.322,15.66-12.164,18.392
		c-1.277,0.729-2.382,1.143-3.313,1.248c-0.93,0.102-1.598,0.093-2.003-0.018c-0.41-0.114-0.777-0.272-1.09-0.475
		c-0.693-0.458-1.034-0.865-1.027-1.22c0.007-0.621,0.434-1.002,1.253-1.131c0.842-0.13,1.714-0.451,2.633-0.959
		c0.917-0.516,1.797-1.144,2.625-1.88C729.52,482.816,732.15,477.94,733.981,471.26L733.981,471.26z"/>
	<path fill="#FFFFFF" d="M762.064,443.545c-0.396,0.412-0.854,0.744-1.358,0.999c-0.502,0.245-1.027,0.396-1.583,0.458
		c-0.562,0.051-1.076-0.044-1.558-0.283c-0.491-0.239-0.91-0.576-1.26-1.009c-0.756-0.902-1.117-1.812-1.107-2.723
		c0.015-0.91,0.167-1.59,0.477-2.039c0.294-0.452,0.669-0.816,1.125-1.096c0.863-0.541,1.672-0.8,2.436-0.785
		c0.757,0.009,1.346,0.066,1.761,0.181c0.413,0.113,0.807,0.3,1.154,0.555c0.862,0.601,1.293,1.328,1.283,2.177
		c-0.018,0.845-0.146,1.551-0.403,2.105C762.791,442.648,762.465,443.131,762.064,443.545L762.064,443.545z M756.132,472.429
		c0.462,0.009,0.69,0.311,0.679,0.919c-0.011,0.803-0.388,1.632-1.136,2.476c-1.088,1.235-2.534,1.836-4.336,1.807
		c-2.069-0.03-3.476-0.891-4.222-2.58c-0.27-0.593-0.404-1.312-0.392-2.147s0.176-1.771,0.483-2.794
		c0.309-1.019,0.697-2.092,1.15-3.213c0.456-1.133,0.954-2.27,1.481-3.425l1.468-3.349c1.077-2.498,1.62-4.151,1.633-4.952
		c0.018-0.806-0.061-1.336-0.229-1.593c-0.163-0.265-0.347-0.472-0.539-0.619l-0.529-0.381c-0.181-0.131-0.258-0.348-0.254-0.662
		c0.003-0.311,0.128-0.604,0.37-0.887c0.248-0.283,0.563-0.528,0.968-0.736c0.805-0.396,1.746-0.59,2.813-0.574
		c2.623,0.043,3.927,0.752,3.906,2.123c-0.025,1.604-0.472,3.432-1.341,5.479c-0.869,2.055-1.61,3.701-2.225,4.961l-1.658,3.668
		c-1.223,2.694-1.842,4.641-1.858,5.833c-0.015,0.784,0.379,1.185,1.163,1.196c0.768,0.014,1.342-0.079,1.739-0.27
		C755.664,472.523,755.951,472.429,756.132,472.429L756.132,472.429z"/>
	<path fill="#FFFFFF" d="M779.039,453.644c-1.868-0.03-3.691,1.226-5.467,3.771c-1.495,2.188-2.712,4.797-3.658,7.813
		c2.99-0.256,5.592-1.397,7.822-3.421c2.045-1.891,3.083-3.72,3.109-5.486C780.869,454.555,780.273,453.66,779.039,453.644
		L779.039,453.644z M763.184,468.176c0.1-1.551,0.379-3.032,0.847-4.448c0.464-1.405,1.083-2.775,1.855-4.094
		c0.764-1.313,1.671-2.557,2.698-3.728c1.019-1.175,2.13-2.196,3.318-3.072c2.58-1.867,5.176-2.783,7.781-2.743
		c3.054,0.047,5.065,1.336,6.045,3.866c0.341,0.864,0.502,1.881,0.463,3.045c-0.036,1.171-0.277,2.246-0.721,3.234
		c-0.441,0.979-1.05,1.87-1.823,2.673s-1.684,1.515-2.734,2.139c-1.055,0.627-2.2,1.155-3.436,1.581
		c-2.549,0.85-5.265,1.274-8.154,1.268c-0.081,0.248-0.132,0.62-0.161,1.12c-0.021,0.501,0.024,1.057,0.143,1.678
		c0.115,0.614,0.319,1.168,0.609,1.65c0.634,1.082,1.553,1.636,2.76,1.651c2.07,0.035,4.094-0.543,6.08-1.725
		c0.702-0.399,1.27-0.812,1.713-1.245c0.446-0.433,0.838-0.643,1.158-0.64c0.316,0.006,0.598,0.203,0.826,0.584
		c0.236,0.39,0.355,0.825,0.346,1.308c-0.011,0.942-0.295,1.764-0.844,2.448c-2.278,2.216-5.643,3.287-10.086,3.221
		c-2.621-0.042-4.718-0.855-6.279-2.45C763.826,473.682,763.024,471.244,763.184,468.176L763.184,468.176z"/>
	<path fill="#FFFFFF" d="M814.598,464.378c-0.67,1.239-1.216,2.487-1.634,3.732c-0.425,1.246-0.637,2.382-0.654,3.421
		c-0.016,1.032,0.193,1.883,0.63,2.563c0.434,0.675,1.089,1.019,1.963,1.033c0.877,0.013,1.752-0.21,2.627-0.671
		c0.867-0.457,1.716-1.085,2.541-1.872c0.82-0.79,1.594-1.721,2.316-2.79c0.724-1.069,1.356-2.207,1.887-3.409
		c1.163-2.627,1.76-5.122,1.797-7.496c0.021-1.283-0.128-2.282-0.461-3.007c-0.326-0.721-0.84-1.084-1.545-1.097
		c-0.706-0.011-1.447,0.252-2.225,0.785c-0.779,0.533-1.588,1.245-2.439,2.134c-0.849,0.884-1.695,1.906-2.531,3.065
		C816.024,461.926,815.271,463.126,814.598,464.378L814.598,464.378z M810.293,475.725c-0.043,0.268-0.451,1.674-1.234,4.212
		c-0.777,2.535-1.429,4.557-1.951,6.048c-1.181,3.337-2.138,5.408-2.884,6.22c-0.599,0.632-1.314,0.942-2.154,0.931
		c-1.014-0.016-1.784-0.527-2.303-1.534c-0.16-0.291-0.233-0.608-0.229-0.949c0.004-0.354,0.289-1.104,0.842-2.252
		c1.452-2.926,3.423-8.695,5.913-17.311c1.003-3.414,1.658-5.731,1.983-6.96l0.905-3.332c0.591-2.203,0.937-3.7,1.046-4.494
		c0.105-0.792,0.071-1.354-0.117-1.687c-0.19-0.333-0.415-0.588-0.664-0.756c-0.239-0.179-0.477-0.329-0.688-0.457
		c-0.211-0.13-0.294-0.354-0.255-0.686c0.037-0.329,0.196-0.632,0.455-0.899c0.262-0.276,0.589-0.511,0.981-0.701
		c0.82-0.361,1.626-0.535,2.439-0.521c0.811,0.01,1.447,0.118,1.904,0.32c0.46,0.201,0.843,0.477,1.138,0.821
		c0.636,0.709,0.908,1.387,0.825,2.05c-0.199,1.369-0.414,2.545-0.64,3.523c3.189-4.396,6.466-6.567,9.82-6.516
		c3.046,0.048,5.068,1.654,6.051,4.832c0.339,1.11,0.503,2.461,0.475,4.049c-0.023,1.585-0.292,3.181-0.792,4.764
		c-0.51,1.593-1.178,3.097-2.03,4.507c-0.835,1.418-1.816,2.717-2.921,3.905c-1.109,1.188-2.279,2.223-3.495,3.094
		c-2.604,1.814-5.049,2.707-7.327,2.67C813.101,478.58,811.402,477.619,810.293,475.725L810.293,475.725z"/>
	<path fill="#FFFFFF" d="M860.697,473.77c0.413,0.007,0.618,0.218,0.613,0.625c-0.026,1.555-0.814,2.849-2.366,3.875
		c-1.045,0.659-2.264,0.982-3.653,0.959c-1.139-0.017-2.018-0.298-2.613-0.841c-1.073-0.981-1.599-2.167-1.579-3.559
		c0.029-1.767,0.814-4.457,2.348-8.076c-2.801,3.67-4.77,6.107-5.893,7.313c-1.124,1.201-2.101,2.14-2.935,2.806
		c-1.805,1.437-3.431,2.141-4.874,2.117c-2.218-0.033-3.68-1.013-4.376-2.93c-0.21-0.592-0.302-1.267-0.291-2.025
		c0.01-0.759,0.152-1.607,0.428-2.533c0.275-0.938,0.619-1.907,1.054-2.918c0.419-1.012,0.881-2.05,1.382-3.111l1.493-3.189
		c1.914-4.093,2.646-6.525,2.173-7.305c-0.21-0.341-0.603-0.687-1.188-1.032c-0.208-0.134-0.313-0.349-0.307-0.662
		c0.002-0.311,0.139-0.604,0.4-0.889c0.259-0.282,0.604-0.524,1.015-0.734c0.882-0.398,1.756-0.589,2.633-0.575
		c0.88,0.013,1.534,0.119,1.987,0.311c0.448,0.195,0.821,0.437,1.1,0.726c0.585,0.598,0.864,1.253,0.852,1.969
		c-0.01,0.715-0.137,1.508-0.384,2.391c-0.25,0.877-0.563,1.834-0.954,2.864c-0.39,1.026-0.813,2.093-1.28,3.193
		c-1.275,2.868-2.132,4.765-2.579,5.688l-1.017,2.045c-0.577,1.221-0.857,2.082-0.865,2.581c-0.008,0.503,0.063,0.854,0.217,1.059
		c0.157,0.209,0.445,0.317,0.869,0.326c0.421,0.007,0.902-0.183,1.468-0.565c0.554-0.389,1.168-0.902,1.835-1.551
		c0.675-0.653,1.374-1.405,2.101-2.259c0.729-0.857,1.436-1.738,2.127-2.659c1.368-1.797,2.378-3.246,3.014-4.344
		c3.886-6.629,5.955-10.099,6.209-10.398c0.584-0.759,1.174-1.134,1.773-1.122c0.597,0.007,1.117,0.081,1.566,0.225
		c0.438,0.137,0.82,0.34,1.141,0.591c0.739,0.568,0.972,1.124,0.692,1.673c-4.491,9.014-6.925,14.69-7.301,17.021
		c-0.101,0.801-0.156,1.353-0.16,1.656c-0.022,1.359,0.379,2.039,1.198,2.053c0.771,0.014,1.402-0.114,1.91-0.386
		C860.18,473.902,860.521,473.769,860.697,473.77L860.697,473.77z"/>
	<path fill="#FFFFFF" d="M873.759,476.033c1.677,0.024,3.39-0.697,5.146-2.17c2.675-2.24,4.495-5.481,5.478-9.71
		c0.322-1.392,0.497-2.833,0.522-4.349c0.02-1.507-0.13-2.561-0.463-3.173c-0.328-0.617-0.846-0.927-1.551-0.938
		c-0.702-0.011-1.447,0.268-2.222,0.826c-0.775,0.558-1.588,1.301-2.445,2.22c-0.853,0.929-1.691,1.994-2.536,3.206
		c-0.844,1.206-1.603,2.459-2.285,3.75c-1.488,2.848-2.248,5.283-2.277,7.283C871.093,474.99,871.971,476.007,873.759,476.033
		L873.759,476.033z M866.329,471.529c0.016-1.037,0.111-2.027,0.271-2.965c0.17-0.947,0.383-1.898,0.637-2.857
		c0.258-0.957,0.541-1.918,0.865-2.879l3.136-9.107c2.492-7.384,4.063-13.161,4.735-17.329c0.215-1.495,0.97-2.231,2.229-2.212
		c0.749,0.012,1.384,0.215,1.896,0.619c0.923,0.783,1.379,1.604,1.336,2.465c-0.034,0.868-0.176,1.831-0.413,2.889
		c-0.241,1.06-0.548,2.211-0.916,3.455c-0.364,1.243-0.782,2.547-1.241,3.913c-1.258,3.515-2.188,6.051-2.805,7.614l-1.588,3.966
		c1.595-2.386,2.883-4.02,3.879-4.896c1.987-1.701,4.048-2.534,6.171-2.5c3.121,0.047,5.176,1.71,6.161,4.992
		c0.317,1.128,0.465,2.533,0.438,4.212c-0.025,1.674-0.293,3.337-0.811,4.979c-0.516,1.643-1.203,3.17-2.063,4.57
		c-0.861,1.409-1.859,2.675-2.995,3.796c-1.123,1.127-2.316,2.082-3.562,2.864c-2.628,1.636-5.165,2.438-7.612,2.398
		c-2.463-0.037-4.383-0.818-5.771-2.337C866.955,475.662,866.295,473.776,866.329,471.529L866.329,471.529z"/>
	<path fill="#FFFFFF" d="M896.131,478.521c-0.449-0.473-0.798-1.068-1.062-1.799c-0.266-0.729-0.393-1.568-0.374-2.525
		c0.014-0.95,0.246-2.229,0.709-3.825c0.467-1.6,1.053-3.419,1.755-5.46l2.359-6.63c3.332-9.229,5.289-16.38,5.866-21.434
		c0.19-1.503,0.927-2.235,2.232-2.218c0.82,0.013,1.497,0.219,2.021,0.622c1.024,0.798,1.512,1.681,1.461,2.646
		c-0.051,0.961-0.239,2.133-0.56,3.507c-0.327,1.383-0.743,2.883-1.248,4.512c-0.509,1.621-1.092,3.339-1.738,5.148l-3.865,10.813
		c-2.219,6.142-3.34,10.114-3.368,11.915c-0.016,0.963,0.369,1.449,1.152,1.461c0.755,0.012,1.445-0.14,2.055-0.448
		c0.63-0.314,1.025-0.469,1.204-0.465c0.369,0.007,0.557,0.196,0.552,0.572c-0.026,1.586-0.855,2.906-2.494,3.948
		c-1.104,0.713-2.104,1.065-3.002,1.05c-0.897-0.011-1.625-0.129-2.175-0.353C897.06,479.337,896.561,478.986,896.131,478.521
		L896.131,478.521z"/>
	<path fill="#FFFFFF" d="M925.075,446.053c-0.396,0.41-0.844,0.743-1.346,0.998c-0.504,0.245-1.035,0.396-1.59,0.457
		c-0.555,0.053-1.074-0.042-1.556-0.281c-0.487-0.24-0.908-0.575-1.257-1.008c-0.758-0.905-1.131-1.813-1.115-2.724
		c0.011-0.911,0.175-1.592,0.477-2.038c0.296-0.453,0.673-0.816,1.127-1.096c0.866-0.542,1.674-0.802,2.441-0.79
		c0.748,0.012,1.341,0.067,1.763,0.184c0.415,0.114,0.8,0.301,1.147,0.555c0.868,0.601,1.294,1.328,1.283,2.178
		c-0.012,0.846-0.147,1.55-0.397,2.105C925.803,445.157,925.481,445.638,925.075,446.053L925.075,446.053z M919.149,474.938
		c0.462,0.008,0.689,0.313,0.678,0.922c-0.012,0.8-0.389,1.627-1.134,2.472c-1.091,1.234-2.534,1.836-4.337,1.806
		c-2.064-0.03-3.472-0.891-4.219-2.581c-0.272-0.592-0.404-1.311-0.394-2.144c0.016-0.839,0.171-1.773,0.486-2.796
		c0.303-1.02,0.691-2.093,1.142-3.215c0.463-1.13,0.953-2.271,1.491-3.421l1.469-3.351c1.075-2.499,1.616-4.152,1.626-4.952
		c0.014-0.807-0.057-1.337-0.227-1.595c-0.166-0.265-0.35-0.472-0.535-0.614l-0.531-0.383c-0.184-0.133-0.262-0.346-0.257-0.661
		c0.006-0.309,0.132-0.604,0.373-0.891c0.248-0.278,0.567-0.525,0.959-0.733c0.809-0.396,1.753-0.592,2.825-0.573
		c2.613,0.039,3.918,0.75,3.896,2.122c-0.022,1.604-0.471,3.435-1.342,5.479c-0.867,2.054-1.606,3.705-2.216,4.96l-1.662,3.67
		c-1.217,2.693-1.84,4.639-1.86,5.833c-0.011,0.785,0.375,1.186,1.156,1.194c0.773,0.014,1.354-0.074,1.751-0.266
		C918.688,475.03,918.968,474.936,919.149,474.938L919.149,474.938z"/>
	<path fill="#FFFFFF" d="M947.833,456.455c-0.03-0.002-0.056,0.024-0.078,0.075L947.833,456.455L947.833,456.455z M934.016,476.426
		c1.837,0.028,3.976-1.732,6.419-5.282c2.521-3.673,4.306-7.689,5.354-12.043c-0.056-1.215-0.549-2.12-1.486-2.702
		c-0.313-0.198-0.802-0.308-1.456-0.317c-0.644-0.012-1.41,0.214-2.282,0.67c-0.874,0.464-1.714,1.089-2.518,1.879
		c-0.805,0.791-1.566,1.725-2.281,2.791c-0.709,1.068-1.333,2.205-1.87,3.41c-1.148,2.573-1.738,5.139-1.782,7.707
		C932.079,475.109,932.71,476.406,934.016,476.426L934.016,476.426z M948.084,456.244c1.268-1.055,2.317-1.57,3.156-1.558
		c0.495,0.007,1.002,0.201,1.516,0.585c0.952,0.728,1.343,1.349,1.173,1.865c-0.051,0.196-0.142,0.425-0.247,0.688l-0.366,0.908
		c-0.26,0.707-0.535,1.356-0.833,1.938c-0.292,0.586-0.661,1.355-1.104,2.314c-3.13,7.127-5.112,11.887-5.965,14.284
		c-0.85,2.398-1.461,4.26-1.837,5.595c-0.872,2.947-1.312,5.073-1.332,6.374c-0.027,1.856,0.058,3.085,0.252,3.685
		c0.201,0.604,0.262,1.027,0.19,1.276c-0.062,0.247-0.199,0.449-0.39,0.612c-0.402,0.312-0.9,0.466-1.507,0.455
		c-0.61-0.01-1.146-0.122-1.603-0.347c-0.459-0.219-0.871-0.565-1.241-1.035c-0.811-1.065-1.15-2.58-1.057-4.539
		c0.075-2.602,1.363-6.701,3.887-12.282l1.8-3.987c-1.478,2.189-2.734,3.741-3.773,4.653c-2.085,1.824-4.136,2.721-6.141,2.689
		c-3.048-0.046-5.035-1.665-5.973-4.858c-0.326-1.094-0.475-2.438-0.451-4.021c0.027-1.587,0.288-3.179,0.787-4.771
		c0.498-1.583,1.159-3.09,1.996-4.503c0.834-1.417,1.798-2.719,2.9-3.903c1.091-1.19,2.257-2.209,3.481-3.064
		c2.598-1.834,5.05-2.735,7.354-2.701C945.061,452.636,946.833,453.85,948.084,456.244L948.084,456.244z"/>
	<path fill="#FFFFFF" d="M980.066,475.607c0.415,0.009,0.61,0.217,0.606,0.624c-0.022,1.555-0.812,2.847-2.36,3.873
		c-1.049,0.661-2.264,0.982-3.657,0.963c-1.143-0.02-2.011-0.302-2.611-0.841c-1.074-0.984-1.598-2.17-1.58-3.562
		c0.03-1.767,0.816-4.458,2.353-8.075c-2.806,3.669-4.773,6.107-5.892,7.313c-1.131,1.203-2.106,2.14-2.938,2.806
		c-1.81,1.438-3.439,2.142-4.874,2.117c-2.219-0.031-3.674-1.013-4.38-2.927c-0.203-0.598-0.3-1.27-0.29-2.03
		c0.014-0.757,0.154-1.605,0.432-2.532c0.272-0.937,0.623-1.905,1.047-2.918c0.428-1.011,0.891-2.049,1.381-3.11l1.5-3.188
		c1.918-4.097,2.642-6.526,2.169-7.303c-0.205-0.344-0.6-0.689-1.188-1.033c-0.209-0.136-0.311-0.349-0.31-0.667
		c0.006-0.306,0.138-0.604,0.405-0.888c0.256-0.281,0.605-0.525,1.015-0.733c0.879-0.397,1.762-0.59,2.63-0.575
		c0.87,0.013,1.536,0.118,1.992,0.313c0.45,0.194,0.821,0.432,1.098,0.725c0.584,0.598,0.866,1.252,0.857,1.969
		c-0.01,0.714-0.142,1.508-0.388,2.393c-0.244,0.874-0.563,1.831-0.957,2.861c-0.393,1.03-0.813,2.092-1.275,3.194
		c-1.276,2.868-2.136,4.765-2.583,5.688l-1.015,2.044c-0.578,1.222-0.862,2.081-0.872,2.583c-0.01,0.499,0.067,0.853,0.22,1.058
		c0.162,0.209,0.454,0.318,0.863,0.325c0.418,0.004,0.914-0.182,1.473-0.565c0.559-0.388,1.17-0.902,1.838-1.551
		c0.677-0.653,1.373-1.405,2.103-2.258c0.725-0.856,1.44-1.739,2.128-2.659c1.364-1.802,2.369-3.247,3.015-4.344
		c3.881-6.628,5.959-10.099,6.207-10.398c0.584-0.76,1.171-1.133,1.772-1.122c0.598,0.008,1.112,0.081,1.563,0.225
		c0.444,0.138,0.822,0.337,1.138,0.59c0.744,0.569,0.978,1.123,0.703,1.67c-4.499,9.018-6.931,14.694-7.304,17.022
		c-0.105,0.803-0.159,1.354-0.165,1.659c-0.018,1.355,0.381,2.037,1.202,2.051c0.767,0.013,1.401-0.113,1.909-0.385
		C979.551,475.737,979.896,475.604,980.066,475.607L980.066,475.607z"/>
	<path fill="#FFFFFF" d="M1001.609,457.065c-1.878-0.027-3.695,1.229-5.466,3.772c-1.501,2.19-2.715,4.795-3.651,7.813
		c2.981-0.256,5.586-1.395,7.812-3.418c2.048-1.893,3.085-3.72,3.108-5.49C1003.44,457.978,1002.839,457.086,1001.609,457.065
		L1001.609,457.065z M985.753,471.601c0.095-1.55,0.373-3.03,0.844-4.446c0.469-1.409,1.088-2.776,1.855-4.095
		c0.77-1.316,1.673-2.559,2.696-3.731c1.025-1.175,2.135-2.194,3.323-3.069c2.582-1.867,5.182-2.784,7.783-2.743
		c3.048,0.047,5.059,1.337,6.043,3.868c0.34,0.864,0.501,1.874,0.462,3.042c-0.033,1.172-0.278,2.247-0.721,3.233
		c-0.443,0.978-1.046,1.871-1.824,2.671c-0.768,0.803-1.683,1.516-2.732,2.144c-1.059,0.625-2.194,1.15-3.436,1.577
		c-2.552,0.852-5.272,1.279-8.162,1.27c-0.072,0.247-0.117,0.622-0.15,1.121c-0.025,0.498,0.023,1.057,0.136,1.676
		c0.123,0.615,0.323,1.169,0.621,1.653c0.617,1.081,1.541,1.633,2.752,1.65c2.07,0.035,4.098-0.543,6.08-1.728
		c0.702-0.399,1.276-0.813,1.717-1.242c0.442-0.433,0.825-0.646,1.153-0.638c0.318,0.004,0.597,0.2,0.832,0.581
		c0.235,0.392,0.344,0.825,0.34,1.311c-0.015,0.941-0.299,1.763-0.837,2.448c-2.286,2.215-5.653,3.286-10.095,3.216
		c-2.619-0.038-4.716-0.855-6.274-2.449C986.396,477.105,985.598,474.669,985.753,471.601L985.753,471.601z"/>
</g>
</svg>
