<svg xmlns="http://www.w3.org/2000/svg" xmlns:xlink="http://www.w3.org/1999/xlink" viewBox="0 0 526.67 511.67"><defs><style>.cls-1{fill:#fff;}.cls-2{fill:#444;}.cls-3{fill:#e2e2e2;}.cls-4{fill:#188db5;}.cls-5{fill:#20a9ce;}.cls-6{fill:url(#Dégradé_sans_nom_10);}</style><linearGradient id="Dégradé_sans_nom_10" x1="179.32" y1="153.09" x2="245.37" y2="267.5" gradientUnits="userSpaceOnUse"><stop offset="0" stop-color="#fff" stop-opacity="0.3"/><stop offset="1" stop-color="#fff" stop-opacity="0"/></linearGradient></defs><title>plateforme</title><g id="Calque_2" data-name="Calque 2"><g id="Calque_1-2" data-name="Calque 1"><path class="cls-1" d="M18,299.83a1.5,1.5,0,0,1-1.5-1.5v-13.5H7a5.51,5.51,0,0,1-5.5-5.5v-62a5.51,5.51,0,0,1,5.5-5.5H99a5.51,5.51,0,0,1,5.5,5.5v62a5.51,5.51,0,0,1-5.5,5.5H33.62L19.06,299.39A1.5,1.5,0,0,1,18,299.83Z"/><path class="cls-2" d="M99,213.33a4,4,0,0,1,4,4v62a4,4,0,0,1-4,4H33l-15,15v-15H7a4,4,0,0,1-4-4v-62a4,4,0,0,1,4-4H99m0-3H7a7,7,0,0,0-7,7v62a7,7,0,0,0,7,7h8v12a3,3,0,0,0,5.12,2.12l14.12-14.12H99a7,7,0,0,0,7-7v-62a7,7,0,0,0-7-7Z"/><rect class="cls-3" x="13" y="221.5" width="80" height="5"/><rect class="cls-3" x="13" y="236.5" width="60" height="5"/><rect class="cls-3" x="13" y="251.5" width="70" height="5"/><rect class="cls-3" x="13" y="266.5" width="40" height="5"/><path class="cls-1" d="M97.11,129.86a1.5,1.5,0,0,1-1.5-1.5v-6h-4a3.5,3.5,0,0,1-3.5-3.5v-31a3.5,3.5,0,0,1,3.5-3.5h46a3.5,3.5,0,0,1,3.5,3.5v31a3.5,3.5,0,0,1-3.5,3.5H105.23l-7.06,7.06A1.5,1.5,0,0,1,97.11,129.86Z"/><path class="cls-2" d="M137.61,85.86a2,2,0,0,1,2,2v31a2,2,0,0,1-2,2h-33l-7.5,7.5v-7.5h-5.5a2,2,0,0,1-2-2v-31a2,2,0,0,1,2-2h46m0-3h-46a5,5,0,0,0-5,5v31a5,5,0,0,0,5,5h2.5v4.5a3,3,0,0,0,5.12,2.12l6.62-6.62h31.76a5,5,0,0,0,5-5v-31a5,5,0,0,0-5-5Z"/><rect class="cls-3" x="94.61" y="89.94" width="40" height="2.5"/><rect class="cls-3" x="94.61" y="97.44" width="30" height="2.5"/><rect class="cls-3" x="94.61" y="104.94" width="35" height="2.5"/><rect class="cls-3" x="94.61" y="112.44" width="20" height="2.5"/><path class="cls-1" d="M394.53,129.86a1.5,1.5,0,0,1-1.5-1.5v-6h-4a3.5,3.5,0,0,1-3.5-3.5v-31a3.5,3.5,0,0,1,3.5-3.5h46a3.5,3.5,0,0,1,3.5,3.5v31a3.5,3.5,0,0,1-3.5,3.5H402.65l-7.06,7.06A1.5,1.5,0,0,1,394.53,129.86Z"/><path class="cls-2" d="M435,85.86a2,2,0,0,1,2,2v31a2,2,0,0,1-2,2H402l-7.5,7.5v-7.5H389a2,2,0,0,1-2-2v-31a2,2,0,0,1,2-2h46m0-3H389a5,5,0,0,0-5,5v31a5,5,0,0,0,5,5h2.5v4.5a3,3,0,0,0,5.12,2.12l6.62-6.62H435a5,5,0,0,0,5-5v-31a5,5,0,0,0-5-5Z"/><rect class="cls-3" x="392.03" y="89.94" width="40" height="2.5"/><rect class="cls-3" x="392.03" y="97.44" width="30" height="2.5"/><rect class="cls-3" x="392.03" y="104.94" width="35" height="2.5"/><rect class="cls-3" x="392.03" y="112.44" width="20" height="2.5"/><path class="cls-1" d="M228.33,510.17a1.5,1.5,0,0,1-1.5-1.5v-13.5h-9.5a5.51,5.51,0,0,1-5.5-5.5v-62a5.51,5.51,0,0,1,5.5-5.5h92a5.51,5.51,0,0,1,5.5,5.5v62a5.51,5.51,0,0,1-5.5,5.5H244l-14.56,14.56A1.5,1.5,0,0,1,228.33,510.17Z"/><path class="cls-2" d="M309.33,423.67a4,4,0,0,1,4,4v62a4,4,0,0,1-4,4h-66l-15,15v-15h-11a4,4,0,0,1-4-4v-62a4,4,0,0,1,4-4h92m0-3h-92a7,7,0,0,0-7,7v62a7,7,0,0,0,7,7h8v12a3,3,0,0,0,5.12,2.12l14.12-14.12h64.76a7,7,0,0,0,7-7v-62a7,7,0,0,0-7-7Z"/><rect class="cls-3" x="223.33" y="431.83" width="80" height="5"/><rect class="cls-3" x="223.33" y="446.83" width="60" height="5"/><rect class="cls-3" x="223.33" y="461.83" width="70" height="5"/><rect class="cls-3" x="223.33" y="476.83" width="40" height="5"/><path class="cls-1" d="M508.67,299.83a1.5,1.5,0,0,1-1.06-.44L493,284.83H427.67a5.51,5.51,0,0,1-5.5-5.5v-62a5.51,5.51,0,0,1,5.5-5.5h92a5.51,5.51,0,0,1,5.5,5.5v62a5.51,5.51,0,0,1-5.5,5.5h-9.5v13.5a1.5,1.5,0,0,1-1.5,1.5Z"/><path class="cls-2" d="M519.67,213.33a4,4,0,0,1,4,4v62a4,4,0,0,1-4,4h-11v15l-15-15h-66a4,4,0,0,1-4-4v-62a4,4,0,0,1,4-4h92m0-3h-92a7,7,0,0,0-7,7v62a7,7,0,0,0,7,7h64.76l14.12,14.12a3,3,0,0,0,5.12-2.12v-12h8a7,7,0,0,0,7-7v-62a7,7,0,0,0-7-7Z"/><rect class="cls-3" x="433.67" y="221.5" width="80" height="5"/><rect class="cls-3" x="433.67" y="236.5" width="60" height="5"/><rect class="cls-3" x="433.67" y="251.5" width="70" height="5"/><rect class="cls-3" x="433.67" y="266.5" width="40" height="5"/><path class="cls-1" d="M429.55,427.31a1.5,1.5,0,0,1-1.06-.44l-7.06-7.06H389.05a3.5,3.5,0,0,1-3.5-3.5v-31a3.5,3.5,0,0,1,3.5-3.5h46a3.5,3.5,0,0,1,3.5,3.5v31a3.5,3.5,0,0,1-3.5,3.5h-4v6a1.5,1.5,0,0,1-1.5,1.5Z"/><path class="cls-2" d="M435.05,383.31a2,2,0,0,1,2,2v31a2,2,0,0,1-2,2h-5.5v7.5l-7.5-7.5h-33a2,2,0,0,1-2-2v-31a2,2,0,0,1,2-2h46m0-3h-46a5,5,0,0,0-5,5v31a5,5,0,0,0,5,5h31.76l6.62,6.62a3,3,0,0,0,5.12-2.12v-4.5h2.5a5,5,0,0,0,5-5v-31a5,5,0,0,0-5-5Z"/><rect class="cls-3" x="392.05" y="387.4" width="40" height="2.5"/><rect class="cls-3" x="392.05" y="394.9" width="30" height="2.5"/><rect class="cls-3" x="392.05" y="402.4" width="35" height="2.5"/><rect class="cls-3" x="392.05" y="409.9" width="20" height="2.5"/><path class="cls-1" d="M132.11,427.31a1.5,1.5,0,0,1-1.06-.44L124,419.81H91.61a3.5,3.5,0,0,1-3.5-3.5v-31a3.5,3.5,0,0,1,3.5-3.5h46a3.5,3.5,0,0,1,3.5,3.5v31a3.5,3.5,0,0,1-3.5,3.5h-4v6a1.5,1.5,0,0,1-1.5,1.5Z"/><path class="cls-2" d="M137.61,383.31a2,2,0,0,1,2,2v31a2,2,0,0,1-2,2h-5.5v7.5l-7.5-7.5h-33a2,2,0,0,1-2-2v-31a2,2,0,0,1,2-2h46m0-3h-46a5,5,0,0,0-5,5v31a5,5,0,0,0,5,5h31.76l6.62,6.62a3,3,0,0,0,5.12-2.12v-4.5h2.5a5,5,0,0,0,5-5v-31a5,5,0,0,0-5-5Z"/><rect class="cls-3" x="94.61" y="387.4" width="40" height="2.5"/><rect class="cls-3" x="94.61" y="394.9" width="30" height="2.5"/><rect class="cls-3" x="94.61" y="402.4" width="35" height="2.5"/><rect class="cls-3" x="94.61" y="409.9" width="20" height="2.5"/><path class="cls-1" d="M298.33,89.5a1.5,1.5,0,0,1-1.06-.44L282.71,74.5H217.33a5.51,5.51,0,0,1-5.5-5.5V7a5.51,5.51,0,0,1,5.5-5.5h92a5.51,5.51,0,0,1,5.5,5.5V69a5.51,5.51,0,0,1-5.5,5.5h-9.5V88a1.5,1.5,0,0,1-1.5,1.5Z"/><path class="cls-2" d="M309.33,3a4,4,0,0,1,4,4V69a4,4,0,0,1-4,4h-11V88l-15-15h-66a4,4,0,0,1-4-4V7a4,4,0,0,1,4-4h92m0-3h-92a7,7,0,0,0-7,7V69a7,7,0,0,0,7,7h64.76l14.12,14.12A3,3,0,0,0,301.33,88V76h8a7,7,0,0,0,7-7V7a7,7,0,0,0-7-7Z"/><rect class="cls-3" x="223.33" y="11.17" width="80" height="5"/><rect class="cls-3" x="223.33" y="26.17" width="60" height="5"/><rect class="cls-3" x="223.33" y="41.17" width="70" height="5"/><rect class="cls-3" x="223.33" y="56.17" width="40" height="5"/><path class="cls-2" d="M368.35,165.83a4,4,0,0,1,4,4V310.51a4,4,0,0,1-4,4H279.12v23.06h15.79a8.27,8.27,0,0,1,8.27,8.27h-79.7a8.27,8.27,0,0,1,8.27-8.27h15.79V314.51H158.31a4,4,0,0,1-4-4V169.83a4,4,0,0,1,4-4h210m0-3h-210a7,7,0,0,0-7,7V310.51a7,7,0,0,0,7,7h86.23v17.06H231.76a11.28,11.28,0,0,0-11.27,11.27,3,3,0,0,0,3,3h79.7a3,3,0,0,0,3-3,11.28,11.28,0,0,0-11.27-11.27H282.12V317.51h86.23a7,7,0,0,0,7-7V169.83a7,7,0,0,0-7-7Z"/><rect class="cls-2" x="154.31" y="165.83" width="218.04" height="148.67" rx="4" ry="4"/><rect class="cls-3" x="163.97" y="176.99" width="198.74" height="127.42" rx="4" ry="4"/><path class="cls-4" d="M168,177H358.7a4,4,0,0,1,4,4v7.11a0,0,0,0,1,0,0H164a0,0,0,0,1,0,0V181A4,4,0,0,1,168,177Z"/><rect class="cls-1" x="212.92" y="196.82" width="100.84" height="50.37" rx="2" ry="2"/><rect class="cls-3" x="217.53" y="202.96" width="46.24" height="6.77" rx="2" ry="2"/><rect class="cls-3" x="217.53" y="213.86" width="89.36" height="6.77" rx="2" ry="2"/><rect class="cls-3" x="217.53" y="224.76" width="75.83" height="6.77" rx="2" ry="2"/><rect class="cls-3" x="217.53" y="235.66" width="82.5" height="6.77" rx="2" ry="2"/><rect class="cls-1" x="212.92" y="254.04" width="100.84" height="50.37" rx="2" ry="2"/><rect class="cls-3" x="217.53" y="260.18" width="46.24" height="6.77" rx="2" ry="2"/><rect class="cls-3" x="217.53" y="271.08" width="89.36" height="6.77" rx="2" ry="2"/><rect class="cls-3" x="217.53" y="281.98" width="75.83" height="6.77" rx="2" ry="2"/><rect class="cls-3" x="217.53" y="292.88" width="82.5" height="6.77" rx="2" ry="2"/><rect class="cls-1" x="186.02" y="196.82" width="20.55" height="20.55" rx="2" ry="2"/><circle class="cls-5" cx="196.3" cy="207.1" r="4.14"/><path class="cls-5" d="M189.59,217.37H203a7.17,7.17,0,0,0-13.41,0Z"/><rect class="cls-1" x="186.02" y="254.04" width="20.55" height="20.55" rx="2" ry="2"/><circle class="cls-5" cx="196.3" cy="264.32" r="4.14"/><path class="cls-5" d="M189.59,274.59H203a7.17,7.17,0,0,0-13.41,0Z"/><path class="cls-6" d="M164,314.51h-5.65a4,4,0,0,1-4-4V169.83a4,4,0,0,1,4-4H303.18Z"/><rect class="cls-2" x="247.54" y="314.51" width="31.58" height="23.06"/><path class="cls-2" d="M231.76,337.56h63.16a8.27,8.27,0,0,1,8.27,8.27v0a0,0,0,0,1,0,0h-79.7a0,0,0,0,1,0,0v0A8.27,8.27,0,0,1,231.76,337.56Z"/></g></g></svg>